<?xml version="1.0" encoding="UTF-8" standalone="no"?>
<!-- Created with Inkscape (http://www.inkscape.org/) -->

<svg
   width="1920"
   height="1920"
   viewBox="0 0 508 508.00001"
   version="1.1"
   id="svg5"
   inkscape:version="1.1 (c68e22c387, 2021-05-23)"
   sodipodi:docname="Solana.svg"
   inkscape:export-filename="C:\Users\Aga\Pictures\SNY icons\Website icons\Features\eth1.png"
   inkscape:export-xdpi="96"
   inkscape:export-ydpi="96"
   xmlns:inkscape="http://www.inkscape.org/namespaces/inkscape"
   xmlns:sodipodi="http://sodipodi.sourceforge.net/DTD/sodipodi-0.dtd"
   xmlns:xlink="http://www.w3.org/1999/xlink"
   xmlns="http://www.w3.org/2000/svg"
   xmlns:svg="http://www.w3.org/2000/svg">
  <sodipodi:namedview
     id="namedview7"
     pagecolor="#ffffff"
     bordercolor="#666666"
     borderopacity="1.0"
     inkscape:pageshadow="2"
     inkscape:pageopacity="0.0"
     inkscape:pagecheckerboard="0"
     inkscape:document-units="mm"
     showgrid="false"
     inkscape:zoom="0.11313708"
     inkscape:cx="1122.532"
     inkscape:cy="-486.13591"
     inkscape:window-width="2560"
     inkscape:window-height="1346"
     inkscape:window-x="-11"
     inkscape:window-y="-11"
     inkscape:window-maximized="1"
     inkscape:current-layer="layer3"
     width="400mm"
     units="px"
     showguides="false" />
  <defs
     id="defs2">
    <linearGradient
       inkscape:collect="always"
       id="linearGradient111321">
      <stop
         style="stop-color:#3af8b9;stop-opacity:1"
         offset="0"
         id="stop111317" />
      <stop
         style="stop-color:#e253fe;stop-opacity:1"
         offset="1"
         id="stop111319" />
    </linearGradient>
    <rect
       id="SVGID_1_"
       width="24"
       height="24"
       x="0"
       y="0" />
    <defs
       id="defs13128">
      <rect
         id="rect13177"
         width="24"
         height="24"
         x="0"
         y="0" />
    </defs>
    <clipPath
       id="SVGID_2_">
      <use
         xlink:href="#SVGID_1_"
         style="overflow:visible"
         id="use13130"
         x="0"
         y="0"
         width="100%"
         height="100%" />
    </clipPath>
    <linearGradient
       id="SVGID_3_"
       gradientUnits="userSpaceOnUse"
       x1="20.644199"
       y1="1011.5057"
       x2="24.3328"
       y2="998.83948"
       gradientTransform="matrix(5.2106239,0,0,-5.2106239,694.79015,4518.4303)">
      <stop
         offset="0"
         style="stop-color:#03B8FF"
         id="stop13133" />
      <stop
         offset="1"
         style="stop-color:#FA52A0"
         id="stop13135" />
    </linearGradient>
    <linearGradient
       id="SVGID_4_"
       gradientUnits="userSpaceOnUse"
       x1="23.681801"
       y1="1012.3904"
       x2="27.370501"
       y2="999.72412"
       gradientTransform="matrix(1.3786443,0,0,-1.3786443,183.8299,1195.5014)">
      <stop
         offset="0"
         style="stop-color:#03B8FF"
         id="stop13140" />
      <stop
         offset="1"
         style="stop-color:#FA52A0"
         id="stop13142" />
    </linearGradient>
    <linearGradient
       id="SVGID_5_"
       gradientUnits="userSpaceOnUse"
       x1="17.615999"
       y1="1010.6239"
       x2="21.304701"
       y2="997.95758"
       gradientTransform="matrix(1.3786443,0,0,-1.3786443,183.8299,1195.5014)">
      <stop
         offset="0"
         style="stop-color:#03B8FF"
         id="stop13147" />
      <stop
         offset="1"
         style="stop-color:#FA52A0"
         id="stop13149" />
    </linearGradient>
    <rect
       id="SVGID_1_-5"
       width="800"
       height="800"
       x="0"
       y="0" />
    <filter
       style="color-interpolation-filters:sRGB"
       id="filter3433"
       inkscape:label="Shade"
       x="-0.14624325"
       y="-0.11773679"
       width="1.2924865"
       height="1.2681782">
      <feGaussianBlur
         stdDeviation="15"
         id="feGaussianBlur3435" />
      <feOffset
         dx="0"
         dy="10"
         id="feOffset3469" />
    </filter>
    <filter
       style="color-interpolation-filters:sRGB"
       id="filter3463"
       inkscape:label="SHADE BIG"
       x="-0.19225691"
       y="-0.15478124"
       width="1.3845138"
       height="1.3422671">
      <feGaussianBlur
         stdDeviation="19.719567307692309"
         id="feGaussianBlur3465" />
      <feOffset
         dx="0"
         dy="10"
         id="feOffset3467" />
    </filter>
    <filter
       style="color-interpolation-filters:sRGB"
       id="filter3463-0"
       inkscape:label="SHADE BIG"
       x="-0.15703077"
       y="-0.11881792"
       width="1.3140615"
       height="1.2627416">
      <feGaussianBlur
         stdDeviation="19.719567307692309"
         id="feGaussianBlur3465-3" />
      <feOffset
         dx="0"
         dy="10"
         id="feOffset3467-3" />
    </filter>
    <filter
       style="color-interpolation-filters:sRGB"
       id="filter3433-4"
       inkscape:label="Shade"
       x="-0.11944793"
       y="-0.090380719"
       width="1.2388959"
       height="1.2058672">
      <feGaussianBlur
         stdDeviation="15"
         id="feGaussianBlur3435-9" />
      <feOffset
         dx="0"
         dy="10"
         id="feOffset3469-7" />
    </filter>
    <linearGradient
       inkscape:collect="always"
       xlink:href="#linearGradient111321"
       id="linearGradient77059"
       x1="444.30637"
       y1="101.1166"
       x2="63.523525"
       y2="406.62558"
       gradientUnits="userSpaceOnUse"
       gradientTransform="matrix(0.93150449,0,0,0.93150449,17.397861,17.740338)" />
    <linearGradient
       inkscape:collect="always"
       id="linearGradient77057">
      <stop
         style="stop-color:#09f5a7;stop-opacity:1"
         offset="0"
         id="stop77053" />
      <stop
         style="stop-color:#da21fe;stop-opacity:1"
         offset="1"
         id="stop77055" />
    </linearGradient>
    <linearGradient
       inkscape:collect="always"
       xlink:href="#linearGradient77057"
       id="linearGradient98186"
       gradientUnits="userSpaceOnUse"
       x1="444.30637"
       y1="101.1166"
       x2="63.523525"
       y2="406.62558" />
    <linearGradient
       inkscape:collect="always"
       xlink:href="#linearGradient77057"
       id="linearGradient98188"
       gradientUnits="userSpaceOnUse"
       x1="444.30637"
       y1="101.1166"
       x2="63.523525"
       y2="406.62558" />
  </defs>
  <g
     inkscape:groupmode="layer"
     id="layer2"
     inkscape:label="BLACK"
     style="display:inline;opacity:1" />
  <g
     inkscape:groupmode="layer"
     id="layer7"
     inkscape:label="Z jasny"
     style="display:inline;opacity:1" />
  <g
     inkscape:groupmode="layer"
     id="layer9"
     inkscape:label="Z ciemny"
     style="display:inline;opacity:1" />
  <g
     inkscape:groupmode="layer"
     id="layer5"
     inkscape:label="Logo"
     style="display:inline" />
  <g
     inkscape:groupmode="layer"
     id="layer8"
     inkscape:label="MADE"
     style="display:none">
    <g
       id="g3458"
       style="display:inline;opacity:0.4;mix-blend-mode:lighten;filter:url(#filter3463-0)"
       transform="matrix(1.0095672,0,0,1.0095672,776.50327,-557.81123)"
       inkscape:export-filename="C:\Users\Aga\Pictures\SNY icons\Website icons\Features\bitcoin.png"
       inkscape:export-xdpi="96"
       inkscape:export-ydpi="96">
      <g
         id="g3456">
        <path
           id="path3454"
           style="display:inline;fill:#f89c2d;fill-opacity:1;stroke-width:1.03395;stroke-linecap:round;stroke-dashoffset:26.8087;stop-color:#000000"
           d="m 252.66048,54.842588 c 0.80879,0 32.90274,7.8382 33.43039,8.164345 0.20334,0.1268 -2.72932,12.63611 -6.51728,27.79856 -3.78796,15.162667 -6.77329,27.674487 -6.63529,27.810547 0.13937,0.13594 5.92622,1.57417 12.86333,3.19393 6.93732,1.61941 13.1159,3.08139 13.73105,3.2467 1.07154,0.28672 1.39483,-0.83164 7.81011,-26.942807 3.68114,-14.98287 6.8666,-27.42706 7.07806,-27.65703 0.34613,-0.37583 33.36951,7.57797 33.97359,8.18217 0.13936,0.13936 -2.8302,12.72648 -6.59987,27.981677 -3.76923,15.25508 -6.85371,28.00189 -6.85371,28.32415 0,0.32214 1.24014,1.02013 2.75674,1.55235 21.77877,7.6384 38.71588,17.23207 49.78272,28.18833 14.57824,14.43248 19.76033,31.40133 16.06285,52.60446 -1.71948,9.86155 -5.51383,19.7536 -10.27177,26.7597 -6.28058,9.24879 -16.67276,16.57017 -28.76681,20.27188 -2.38457,0.72997 -4.33892,1.41025 -4.33892,1.51124 0,0.1028 1.71228,1.13436 3.80761,2.29076 12.67974,6.99616 23.57455,17.93427 28.52486,28.64871 6.44223,13.94342 6.32731,30.78537 -0.35414,50.98688 -7.26197,21.95778 -20.04054,37.71139 -36.96063,45.57347 -18.70524,8.6921 -41.83405,10.00239 -76.88477,4.3509 -4.70504,-0.75853 -8.63122,-1.28698 -8.72513,-1.17491 -0.10281,0.11423 -3.33797,12.91188 -7.20783,28.4481 -6.41755,25.76561 -7.12994,28.24613 -8.09353,28.20021 -0.58031,-0.0342 -8.26828,-1.85131 -17.08412,-4.05562 -8.81582,-2.20429 -16.09825,-4.04224 -16.18097,-4.08519 -0.0914,-0.0342 2.91394,-12.34812 6.65894,-27.34389 3.74489,-14.99612 6.88821,-27.71003 6.9836,-28.25344 0.15421,-0.87391 -1.39254,-1.40066 -13.47723,-4.56911 -7.50852,-1.96852 -13.7393,-3.48649 -13.84919,-3.37671 -0.11424,0.11424 -3.34368,12.76303 -7.18431,28.11739 -3.84073,15.35459 -7.09943,28.02668 -7.23743,28.1648 -0.28217,0.28102 -33.3936,-7.92079 -33.86152,-8.38858 -0.1645,-0.16337 2.90034,-13.07936 6.80654,-28.70194 3.90618,-15.6227 6.93184,-28.51425 6.72393,-28.64276 -0.20677,-0.13023 -15.02148,-3.92412 -32.91691,-8.43611 -17.89542,-4.51164 -33.39246,-8.42491 -34.43989,-8.69542 l -1.90683,-0.49007 8.37681,-19.30979 c 4.60544,-10.62132 8.53138,-19.48056 8.73096,-19.68162 0.19991,-0.2022 5.75167,1.02812 12.33795,2.72728 6.58628,1.69914 13.28074,3.2491 14.87046,3.44775 5.31336,0.66371 9.81333,-1.57508 12.55043,-6.24609 0.93102,-1.58914 6.71206,-23.96262 20.79737,-80.5032 17.66649,-70.91537 19.476,-78.58678 19.20949,-81.34182 -0.40782,-4.21154 -2.02952,-7.6593 -4.93524,-10.50195 -4.23232,-4.14106 -7.92626,-5.53416 -26.24619,-9.89982 -6.24255,-1.48804 -9.59287,-2.5205 -9.59287,-2.95757 0,-1.19239 8.54246,-35.070927 8.96126,-35.538157 0.22275,-0.2479 15.82078,3.36002 34.65832,8.016857 18.83742,4.65638 34.43658,8.46535 34.67019,8.46535 0.23304,0 3.54783,-12.653367 7.36149,-28.117617 4.64267,-18.8269 7.15438,-28.117385 7.60344,-28.117385 z M 263.4045,159.83288 c -0.18963,0.21134 -4.05253,15.40062 -8.58347,33.75528 -4.53118,18.35477 -8.34758,33.75734 -8.48306,34.22742 -0.28559,0.98814 -1.24209,0.67285 12.39107,4.13227 21.0681,5.34681 34.98,7.06904 46.51214,5.76754 h 0.006 c 16.73067,-1.88843 26.87346,-9.56407 30.52606,-23.1055 1.23842,-4.58932 1.28434,-12.95129 0.0914,-16.81864 -4.20366,-13.63808 -19.08919,-24.17579 -44.57585,-31.5591 -9.73028,-2.81876 -27.44098,-6.88398 -27.88136,-6.39927 z m -25.92143,103.73905 c -0.08,0.10282 -4.40083,17.26096 -9.61057,38.14126 l -9.46892,37.96432 1.90078,0.53119 c 19.00877,5.31872 39.71178,9.54295 52.35646,10.67913 4.87092,0.43753 15.57849,0.31987 19.97099,-0.21704 14.5426,-1.78209 24.98194,-8.03262 29.82944,-17.8575 3.85021,-7.80382 4.71647,-17.56917 2.21367,-25.02422 -5.73855,-17.09464 -26.11038,-29.45932 -64.293,-39.02099 -10.85848,-2.71905 -22.72602,-5.4124 -22.89885,-5.19477 z"
           sodipodi:nodetypes="scscscssssscssssscsssscscscssssscsscscccssssssssssssssscsssssscscccccsscssscc" />
      </g>
    </g>
    <g
       id="g3448"
       style="display:inline;opacity:0.6;mix-blend-mode:lighten;filter:url(#filter3433-4)"
       transform="matrix(1.0095672,0,0,1.0095672,776.50327,-557.81123)"
       inkscape:export-filename="C:\Users\Aga\Pictures\SNY icons\Website icons\Features\bitcoin.png"
       inkscape:export-xdpi="96"
       inkscape:export-ydpi="96">
      <g
         id="g3446">
        <path
           id="path3444"
           style="display:inline;fill:#f89c2d;fill-opacity:1;stroke-width:1.03395;stroke-linecap:round;stroke-dashoffset:26.8087;stop-color:#000000"
           d="m 252.66048,54.842588 c 0.80879,0 32.90274,7.8382 33.43039,8.164345 0.20334,0.1268 -2.72932,12.63611 -6.51728,27.79856 -3.78796,15.162667 -6.77329,27.674487 -6.63529,27.810547 0.13937,0.13594 5.92622,1.57417 12.86333,3.19393 6.93732,1.61941 13.1159,3.08139 13.73105,3.2467 1.07154,0.28672 1.39483,-0.83164 7.81011,-26.942807 3.68114,-14.98287 6.8666,-27.42706 7.07806,-27.65703 0.34613,-0.37583 33.36951,7.57797 33.97359,8.18217 0.13936,0.13936 -2.8302,12.72648 -6.59987,27.981677 -3.76923,15.25508 -6.85371,28.00189 -6.85371,28.32415 0,0.32214 1.24014,1.02013 2.75674,1.55235 21.77877,7.6384 38.71588,17.23207 49.78272,28.18833 14.57824,14.43248 19.76033,31.40133 16.06285,52.60446 -1.71948,9.86155 -5.51383,19.7536 -10.27177,26.7597 -6.28058,9.24879 -16.67276,16.57017 -28.76681,20.27188 -2.38457,0.72997 -4.33892,1.41025 -4.33892,1.51124 0,0.1028 1.71228,1.13436 3.80761,2.29076 12.67974,6.99616 23.57455,17.93427 28.52486,28.64871 6.44223,13.94342 6.32731,30.78537 -0.35414,50.98688 -7.26197,21.95778 -20.04054,37.71139 -36.96063,45.57347 -18.70524,8.6921 -41.83405,10.00239 -76.88477,4.3509 -4.70504,-0.75853 -8.63122,-1.28698 -8.72513,-1.17491 -0.10281,0.11423 -3.33797,12.91188 -7.20783,28.4481 -6.41755,25.76561 -7.12994,28.24613 -8.09353,28.20021 -0.58031,-0.0342 -8.26828,-1.85131 -17.08412,-4.05562 -8.81582,-2.20429 -16.09825,-4.04224 -16.18097,-4.08519 -0.0914,-0.0342 2.91394,-12.34812 6.65894,-27.34389 3.74489,-14.99612 6.88821,-27.71003 6.9836,-28.25344 0.15421,-0.87391 -1.39254,-1.40066 -13.47723,-4.56911 -7.50852,-1.96852 -13.7393,-3.48649 -13.84919,-3.37671 -0.11424,0.11424 -3.34368,12.76303 -7.18431,28.11739 -3.84073,15.35459 -7.09943,28.02668 -7.23743,28.1648 -0.28217,0.28102 -33.3936,-7.92079 -33.86152,-8.38858 -0.1645,-0.16337 2.90034,-13.07936 6.80654,-28.70194 3.90618,-15.6227 6.93184,-28.51425 6.72393,-28.64276 -0.20677,-0.13023 -15.02148,-3.92412 -32.91691,-8.43611 -17.89542,-4.51164 -33.39246,-8.42491 -34.43989,-8.69542 l -1.90683,-0.49007 8.37681,-19.30979 c 4.60544,-10.62132 8.53138,-19.48056 8.73096,-19.68162 0.19991,-0.2022 5.75167,1.02812 12.33795,2.72728 6.58628,1.69914 13.28074,3.2491 14.87046,3.44775 5.31336,0.66371 9.81333,-1.57508 12.55043,-6.24609 0.93102,-1.58914 6.71206,-23.96262 20.79737,-80.5032 17.66649,-70.91537 19.476,-78.58678 19.20949,-81.34182 -0.40782,-4.21154 -2.02952,-7.6593 -4.93524,-10.50195 -4.23232,-4.14106 -7.92626,-5.53416 -26.24619,-9.89982 -6.24255,-1.48804 -9.59287,-2.5205 -9.59287,-2.95757 0,-1.19239 8.54246,-35.070927 8.96126,-35.538157 0.22275,-0.2479 15.82078,3.36002 34.65832,8.016857 18.83742,4.65638 34.43658,8.46535 34.67019,8.46535 0.23304,0 3.54783,-12.653367 7.36149,-28.117617 4.64267,-18.8269 7.15438,-28.117385 7.60344,-28.117385 z M 263.4045,159.83288 c -0.18963,0.21134 -4.05253,15.40062 -8.58347,33.75528 -4.53118,18.35477 -8.34758,33.75734 -8.48306,34.22742 -0.28559,0.98814 -1.24209,0.67285 12.39107,4.13227 21.0681,5.34681 34.98,7.06904 46.51214,5.76754 h 0.006 c 16.73067,-1.88843 26.87346,-9.56407 30.52606,-23.1055 1.23842,-4.58932 1.28434,-12.95129 0.0914,-16.81864 -4.20366,-13.63808 -19.08919,-24.17579 -44.57585,-31.5591 -9.73028,-2.81876 -27.44098,-6.88398 -27.88136,-6.39927 z m -25.92143,103.73905 c -0.08,0.10282 -4.40083,17.26096 -9.61057,38.14126 l -9.46892,37.96432 1.90078,0.53119 c 19.00877,5.31872 39.71178,9.54295 52.35646,10.67913 4.87092,0.43753 15.57849,0.31987 19.97099,-0.21704 14.5426,-1.78209 24.98194,-8.03262 29.82944,-17.8575 3.85021,-7.80382 4.71647,-17.56917 2.21367,-25.02422 -5.73855,-17.09464 -26.11038,-29.45932 -64.293,-39.02099 -10.85848,-2.71905 -22.72602,-5.4124 -22.89885,-5.19477 z"
           sodipodi:nodetypes="scscscssssscssssscsssscscscssssscsscscccssssssssssssssscsssssscscccccsscssscc" />
      </g>
    </g>
    <g
       id="g3439"
       style="display:inline;fill:#f9c046;fill-opacity:1"
       transform="matrix(1.0063125,0,0,1.0063125,777.32996,-557.25994)">
      <g
         id="g3429"
         style="fill:#f9c046;fill-opacity:1">
        <path
           id="circle2521-6-4-2"
           style="display:inline;fill:#f9c046;fill-opacity:1;stroke-width:1.03395;stroke-linecap:round;stroke-dashoffset:26.8087;stop-color:#000000"
           d="m 252.66048,54.842588 c 0.80879,0 32.90274,7.8382 33.43039,8.164345 0.20334,0.1268 -2.72932,12.63611 -6.51728,27.79856 -3.78796,15.162667 -6.77329,27.674487 -6.63529,27.810547 0.13937,0.13594 5.92622,1.57417 12.86333,3.19393 6.93732,1.61941 13.1159,3.08139 13.73105,3.2467 1.07154,0.28672 1.39483,-0.83164 7.81011,-26.942807 3.68114,-14.98287 6.8666,-27.42706 7.07806,-27.65703 0.34613,-0.37583 33.36951,7.57797 33.97359,8.18217 0.13936,0.13936 -2.8302,12.72648 -6.59987,27.981677 -3.76923,15.25508 -6.85371,28.00189 -6.85371,28.32415 0,0.32214 1.24014,1.02013 2.75674,1.55235 21.77877,7.6384 38.71588,17.23207 49.78272,28.18833 14.57824,14.43248 19.76033,31.40133 16.06285,52.60446 -1.71948,9.86155 -5.51383,19.7536 -10.27177,26.7597 -6.28058,9.24879 -16.67276,16.57017 -28.76681,20.27188 -2.38457,0.72997 -4.33892,1.41025 -4.33892,1.51124 0,0.1028 1.71228,1.13436 3.80761,2.29076 12.67974,6.99616 23.57455,17.93427 28.52486,28.64871 6.44223,13.94342 6.32731,30.78537 -0.35414,50.98688 -7.26197,21.95778 -20.04054,37.71139 -36.96063,45.57347 -18.70524,8.6921 -41.83405,10.00239 -76.88477,4.3509 -4.70504,-0.75853 -8.63122,-1.28698 -8.72513,-1.17491 -0.10281,0.11423 -3.33797,12.91188 -7.20783,28.4481 -6.41755,25.76561 -7.12994,28.24613 -8.09353,28.20021 -0.58031,-0.0342 -8.26828,-1.85131 -17.08412,-4.05562 -8.81582,-2.20429 -16.09825,-4.04224 -16.18097,-4.08519 -0.0914,-0.0342 2.91394,-12.34812 6.65894,-27.34389 3.74489,-14.99612 6.88821,-27.71003 6.9836,-28.25344 0.15421,-0.87391 -1.39254,-1.40066 -13.47723,-4.56911 -7.50852,-1.96852 -13.7393,-3.48649 -13.84919,-3.37671 -0.11424,0.11424 -3.34368,12.76303 -7.18431,28.11739 -3.84073,15.35459 -7.09943,28.02668 -7.23743,28.1648 -0.28217,0.28102 -33.3936,-7.92079 -33.86152,-8.38858 -0.1645,-0.16337 2.90034,-13.07936 6.80654,-28.70194 3.90618,-15.6227 6.93184,-28.51425 6.72393,-28.64276 -0.20677,-0.13023 -15.02148,-3.92412 -32.91691,-8.43611 -17.89542,-4.51164 -33.39246,-8.42491 -34.43989,-8.69542 l -1.90683,-0.49007 8.37681,-19.30979 c 4.60544,-10.62132 8.53138,-19.48056 8.73096,-19.68162 0.19991,-0.2022 5.75167,1.02812 12.33795,2.72728 6.58628,1.69914 13.28074,3.2491 14.87046,3.44775 5.31336,0.66371 9.81333,-1.57508 12.55043,-6.24609 0.93102,-1.58914 6.71206,-23.96262 20.79737,-80.5032 17.66649,-70.91537 19.476,-78.58678 19.20949,-81.34182 -0.40782,-4.21154 -2.02952,-7.6593 -4.93524,-10.50195 -4.23232,-4.14106 -7.92626,-5.53416 -26.24619,-9.89982 -6.24255,-1.48804 -9.59287,-2.5205 -9.59287,-2.95757 0,-1.19239 8.54246,-35.070927 8.96126,-35.538157 0.22275,-0.2479 15.82078,3.36002 34.65832,8.016857 18.83742,4.65638 34.43658,8.46535 34.67019,8.46535 0.23304,0 3.54783,-12.653367 7.36149,-28.117617 4.64267,-18.8269 7.15438,-28.117385 7.60344,-28.117385 z M 263.4045,159.83288 c -0.18963,0.21134 -4.05253,15.40062 -8.58347,33.75528 -4.53118,18.35477 -8.34758,33.75734 -8.48306,34.22742 -0.28559,0.98814 -1.24209,0.67285 12.39107,4.13227 21.0681,5.34681 34.98,7.06904 46.51214,5.76754 h 0.006 c 16.73067,-1.88843 26.87346,-9.56407 30.52606,-23.1055 1.23842,-4.58932 1.28434,-12.95129 0.0914,-16.81864 -4.20366,-13.63808 -19.08919,-24.17579 -44.57585,-31.5591 -9.73028,-2.81876 -27.44098,-6.88398 -27.88136,-6.39927 z m -25.92143,103.73905 c -0.08,0.10282 -4.40083,17.26096 -9.61057,38.14126 l -9.46892,37.96432 1.90078,0.53119 c 19.00877,5.31872 39.71178,9.54295 52.35646,10.67913 4.87092,0.43753 15.57849,0.31987 19.97099,-0.21704 14.5426,-1.78209 24.98194,-8.03262 29.82944,-17.8575 3.85021,-7.80382 4.71647,-17.56917 2.21367,-25.02422 -5.73855,-17.09464 -26.11038,-29.45932 -64.293,-39.02099 -10.85848,-2.71905 -22.72602,-5.4124 -22.89885,-5.19477 z"
           sodipodi:nodetypes="scscscssssscssssscsssscscscssssscsscscccssssssssssssssscsssssscscccccsscssscc" />
      </g>
    </g>
    <g
       id="g75990"
       style="display:inline;opacity:0.5;mix-blend-mode:lighten;filter:url(#filter3463)"
       transform="translate(1200.5944,-550.73382)">
      <path
         id="path75976"
         style="fill:#62688f;fill-opacity:1;stroke-width:1.03676;stroke-linecap:round;stroke-dashoffset:26.8087;stop-color:#000000"
         d="m 253.95245,53.619047 123.0116,204.095423 -123.0116,72.71987 -122.9875,-72.71987 z m -122.9875,227.429703 122.9875,72.67255 123.0826,-72.67255 -123.0826,173.33218 z"
         sodipodi:nodetypes="cccccccccc" />
      <path
         style="fill:none;fill-rule:evenodd;stroke:#000000;stroke-width:0.264583px;stroke-linecap:butt;stroke-linejoin:miter;stroke-opacity:1"
         d="M 253.95245,330.43434 V 53.619057"
         id="path75978" />
      <path
         style="font-variation-settings:normal;opacity:1;vector-effect:none;fill:#454a75;fill-opacity:1;fill-rule:evenodd;stroke:none;stroke-width:0.264583px;stroke-linecap:butt;stroke-linejoin:miter;stroke-miterlimit:4;stroke-dasharray:none;stroke-dashoffset:0;stroke-opacity:1;-inkscape-stroke:none;stop-color:#000000;stop-opacity:1"
         d="m 253.95172,214.60806 123.01232,43.10642 -123.01159,72.71986 z"
         id="path75980"
         sodipodi:nodetypes="cccc" />
      <path
         style="font-variation-settings:normal;opacity:1;vector-effect:none;fill:#62688f;fill-opacity:1;fill-rule:evenodd;stroke:none;stroke-width:0.264583px;stroke-linecap:butt;stroke-linejoin:miter;stroke-miterlimit:4;stroke-dasharray:none;stroke-dashoffset:0;stroke-opacity:1;-inkscape-stroke:none;stop-color:#000000;stop-opacity:1"
         d="m 253.97727,214.60806 -123.01232,43.10642 123.01159,72.71986 z"
         id="path75982"
         sodipodi:nodetypes="cccc" />
      <path
         style="fill:#8a92b2;fill-opacity:1;fill-rule:evenodd;stroke:none;stroke-width:0.264583px;stroke-linecap:butt;stroke-linejoin:miter;stroke-opacity:1"
         d="M 253.97727,214.60806 130.96495,257.71448 253.95245,53.619055 Z"
         id="path75984" />
      <path
         style="fill:#62688f;fill-opacity:1;fill-rule:evenodd;stroke:none;stroke-width:0.264583px;stroke-linecap:butt;stroke-linejoin:miter;stroke-opacity:1"
         d="M 253.97727,214.60806 376.98959,257.71448 254.00209,53.619055 Z"
         id="path75986" />
      <path
         style="fill:#8a92b2;fill-opacity:1;fill-rule:evenodd;stroke:none;stroke-width:0.264583px;stroke-linecap:butt;stroke-linejoin:miter;stroke-opacity:1"
         d="M 253.95245,353.7213 V 454.38091 L 130.86984,281.04875 Z"
         id="path75988" />
    </g>
    <g
       id="g75966"
       style="display:inline;opacity:0.8;mix-blend-mode:lighten;filter:url(#filter3433)"
       transform="translate(1200.5944,-550.73382)">
      <path
         id="path75952"
         style="fill:#62688f;fill-opacity:1;stroke-width:1.03676;stroke-linecap:round;stroke-dashoffset:26.8087;stop-color:#000000"
         d="m 253.95245,53.619047 123.0116,204.095423 -123.0116,72.71987 -122.9875,-72.71987 z m -122.9875,227.429703 122.9875,72.67255 123.0826,-72.67255 -123.0826,173.33218 z"
         sodipodi:nodetypes="cccccccccc" />
      <path
         style="fill:none;fill-rule:evenodd;stroke:#000000;stroke-width:0.264583px;stroke-linecap:butt;stroke-linejoin:miter;stroke-opacity:1"
         d="M 253.95245,330.43434 V 53.619057"
         id="path75954" />
      <path
         style="font-variation-settings:normal;opacity:1;vector-effect:none;fill:#454a75;fill-opacity:1;fill-rule:evenodd;stroke:none;stroke-width:0.264583px;stroke-linecap:butt;stroke-linejoin:miter;stroke-miterlimit:4;stroke-dasharray:none;stroke-dashoffset:0;stroke-opacity:1;-inkscape-stroke:none;stop-color:#000000;stop-opacity:1"
         d="m 253.95172,214.60806 123.01232,43.10642 -123.01159,72.71986 z"
         id="path75956"
         sodipodi:nodetypes="cccc" />
      <path
         style="font-variation-settings:normal;opacity:1;vector-effect:none;fill:#62688f;fill-opacity:1;fill-rule:evenodd;stroke:none;stroke-width:0.264583px;stroke-linecap:butt;stroke-linejoin:miter;stroke-miterlimit:4;stroke-dasharray:none;stroke-dashoffset:0;stroke-opacity:1;-inkscape-stroke:none;stop-color:#000000;stop-opacity:1"
         d="m 253.97727,214.60806 -123.01232,43.10642 123.01159,72.71986 z"
         id="path75958"
         sodipodi:nodetypes="cccc" />
      <path
         style="fill:#8a92b2;fill-opacity:1;fill-rule:evenodd;stroke:none;stroke-width:0.264583px;stroke-linecap:butt;stroke-linejoin:miter;stroke-opacity:1"
         d="M 253.97727,214.60806 130.96495,257.71448 253.95245,53.619055 Z"
         id="path75960" />
      <path
         style="fill:#62688f;fill-opacity:1;fill-rule:evenodd;stroke:none;stroke-width:0.264583px;stroke-linecap:butt;stroke-linejoin:miter;stroke-opacity:1"
         d="M 253.97727,214.60806 376.98959,257.71448 254.00209,53.619055 Z"
         id="path75962" />
      <path
         style="fill:#8a92b2;fill-opacity:1;fill-rule:evenodd;stroke:none;stroke-width:0.264583px;stroke-linecap:butt;stroke-linejoin:miter;stroke-opacity:1"
         d="M 253.95245,353.7213 V 454.38091 L 130.86984,281.04875 Z"
         id="path75964" />
    </g>
    <g
       id="g75749"
       style="display:inline"
       transform="translate(1200.5944,-545.70311)">
      <path
         id="path1274"
         style="fill:#7d82a6;fill-opacity:1;stroke-width:1.03676;stroke-linecap:round;stroke-dashoffset:26.8087;stop-color:#000000"
         d="m 253.95245,53.619047 123.0116,204.095423 -123.0116,72.71987 -122.9875,-72.71987 z m -122.9875,227.429703 122.9875,72.67255 123.0826,-72.67255 -123.0826,173.33218 z"
         sodipodi:nodetypes="cccccccccc" />
      <path
         style="fill:none;fill-rule:evenodd;stroke:#000000;stroke-width:0.264583px;stroke-linecap:butt;stroke-linejoin:miter;stroke-opacity:1"
         d="M 253.95245,330.43434 V 53.619057"
         id="path10593" />
      <path
         style="font-variation-settings:normal;opacity:1;vector-effect:none;fill:#575d94;fill-opacity:1;fill-rule:evenodd;stroke:none;stroke-width:0.264583px;stroke-linecap:butt;stroke-linejoin:miter;stroke-miterlimit:4;stroke-dasharray:none;stroke-dashoffset:0;stroke-opacity:1;-inkscape-stroke:none;stop-color:#000000;stop-opacity:1"
         d="m 253.95172,214.60806 123.01232,43.10642 -123.01159,72.71986 z"
         id="path11084"
         sodipodi:nodetypes="cccc" />
      <path
         style="font-variation-settings:normal;opacity:1;vector-effect:none;fill:#7d82a6;fill-opacity:1;fill-rule:evenodd;stroke:none;stroke-width:0.264583px;stroke-linecap:butt;stroke-linejoin:miter;stroke-miterlimit:4;stroke-dasharray:none;stroke-dashoffset:0;stroke-opacity:1;-inkscape-stroke:none;stop-color:#000000;stop-opacity:1"
         d="m 253.97727,214.60806 -123.01232,43.10642 123.01159,72.71986 z"
         id="path11567"
         sodipodi:nodetypes="cccc" />
      <path
         style="fill:#a9afc6;fill-opacity:1;fill-rule:evenodd;stroke:none;stroke-width:0.264583px;stroke-linecap:butt;stroke-linejoin:miter;stroke-opacity:1"
         d="M 253.97727,214.60806 130.96495,257.71448 253.95245,53.619055 Z"
         id="path50239" />
      <path
         style="fill:#7d82a6;fill-opacity:1;fill-rule:evenodd;stroke:none;stroke-width:0.264583px;stroke-linecap:butt;stroke-linejoin:miter;stroke-opacity:1"
         d="M 253.97727,214.60806 376.98959,257.71448 254.00209,53.619055 Z"
         id="path50250" />
      <path
         style="fill:#a9afc6;fill-opacity:1;fill-rule:evenodd;stroke:none;stroke-width:0.264583px;stroke-linecap:butt;stroke-linejoin:miter;stroke-opacity:1"
         d="M 253.95245,353.7213 V 454.38091 L 130.86984,281.04875 Z"
         id="path64297" />
    </g>
  </g>
  <g
     inkscape:groupmode="layer"
     id="layer1"
     inkscape:label="Logo 2"
     style="display:inline">
    <g
       id="g9563"
       transform="translate(100.93434,113.37573)" />
    <g
       id="layer2-1-4"
       inkscape:label="BLACK"
       style="display:inline"
       transform="matrix(0.74406989,0,0,0.74406989,-863.97222,269.33569)" />
    <g
       id="layer7-7-1"
       inkscape:label="Z jasny"
       style="display:inline"
       transform="matrix(0.74406989,0,0,0.74406989,-863.97222,269.33569)" />
    <g
       id="layer9-0-5"
       inkscape:label="Z ciemny"
       style="display:inline"
       transform="matrix(0.74406989,0,0,0.74406989,-863.97222,269.33569)" />
    <g
       id="layer5-4-9"
       inkscape:label="Logo"
       style="display:inline"
       transform="matrix(0.74406989,0,0,0.74406989,-863.97222,269.33569)" />
  </g>
  <g
     inkscape:groupmode="layer"
     id="layer6"
     inkscape:label="Logo 5"
     style="display:inline;opacity:0.5;mix-blend-mode:lighten">
    <path
       id="path98175"
       style="display:inline;opacity:0.8;mix-blend-mode:lighten;fill:url(#linearGradient98186);fill-opacity:1;stroke-width:1.15493;stroke-linecap:round;stroke-dashoffset:26.8087;filter:url(#filter3463);stop-color:#000000"
       d="m 129.26094,101.1166 h 157.52602 157.5194 l 1.0157,0.45937 c 1.2084,0.5487 2.6439,2.0072 3.2377,3.29727 0.3241,0.71458 0.4224,1.28879 0.4224,2.57758 0,1.43555 -0.1022,1.80814 -0.5539,2.73709 -0.4478,0.88046 -6.1801,6.68897 -32.2846,32.77235 -23.9675,23.94858 -31.9967,31.86635 -32.8319,32.35125 -0.6112,0.35729 -1.7515,0.8677 -2.5388,1.16119 l -1.4308,0.52316 h -157.7172 c -153.911504,0 -157.739344,0 -158.653644,-0.33176 h 0.008 c -1.47232,-0.57422 -2.56119,-1.59888 -3.29056,-3.08034 -0.56397,-1.14844 -0.65323,-1.49169 -0.65323,-2.86851 0,-1.30795 0.0893,-1.73924 0.53459,-2.63758 0.44914,-0.90598 5.53827,-6.07645 32.38352,-32.89738 34.708494,-34.67618 32.521684,-32.6205 35.852074,-33.65664 z m 91.35432,114.05817 c 142.4192,0 157.0787,0 158.4954,0.25521 0.8588,0.16588 2.3033,0.66354 3.2179,1.09737 l 1.6616,0.79115 31.9484,31.92251 c 26.9255,26.90387 32.0348,32.09222 32.4825,32.99565 0.4402,0.89322 0.5206,1.32835 0.5206,2.63883 0,1.37685 -0.1021,1.72519 -0.6456,2.87491 -0.7351,1.50317 -1.8323,2.51123 -3.3433,3.08544 -0.9723,0.37006 -3.4901,0.37006 -158.2645,0.35728 -152.05354,0 -157.22399,0 -158.62063,-0.37004 -1.66184,-0.43384 -2.68563,-0.93151 -4.25981,-2.05696 -0.6482,-0.45937 -15.27142,-14.95765 -32.502154,-32.21218 -25.48233,-25.51809 -31.41405,-31.55756 -31.7901,-32.35125 -0.63927,-1.34877 -0.66994,-3.86766 -0.0893,-5.20238 0.59212,-1.29007 1.87386,-2.59929 3.15858,-3.23092 l 1.10123,-0.53593 z m 65.6837,115.69277 c 143.6393,0 157.6965,0 158.5481,0.26796 1.4966,0.49766 2.7465,1.61674 3.4948,3.13904 0.5717,1.16119 0.6458,1.50189 0.6458,2.88128 0,1.30922 -0.1021,1.74052 -0.5347,2.63756 -0.4479,0.90599 -5.5483,6.09306 -32.4758,32.99692 l -31.955,31.92125 -1.6551,0.79114 c -0.9162,0.43385 -2.3384,0.93151 -3.1652,1.09739 -1.3443,0.26797 -18.2008,0.29348 -158.1985,0.28073 -125.783344,0 -156.853764,0 -157.479834,-0.25522 v 0 c -1.26846,-0.39556 -1.91666,-0.81666 -2.80243,-1.77367 -1.28632,-1.39472 -1.67787,-2.42064 -1.67497,-4.39083 0,-1.33601 0.0893,-1.84515 0.4683,-2.63118 0.37132,-0.79114 6.32593,-6.84082 32.27808,-32.78002 24.046544,-24.03406 32.089014,-31.95695 32.924204,-32.44185 0.61127,-0.35729 1.75141,-0.88046 2.53869,-1.16118 l 1.43097,-0.52318 z"
       sodipodi:nodetypes="cccccscscccsccssssccccccscscscccssccccccssccccccsscccscccc"
       transform="matrix(0.93150449,0,0,0.93150449,17.397861,17.740338)"
       inkscape:export-filename="C:\Users\Aga\Pictures\SNY icons\Website icons\Features\sol.png"
       inkscape:export-xdpi="96"
       inkscape:export-ydpi="96" />
  </g>
  <g
     inkscape:groupmode="layer"
     id="layer4"
     inkscape:label="Logo 4"
     style="display:inline;opacity:0.8;mix-blend-mode:lighten">
    <path
       id="path98172"
       style="display:inline;fill:url(#linearGradient98188);fill-opacity:1;stroke-width:1.15493;stroke-linecap:round;stroke-dashoffset:26.8087;filter:url(#filter3433);stop-color:#000000"
       d="m 129.26094,101.1166 h 157.52602 157.5194 l 1.0157,0.45937 c 1.2084,0.5487 2.6439,2.0072 3.2377,3.29727 0.3241,0.71458 0.4224,1.28879 0.4224,2.57758 0,1.43555 -0.1022,1.80814 -0.5539,2.73709 -0.4478,0.88046 -6.1801,6.68897 -32.2846,32.77235 -23.9675,23.94858 -31.9967,31.86635 -32.8319,32.35125 -0.6112,0.35729 -1.7515,0.8677 -2.5388,1.16119 l -1.4308,0.52316 h -157.7172 c -153.911504,0 -157.739344,0 -158.653644,-0.33176 h 0.008 c -1.47232,-0.57422 -2.56119,-1.59888 -3.29056,-3.08034 -0.56397,-1.14844 -0.65323,-1.49169 -0.65323,-2.86851 0,-1.30795 0.0893,-1.73924 0.53459,-2.63758 0.44914,-0.90598 5.53827,-6.07645 32.38352,-32.89738 34.708494,-34.67618 32.521684,-32.6205 35.852074,-33.65664 z m 91.35432,114.05817 c 142.4192,0 157.0787,0 158.4954,0.25521 0.8588,0.16588 2.3033,0.66354 3.2179,1.09737 l 1.6616,0.79115 31.9484,31.92251 c 26.9255,26.90387 32.0348,32.09222 32.4825,32.99565 0.4402,0.89322 0.5206,1.32835 0.5206,2.63883 0,1.37685 -0.1021,1.72519 -0.6456,2.87491 -0.7351,1.50317 -1.8323,2.51123 -3.3433,3.08544 -0.9723,0.37006 -3.4901,0.37006 -158.2645,0.35728 -152.05354,0 -157.22399,0 -158.62063,-0.37004 -1.66184,-0.43384 -2.68563,-0.93151 -4.25981,-2.05696 -0.6482,-0.45937 -15.27142,-14.95765 -32.502154,-32.21218 -25.48233,-25.51809 -31.41405,-31.55756 -31.7901,-32.35125 -0.63927,-1.34877 -0.66994,-3.86766 -0.0893,-5.20238 0.59212,-1.29007 1.87386,-2.59929 3.15858,-3.23092 l 1.10123,-0.53593 z m 65.6837,115.69277 c 143.6393,0 157.6965,0 158.5481,0.26796 1.4966,0.49766 2.7465,1.61674 3.4948,3.13904 0.5717,1.16119 0.6458,1.50189 0.6458,2.88128 0,1.30922 -0.1021,1.74052 -0.5347,2.63756 -0.4479,0.90599 -5.5483,6.09306 -32.4758,32.99692 l -31.955,31.92125 -1.6551,0.79114 c -0.9162,0.43385 -2.3384,0.93151 -3.1652,1.09739 -1.3443,0.26797 -18.2008,0.29348 -158.1985,0.28073 -125.783344,0 -156.853764,0 -157.479834,-0.25522 v 0 c -1.26846,-0.39556 -1.91666,-0.81666 -2.80243,-1.77367 -1.28632,-1.39472 -1.67787,-2.42064 -1.67497,-4.39083 0,-1.33601 0.0893,-1.84515 0.4683,-2.63118 0.37132,-0.79114 6.32593,-6.84082 32.27808,-32.78002 24.046544,-24.03406 32.089014,-31.95695 32.924204,-32.44185 0.61127,-0.35729 1.75141,-0.88046 2.53869,-1.16118 l 1.43097,-0.52318 z"
       sodipodi:nodetypes="cccccscscccsccssssccccccscscscccssccccccssccccccsscccscccc"
       transform="matrix(0.93150449,0,0,0.93150449,17.397861,17.740338)"
       inkscape:export-filename="C:\Users\Aga\Pictures\SNY icons\Website icons\Features\sol.png"
       inkscape:export-xdpi="96"
       inkscape:export-ydpi="96" />
  </g>
  <g
     inkscape:groupmode="layer"
     id="layer3"
     inkscape:label="Logo 3"
     style="display:inline">
    <path
       id="circle2417"
       style="display:inline;fill:url(#linearGradient77059);fill-opacity:1;stroke-width:1.07582;stroke-linecap:round;stroke-dashoffset:26.8087;stop-color:#000000"
       d="M 137.80501,111.9309 H 284.5412 431.27123 l 0.94613,0.42791 c 1.12563,0.51112 2.4628,1.86972 3.01593,3.07142 0.3019,0.66564 0.39347,1.20052 0.39347,2.40103 0,1.33722 -0.0952,1.68429 -0.51596,2.54961 -0.41713,0.82015 -5.75679,6.23081 -30.07325,30.52759 -22.32584,22.30821 -29.80507,29.68365 -30.58307,30.13534 -0.56933,0.33281 -1.63153,0.80826 -2.3649,1.08165 l -1.3328,0.48733 H 223.84251 c -143.369261,0 -146.934911,0 -147.786585,-0.30904 h 0.0075 c -1.371473,-0.53489 -2.38576,-1.48936 -3.065172,-2.86935 -0.52534,-1.06978 -0.608486,-1.38952 -0.608486,-2.67203 0,-1.21836 0.08318,-1.62011 0.497972,-2.45692 0.418376,-0.84392 5.158924,-5.66024 30.165401,-30.64406 32.33111,-32.30101 30.29409,-30.38614 33.39636,-31.35131 z m 85.09696,106.2457 c 132.66412,0 146.31951,0 147.63917,0.23773 0.79998,0.15452 2.14554,0.61809 2.99749,1.02221 l 1.54779,0.73696 29.76008,29.73596 c 25.08122,25.06107 29.84056,29.89404 30.25759,30.73559 0.41005,0.83204 0.48494,1.23737 0.48494,2.45809 0,1.28254 -0.0951,1.60702 -0.60138,2.67799 -0.68475,1.40021 -1.70679,2.33922 -3.1143,2.8741 -0.9057,0.34471 -3.25104,0.34471 -147.42409,0.33281 -141.63855,0 -146.45485,0 -147.75583,-0.3447 -1.54801,-0.40412 -2.50167,-0.8677 -3.96803,-1.91607 -0.6038,-0.4279 -14.2254,-13.93311 -30.2759,-30.00579 -23.736906,-23.77021 -29.26233,-29.396 -29.612622,-30.13533 -0.595483,-1.25639 -0.624052,-3.60274 -0.08318,-4.84604 0.551562,-1.20171 1.745509,-2.42125 2.942231,-3.00962 l 1.025801,-0.49922 z m 61.18466,107.76834 c 133.80065,0 146.89499,0 147.68826,0.2496 1.39409,0.46357 2.55838,1.506 3.25542,2.92403 0.53255,1.08166 0.60157,1.39902 0.60157,2.68393 0,1.21954 -0.0951,1.6213 -0.49808,2.4569 -0.41722,0.84393 -5.16826,5.67571 -30.25135,30.73677 l -29.76622,29.73479 -1.54174,0.73695 c -0.85344,0.40414 -2.17823,0.86771 -2.9484,1.02223 -1.25222,0.24961 -16.95412,0.27337 -147.36261,0.2615 -117.16775,0 -146.109982,0 -146.693169,-0.23774 v 0 c -1.181577,-0.36847 -1.785378,-0.76072 -2.610476,-1.65218 -1.198213,-1.29919 -1.562944,-2.25484 -1.560243,-4.09008 0,-1.2445 0.08318,-1.71877 0.436224,-2.45096 0.345886,-0.73695 5.892632,-6.37225 30.067174,-30.53473 22.39947,-22.38784 29.89106,-29.76804 30.66905,-30.21973 0.5694,-0.33282 1.63144,-0.82015 2.3648,-1.08164 l 1.33295,-0.48735 z"
       sodipodi:nodetypes="cccccscscccsccssssccccccscscscccssccccccssccccccsscccscccc"
       inkscape:export-filename="C:\Users\Aga\Pictures\SNY icons\Website icons\Features\sol.png"
       inkscape:export-xdpi="96"
       inkscape:export-ydpi="96" />
  </g>
  <style
     type="text/css"
     id="style10738">
	.st0{fill:#FF007A;}
	.st1{fill-rule:evenodd;clip-rule:evenodd;fill:#FF007A;}
</style>
  <style
     type="text/css"
     id="style13125">
	.st0{clip-path:url(#SVGID_2_);}
	.st1{fill:url(#SVGID_3_);}
	.st2{fill:url(#SVGID_4_);}
	.st3{fill:url(#SVGID_5_);}
	.st4{fill:#0E0F23;}
	.st5{fill-rule:evenodd;clip-rule:evenodd;fill:#FFFFFF;}
	.st6{fill:#FFFFFF;}
</style>
  <style
     type="text/css"
     id="style30469">
	.st0{fill:#172852;}
	.st1{fill:#FFD83D;}
	.st2{fill:#FF6F03;}
</style>
  <style
     type="text/css"
     id="style33438">
	.st0{clip-path:url(#SVGID_2_);}
	.st1{fill:url(#SVGID_3_);}
	.st2{fill:#FFFFFF;}
</style>
</svg>
