<?xml version="1.0" encoding="UTF-8" standalone="no"?>
<!-- Created with Inkscape (http://www.inkscape.org/) -->

<svg
   width="1920"
   height="1920"
   viewBox="0 0 507.99999 508.00006"
   version="1.1"
   id="svg4130"
   inkscape:version="1.1 (c68e22c387, 2021-05-23)"
   sodipodi:docname="Discord.svg"
   xmlns:inkscape="http://www.inkscape.org/namespaces/inkscape"
   xmlns:sodipodi="http://sodipodi.sourceforge.net/DTD/sodipodi-0.dtd"
   xmlns="http://www.w3.org/2000/svg"
   xmlns:svg="http://www.w3.org/2000/svg">
  <sodipodi:namedview
     id="namedview4132"
     pagecolor="#ffffff"
     bordercolor="#666666"
     borderopacity="1.0"
     inkscape:pageshadow="2"
     inkscape:pageopacity="0.0"
     inkscape:pagecheckerboard="0"
     inkscape:document-units="mm"
     showgrid="false"
     units="px"
     inkscape:zoom="0.11313708"
     inkscape:cx="-601.04077"
     inkscape:cy="592.20193"
     inkscape:window-width="2560"
     inkscape:window-height="1346"
     inkscape:window-x="-11"
     inkscape:window-y="-11"
     inkscape:window-maximized="1"
     inkscape:current-layer="layer1" />
  <defs
     id="defs4127" />
  <g
     inkscape:label="Warstwa 1"
     inkscape:groupmode="layer"
     id="layer1">
    <path
       style="fill:#fbfbfb;stroke-width:0.269722;fill-opacity:1"
       d="m 147.99953,438.25005 c -0.66757,-0.048 -3.15575,-0.21977 -5.52929,-0.38146 -6.59178,-0.44906 -19.02269,-2.24411 -26.16297,-3.77794 -1.48346,-0.31867 -3.72889,-0.8019 -4.98984,-1.07381 -8.46938,-1.82645 -23.725634,-6.44623 -32.230785,-9.75989 C 53.944746,413.46151 32.359241,400.24055 14.630016,383.77779 10.840207,380.2587 3.8457747,373.14777 1.6995748,370.63194 l -1.32475232,-1.55289 0.46357763,-6.25836 C 1.584555,352.74737 2.7283477,339.53542 3.1781968,335.79378 c 0.1605096,-1.33513 0.5199095,-4.55155 0.7986517,-7.14762 1.4606505,-13.60361 4.6961472,-35.3609 7.2598845,-48.81956 0.296713,-1.55764 0.840276,-4.40995 1.207906,-6.33845 0.367642,-1.92851 0.927758,-4.72013 1.244707,-6.20359 0.31695,-1.48347 0.854423,-4.03234 1.194382,-5.66414 1.428461,-6.85672 5.521379,-23.96997 6.870141,-28.72532 0.27349,-0.96427 0.882349,-3.20969 1.353015,-4.98985 0.470677,-1.78017 0.960222,-3.54009 1.087889,-3.91096 0.127678,-0.37087 0.617407,-2.07011 1.088298,-3.7761 5.878575,-21.29729 17.263302,-52.05384 26.607087,-71.88072 5.849099,-12.4114 11.032099,-22.13543 16.190845,-30.37628 1.684142,-2.69033 2.785903,-3.5931 11.27445,-9.23813 2.818592,-1.87442 5.367458,-3.56976 5.664151,-3.76744 1.319948,-0.87942 10.131381,-6.016896 12.880525,-7.509951 7.054151,-3.831086 18.918511,-9.558756 23.835191,-11.506745 0.72324,-0.286547 2.71079,-1.089051 4.41678,-1.783343 17.03277,-6.931879 38.61895,-12.502225 55.23723,-14.254049 2.30786,-0.243283 3.38519,-0.263467 3.54389,-0.0664 0.42571,0.528694 5.445,10.72488 5.33411,10.835763 -0.0606,0.06063 -1.85804,0.533528 -3.99428,1.050902 -6.12705,1.483909 -11.16773,2.897256 -17.50499,4.908197 -20.40435,6.474716 -38.15738,14.988976 -55.56259,26.647526 -8.54313,5.72246 -17.326118,12.43831 -24.544633,18.76786 -0.964251,0.84551 -2.881064,2.52066 -4.259588,3.72255 -1.378524,1.2019 -2.379187,2.18526 -2.223696,2.18526 0.155481,0 4.499787,-2.10809 9.654014,-4.68465 8.397933,-4.19808 12.099683,-5.98987 21.236913,-10.27954 12.72455,-5.9738 32.51665,-13.57646 44.23643,-16.99234 1.18678,-0.34591 3.61427,-1.05432 5.39443,-1.57428 13.89757,-4.05916 33.92487,-7.923074 49.89844,-9.627009 14.82319,-1.58122 23.82452,-2.020498 41.40222,-2.020498 17.57771,0 26.57904,0.439278 41.40222,2.020498 15.97357,1.703935 36.00086,5.567849 49.89844,9.627009 1.78016,0.51996 4.20765,1.2288 5.39443,1.57523 6.13478,1.79075 18.94346,6.2894 24.94922,8.76261 1.85433,0.76363 3.79632,1.54477 4.31554,1.73587 1.55173,0.57111 12.15213,5.1693 15.01066,6.51125 9.08797,4.26641 12.8098,6.06802 21.19791,10.2612 5.15424,2.57656 9.5008,4.68465 9.65908,4.68465 0.79157,0 -15.82254,-13.95884 -22.94995,-19.28206 -15.48434,-11.56477 -32.69264,-20.795114 -51.91274,-27.845403 -4.82016,-1.768129 -12.33662,-4.261365 -16.453,-5.457522 -1.63182,-0.474181 -3.27037,-0.9673 -3.64124,-1.095819 -0.94472,-0.327387 -4.3002,-1.233085 -8.98372,-2.424867 -2.1966,-0.558957 -4.05475,-1.077165 -4.12913,-1.151567 -0.12793,-0.127929 4.82439,-10.258936 5.30912,-10.860868 0.62623,-0.777693 17.25236,1.595655 25.60534,3.65511 1.26094,0.310891 3.56706,0.874921 5.1247,1.2534 1.55765,0.37848 4.83476,1.296366 7.28247,2.039743 2.44773,0.743378 4.69315,1.417216 4.98985,1.497414 1.41183,0.381629 13.33071,4.761018 16.31814,5.995824 1.85433,0.766456 3.79633,1.555804 4.31554,1.754103 0.51922,0.198299 1.60206,0.684485 2.40634,1.080409 0.80426,0.395926 2.68557,1.261738 4.18069,1.924027 4.01871,1.780188 15.55925,7.740325 20.65483,10.667256 7.89487,4.53486 17.21295,10.52612 22.71611,14.60578 1.8665,1.38371 2.51105,2.26162 6.07248,8.27093 5.16271,8.71123 12.20419,22.73376 17.47201,34.79405 8.07702,18.49181 17.63106,45.16358 22.51158,62.84506 0.47091,1.70599 0.96064,3.40523 1.0883,3.7761 0.12766,0.37087 0.61723,2.13079 1.0879,3.91096 0.47066,1.78016 1.07953,4.02558 1.35302,4.98985 1.34874,4.75535 5.44169,21.8686 6.87013,28.72532 0.33996,1.6318 0.87743,4.18067 1.19438,5.66414 0.31695,1.48346 0.87708,4.27508 1.24471,6.20359 0.36763,1.9285 0.9112,4.78081 1.2079,6.33845 2.56374,13.45866 5.79924,35.21595 7.25989,48.81956 0.27873,2.59607 0.63813,5.81249 0.79864,7.14762 0.44985,3.74164 1.59366,16.95359 2.33981,27.02691 l 0.46358,6.25836 -1.32474,1.55289 c -2.14622,2.51583 -9.14065,9.62676 -12.93045,13.14585 -17.72923,16.46276 -39.31474,29.68372 -64.45664,39.47916 -8.50515,3.31366 -23.7614,7.93344 -32.23078,9.75989 -1.26095,0.27191 -3.50638,0.75514 -4.98984,1.07381 -9.51394,2.04374 -23.00009,3.7826 -31.96058,4.12089 l -2.02151,0.0763 -9.40007,-12.53036 -9.40012,-12.53037 1.71163,-0.62162 c 3.17696,-1.15385 8.35793,-3.1883 14.25369,-5.59715 2.85969,-1.1684 7.17518,-3.18376 12.39765,-5.78979 25.61172,-12.78023 47.9164,-29.58443 67.11319,-50.56265 2.02243,-2.21007 3.39173,-3.86559 3.04294,-3.67892 -0.3488,0.18667 -1.98264,1.33987 -3.63071,2.56265 -11.79793,8.75332 -27.13802,17.96864 -41.75257,25.0822 -19.9652,9.71794 -44.66889,17.99739 -66.03069,22.13013 -2.00267,0.38746 -4.79429,0.93856 -6.20358,1.22468 -2.41957,0.49124 -6.27191,1.10737 -14.96954,2.39415 -5.72582,0.84714 -15.2595,1.82205 -24.40977,2.49616 -7.34379,0.54104 -10.18004,0.60607 -26.43269,0.60607 -16.25265,0 -19.0889,-0.0651 -26.43269,-0.60607 -9.15027,-0.67411 -18.68395,-1.64902 -24.40977,-2.49616 -8.69762,-1.28678 -12.54997,-1.90291 -14.96954,-2.39415 -1.4093,-0.28612 -4.20091,-0.83722 -6.20359,-1.22468 -21.3618,-4.13274 -46.06548,-12.41219 -66.03068,-22.13013 -14.61456,-7.11356 -29.954627,-16.32888 -41.752566,-25.0822 -1.648087,-1.22278 -3.281904,-2.37598 -3.630707,-2.56265 -0.936834,-0.50139 6.021216,7.00925 11.393753,12.29861 15.253704,15.01755 30.84439,26.68562 49.71717,37.2083 6.05818,3.3778 16.52602,8.51557 21.44285,10.52445 5.89576,2.40885 11.07673,4.4433 14.25368,5.59715 l 1.71164,0.62162 -9.3987,12.53037 c -6.70658,8.94123 -9.55321,12.53748 -9.93814,12.5552 -0.29669,0.0138 -1.08562,-0.0146 -1.75318,-0.0626 z m 36.22585,-115.55859 c 15.43811,-2.31253 28.32184,-14.52381 33.19092,-31.45864 1.37153,-4.77021 1.87965,-8.61925 1.87965,-14.23829 0,-5.72794 -0.52029,-9.56076 -1.9764,-14.55932 -3.60011,-12.35849 -11.74964,-22.51494 -22.25366,-27.73386 -8.36617,-4.15675 -18.32075,-4.90388 -27.10698,-2.03451 -12.41722,4.05516 -22.61138,15.03765 -26.93207,29.01473 -1.70546,5.51706 -2.06302,8.17173 -2.06254,15.31296 5.4e-4,7.04072 0.19344,8.59006 1.77099,14.21962 4.60698,16.44022 17.38643,28.82922 32.34832,31.35994 2.56167,0.4333 8.60751,0.49698 11.14177,0.11737 z m 150.45851,-0.10087 c 15.13784,-2.48193 27.93822,-14.80911 32.58082,-31.37647 1.57755,-5.62956 1.77051,-7.1789 1.77099,-14.21963 0,-7.14122 -0.35708,-9.79589 -2.06255,-15.31295 -3.76092,-12.16631 -11.89129,-22.05951 -22.21193,-27.02791 -5.52624,-2.66036 -9.99803,-3.69502 -15.91356,-3.68202 -9.56652,0.021 -18.26682,3.60551 -25.54231,10.5233 -7.47999,7.11225 -12.06905,15.96503 -14.01445,27.03532 -0.82878,4.71614 -0.8306,12.20231 -0.004,16.90355 3.45845,19.67393 16.64591,34.18199 33.76194,37.14294 2.73907,0.47385 8.78571,0.48105 11.63524,0.0138 z"
       id="path2162" />
  </g>
  <style
     type="text/css"
     id="style7210">
	.st0{fill:#FFFFFF;}
	.st1{fill-rule:evenodd;clip-rule:evenodd;}
</style>
</svg>
