<?xml version="1.0" encoding="UTF-8" standalone="no"?>
<!-- Created with Inkscape (http://www.inkscape.org/) -->

<svg
   width="1920"
   height="1920"
   viewBox="0 0 507.99999 508.00001"
   version="1.1"
   id="svg5"
   inkscape:version="1.1 (c68e22c387, 2021-05-23)"
   sodipodi:docname="Download.svg"
   xmlns:inkscape="http://www.inkscape.org/namespaces/inkscape"
   xmlns:sodipodi="http://sodipodi.sourceforge.net/DTD/sodipodi-0.dtd"
   xmlns="http://www.w3.org/2000/svg"
   xmlns:svg="http://www.w3.org/2000/svg">
  <sodipodi:namedview
     id="namedview7"
     pagecolor="#ffffff"
     bordercolor="#666666"
     borderopacity="1.0"
     inkscape:pageshadow="2"
     inkscape:pageopacity="0.0"
     inkscape:pagecheckerboard="0"
     inkscape:document-units="mm"
     showgrid="false"
     units="px"
     width="1920px"
     inkscape:zoom="0.33540614"
     inkscape:cx="1129.9733"
     inkscape:cy="643.99536"
     inkscape:window-width="2560"
     inkscape:window-height="1346"
     inkscape:window-x="-11"
     inkscape:window-y="-11"
     inkscape:window-maximized="1"
     inkscape:current-layer="layer1" />
  <defs
     id="defs2" />
  <g
     inkscape:label="Warstwa 1"
     inkscape:groupmode="layer"
     id="layer1">
    <path
       style="fill:#fbfbfb;stroke-width:0.289632;fill-opacity:1"
       d="M 70.369513,507.79363 C 53.570638,506.05321 36.556926,498.20068 24.084213,486.43102 17.928846,480.62268 12.008018,472.44561 7.9371575,464.13105 4.3814515,456.86862 2.0108205,449.486 0.6605145,441.47027 0.1531245,438.45814 0.1322905,431.059 0.1322905,253.98831 c 0,-177.070687 0.02052,-184.469867 0.528224,-187.481997 2.696918,-16.00981 10.0455345,-30.936205 20.8860245,-42.423186 5.808656,-6.155076 13.986059,-12.075655 22.30102,-16.1463154 7.262752,-3.555555 14.645717,-5.926083 22.661822,-7.27629603 3.012263,-0.507378 10.411778,-0.528224 187.490599,-0.528224 177.07889,0 184.47838,0.02087 187.49064,0.528224 16.0106,2.69677203 30.93765,10.04506843 42.42517,20.88504343 6.15537,5.808389 12.07619,13.985405 16.14705,22.299984 3.55571,7.26243 5.92634,14.64504 7.27665,22.66077 0.50739,3.01213 0.52822,10.41131 0.52822,187.481997 0,177.07069 -0.0206,184.46983 -0.52822,187.48196 -1.93084,11.46198 -6.2831,22.50013 -12.58937,31.92878 -7.85505,11.74426 -17.71472,20.32567 -30.61775,26.64833 -6.92204,3.39189 -13.40739,5.53066 -21.65328,7.14091 l -3.25559,0.63576 -183.92015,0.0373 c -101.15605,0.0205 -184.376297,-0.0103 -184.933837,-0.0678 z M 432.00348,497.56394 c 12.97552,-0.78927 24.13094,-4.36291 34.15637,-10.94204 8.57118,-5.62475 14.51889,-11.52677 20.14884,-19.99394 6.81861,-10.25494 10.43545,-21.3129 11.27495,-34.47155 0.3921,-6.14609 0.39522,-349.719547 0.003,-356.163377 -0.8023,-13.18862 -4.43357,-24.3501 -11.26444,-34.62362 C 480.67911,32.882273 474.74547,26.991651 466.1596,21.35295 456.17382,14.794861 444.95118,11.200247 432.00324,10.412675 425.73598,10.031462 82.718279,10.029207 76.162019,10.410375 63.147712,11.166928 51.879776,14.759383 41.83992,21.352987 33.254057,26.991689 27.320435,32.882313 21.677318,41.369443 c -6.866576,10.32723 -10.496139,21.53462 -11.266735,34.78936 -0.38116,6.55593 -0.378903,349.557787 0.0023,355.824797 0.78931,12.97493 4.363112,24.12983 10.942536,34.15479 5.62502,8.57079 11.527307,14.51824 19.994873,20.14792 10.035888,6.67237 21.626684,10.51809 33.941017,11.26132 5.57648,0.3366 351.186921,0.35238 356.711911,0.0171 z M 80.530409,406.73967 c -3.9405,-1.05938 -6.23429,-3.98335 -6.228,-7.93905 0.007,-3.48022 2.04832,-6.4697 5.27917,-7.7257 1.3099,-0.50921 7.6148,-0.53169 172.101311,-0.61309 126.80719,-0.0629 171.18783,0 172.47573,0.24526 2.14933,0.40881 3.16727,0.9101 4.59005,2.2605 1.8578,1.76331 2.35802,3.00067 2.35802,5.83299 0,2.83232 -0.50022,4.06972 -2.35802,5.83299 -1.36323,1.29387 -2.39176,1.81978 -4.38335,2.24128 -1.1248,0.23809 -47.04848,0.31984 -171.90017,0.30582 -148.24031,-0.0171 -170.569151,-0.0739 -171.934741,-0.44104 z M 251.50107,382.35669 c -0.81688,-0.29212 -1.98992,-0.95148 -2.60674,-1.46548 -1.63134,-1.35934 -7.48884,-5.92011 -14.39787,-11.21046 -3.31945,-2.54177 -9.00643,-6.90217 -12.6377,-9.68982 -3.63131,-2.78765 -10.16931,-7.80229 -14.52893,-11.14369 -13.96625,-10.70429 -22.20709,-17.02767 -39.02806,-29.94717 -4.92807,-3.78505 -8.80354,-6.97747 -9.31715,-7.67504 -4.01295,-5.45047 -0.21347,-13.03276 6.53098,-13.03276 2.50176,0 4.28679,0.92911 9.62709,5.01101 2.51085,1.91912 7.75841,5.93899 11.66131,8.93304 3.90285,2.99403 10.41971,7.98927 14.48188,11.10055 7.38882,5.65918 15.3868,11.79024 24.90886,19.09457 2.78777,2.13849 8.26193,6.33204 12.16479,9.31902 l 7.09616,5.43086 0.1447,-129.81759 c 0.13855,-124.11122 0.16763,-129.868497 0.66509,-130.976067 1.34152,-2.98718 3.15297,-4.59289 5.92121,-5.24872 1.79907,-0.42619 4.0513,-0.1659 5.64633,0.65285 1.31011,0.67242 2.85805,2.42051 3.66275,4.1364 l 0.7588,1.61798 0.1447,130.073057 0.1447,130.07306 10.88195,-8.43072 c 5.98504,-4.63687 13.7401,-10.65393 17.23344,-13.37125 3.49338,-2.71727 12.47737,-9.6826 19.96453,-15.47851 7.48713,-5.79586 16.15455,-12.51011 19.26092,-14.92051 7.07798,-5.49221 7.55979,-5.80596 9.7907,-6.37582 6.52295,-1.66629 12.09358,5.03087 9.28291,11.16017 -0.40168,0.87602 -1.17556,2.04893 -1.71972,2.60645 -0.54414,0.55751 -4.1826,3.48312 -8.08546,6.50134 -14.48394,11.2008 -30.49542,23.60832 -38.0874,29.51447 -4.30113,3.34603 -11.79551,9.16235 -16.65421,12.92515 -4.85866,3.76282 -12.48339,9.68306 -16.94383,13.15606 -4.4604,3.473 -8.80175,6.63991 -9.64744,7.03754 -2.0503,0.96407 -4.39667,1.12748 -6.31963,0.44003 z"
       id="path836" />
  </g>
</svg>
