<?xml version="1.0" encoding="UTF-8" standalone="no"?>
<!-- Created with Inkscape (http://www.inkscape.org/) -->

<svg
   width="1920"
   height="1920"
   viewBox="0 0 507.99999 508.00006"
   version="1.1"
   id="svg4130"
   inkscape:version="1.1 (c68e22c387, 2021-05-23)"
   sodipodi:docname="Github.svg"
   xmlns:inkscape="http://www.inkscape.org/namespaces/inkscape"
   xmlns:sodipodi="http://sodipodi.sourceforge.net/DTD/sodipodi-0.dtd"
   xmlns="http://www.w3.org/2000/svg"
   xmlns:svg="http://www.w3.org/2000/svg">
  <sodipodi:namedview
     id="namedview4132"
     pagecolor="#ffffff"
     bordercolor="#666666"
     borderopacity="1.0"
     inkscape:pageshadow="2"
     inkscape:pageopacity="0.0"
     inkscape:pagecheckerboard="0"
     inkscape:document-units="mm"
     showgrid="false"
     units="px"
     inkscape:zoom="0.16770307"
     inkscape:cx="888.47507"
     inkscape:cy="327.9606"
     inkscape:window-width="2560"
     inkscape:window-height="1346"
     inkscape:window-x="-11"
     inkscape:window-y="-11"
     inkscape:window-maximized="1"
     inkscape:current-layer="layer1" />
  <defs
     id="defs4127" />
  <g
     inkscape:label="Warstwa 1"
     inkscape:groupmode="layer"
     id="layer1">
    <path
       style="fill:#fbfbfb;stroke-width:0.276625;fill-opacity:1"
       d="m 174.21093,507.46105 c -6.56144,-1.49068 -30.70347,-12.17619 -42.7456,-18.91967 C 90.074818,465.36324 54.893578,429.34974 31.230021,385.9349 23.675291,372.07443 17.019695,356.67283 12.471023,342.525 3.3614347,314.19122 0.13303374,292.30272 0.13229174,258.86911 0.13183874,237.41501 1.0718677,226.95422 4.6704647,208.36778 13.39516,163.30554 33.580518,122.19441 64.476258,86.562416 68.938408,81.416166 79.973778,70.182886 85.186018,65.481169 118.96637,35.00944 158.29125,14.648392 200.64834,5.6987663 c 38.36492,-8.106107 77.80946,-7.353461 116.46742,2.222279 27.34061,6.7724217 56.48854,20.3211947 81.24152,37.7633617 13.39578,9.439296 25.106,19.513 36.78402,31.643359 6.73589,6.9968 9.10519,9.64874 14.21262,15.90823 10.35217,12.687204 20.34405,27.709744 28.16392,42.343704 13.96664,26.13699 23.0052,52.86993 27.73175,82.021 2.37458,14.6451 2.6167,18.52633 2.6181,41.96788 0.003,23.7554 -0.31755,28.85617 -2.73762,43.78645 -5.18049,31.96036 -16.14373,62.50989 -32.33065,90.09099 -7.38754,12.58767 -19.59089,29.48789 -29.29414,40.56892 -26.36991,30.11418 -58.03069,52.89757 -94.10231,67.71685 -14.57156,5.9864 -19.806,6.92961 -24.85816,5.61928 -3.09571,-0.65766 -5.74493,-2.60524 -6.25436,-6.18995 l -0.18378,-13.91816 c -0.89103,-67.46116 -1.05497,-73.44142 -2.23903,-81.67577 -0.55367,-3.8506 -1.28389,-6.61332 -2.76006,-10.44246 -2.37963,-6.17261 -4.95421,-10.66162 -9.34064,-16.28624 l -2.77317,-3.55599 0.88156,-0.15498 c 0.48485,-0.0852 3.45758,-0.53726 6.60604,-1.00449 22.09758,-3.27915 37.19219,-7.84968 52.53146,-15.90606 19.66605,-10.32883 32.21313,-23.06522 41.56236,-42.1895 5.11866,-10.47043 10.0461,-26.58412 11.74634,-38.41268 1.38104,-9.6081 2.16225,-31.04078 1.53233,-42.03919 -0.39002,-6.81009 -1.69881,-13.46573 -4.11223,-20.9126 -4.46778,-13.78556 -10.85268,-25.40622 -19.64502,-35.75434 -1.74268,-2.051 -1.77644,-1.19688 0.33917,-8.5837 2.47068,-8.62652 3.37545,-16.12974 3.08806,-25.60835 -0.30981,-10.21815 -1.91868,-19.64738 -4.88628,-28.63748 -2.17784,-6.59771 -2.83564,-7.70995 -5.08423,-8.59693 -4.15761,-1.63996 -13.38384,-0.13119 -24.39985,3.98972 -11.02913,4.12596 -21.68004,9.4316 -33.97628,16.92491 -5.90804,3.60034 -8.46394,4.86664 -10.16177,5.03462 -1.04897,0.10368 -3.26478,-0.25974 -8.76324,-1.43789 -21.54939,-4.61701 -34.34083,-6.04752 -54.04192,-6.04363 -18.82875,0.003 -31.94852,1.39797 -51.59244,5.48269 -5.53473,1.15091 -10.52433,2.09254 -11.08806,2.09254 -1.5073,0 -3.54226,-0.87467 -6.92575,-2.9769 -12.88785,-8.00741 -19.52911,-11.48459 -30.76898,-16.10971 -13.95804,-5.74364 -25.74119,-8.44017 -31.4289,-7.19233 -2.07492,0.45521 -2.75038,1.42923 -4.25327,6.13341 -2.54304,7.95985 -4.17969,14.78086 -4.93712,20.57624 -0.60419,4.62305 -0.83326,15.99845 -0.43075,21.39257 0.40578,5.43851 0.97585,8.32527 3.03625,15.3755 0.90091,3.08276 1.63801,5.78928 1.63801,6.01452 0,0.22538 -1.35546,2.07025 -3.01207,4.09993 -4.60084,5.63691 -8.41758,11.62153 -11.75406,18.43029 -5.337302,10.89188 -9.121862,23.21014 -10.166682,33.0912 -0.42792,4.04698 -0.42095,21.94809 0.013,29.58689 0.64424,11.37944 1.30325,16.75651 2.92201,23.84174 4.814232,21.07176 12.321832,37.45703 23.133732,50.48933 11.21623,13.5196 34.20193,27.21952 54.52319,32.49683 9.10978,2.36577 22.10049,4.91744 29.53822,5.80194 2.25639,0.26833 4.18354,0.56336 4.28256,0.65559 0.0992,0.0921 -1.09545,1.80442 -2.65435,3.80487 -5.83353,7.48591 -9.08632,14.43075 -11.6084,24.78445 -1.12866,4.63339 -1.5082,5.66652 -2.37706,6.47094 -0.74925,0.69364 -3.03415,1.67063 -6.92465,2.96099 -7.10775,2.3574 -12.70773,2.96653 -25.73527,2.79926 -8.49298,-0.109 -8.61303,-0.11862 -10.71374,-0.8662 -4.29418,-1.52795 -10.09384,-4.88899 -14.01211,-8.12038 -2.59936,-2.14369 -7.04304,-6.77397 -9.31336,-9.70445 -0.89467,-1.15484 -2.66447,-3.67291 -3.93284,-5.59571 -4.7683,-7.22847 -8.69824,-12.07166 -13.00621,-16.0286 -8.959432,-8.22944 -17.778332,-12.72046 -26.831132,-13.66388 -3.37309,-0.3515 -7.18,-0.0463 -9.49761,0.76161 -1.72905,0.60269 -3.19607,2.02046 -3.19607,3.08883 0,2.32197 6.56318,9.30265 14.35886,15.27223 5.10839,3.91177 10.63692,10.47418 14.96777,17.76691 1.67984,2.82869 4.711072,8.96549 10.818332,21.90195 2.19583,4.65127 3.8935,7.04714 7.83231,11.05361 3.85739,3.92363 6.92891,6.29416 11.62725,8.97343 7.39432,4.21671 13.58119,5.88429 26.82212,7.22946 13.1064,1.33155 18.76091,1.26569 29.6383,-0.34515 5.34669,-0.79181 7.10568,-0.96431 7.20246,-0.70628 0.0704,0.1877 0.1486,11.27094 0.17346,24.62937 0.0497,26.5672 0.013,27.32129 -1.48812,30.50887 -1.33819,2.84189 -4.3187,4.62393 -8.99635,5.37889 -2.29099,0.36978 -3.84415,0.33644 -5.88029,-0.1263 z"
       id="path1063"
       sodipodi:nodetypes="csssssssssssssscssssccsssscsssssssssssssssscssssssssssssscssssssssssssssssssssssssssssscc" />
  </g>
  <style
     type="text/css"
     id="style7210">
	.st0{fill:#FFFFFF;}
	.st1{fill-rule:evenodd;clip-rule:evenodd;}
</style>
</svg>
