<svg viewBox="0 0 827 119" xmlns="http://www.w3.org/2000/svg" fill-rule="evenodd" clip-rule="evenodd" stroke-linejoin="round" stroke-miterlimit="2"><path d="M176.31 73.479c-1.994 2.2-4.135 3.96-6.482 5.367-6.374 3.833-14.391 5.075-25.781 5.192h-2.894.01-62.889L36.956 110.62h99.416c16.141-.059 30.513-10.696 35.969-25.889a926.094 926.094 0 003.97-11.253zM77.535 40.531h77.296a14.51 14.51 0 0111.859 6.062 14.527 14.527 0 011.906 13.179c-1.896 5.504-7.068 9.532-12.895 9.552H64.23a11.814 11.814 0 01-10.826-15.555l8.051-24.07c4 7.44 12.051 10.744 16.08 10.832zm68.438-14.342l26.641-23.073h-85.8c-3.833.01-7.243 2.766-8.496 6.394a12.573 12.573 0 0011.928 16.68c23.747-.09 35.362-.011 55.727-.001z" fill="#00f9bb"/><path d="M729.187 29.646l23.334 44.436-15.756 30.156h13.861l39.189-74.592h-14.558l-15.756 31.055-15.755-31.055h-14.559zm-409.725 0l23.334 44.436-15.756 30.156h13.861l39.189-74.592h-14.558l-15.756 31.055-15.755-31.055h-14.559zM284.946 84.39c19.949 0 29.117-10.263 29.317-20.436.299-12.77-8.57-19.654-28.719-22.347-15.465-2.096-14.667-6.485-14.568-8.281.399-5.388 7.983-6.186 12.573-6.186 5.587.1 12.871 1.297 13.57 8.081h14.453c-.697-13.063-10.962-21.533-27.624-21.633-16.26 0-26.923 7.474-27.82 19.538-1.397 18.258 20.236 21.351 27.321 22.348 9.08 1.297 12.872 3.093 14.468 4.49 1.198.997 1.796 2.394 1.796 3.99 0 6.485-10.377 6.785-14.767 6.785-11.874 0-15.465-5.488-16.361-8.082h-15.35c1.097 15.954 17.941 21.733 31.711 21.733zm301.01 0c9.58 0 17.656-3.387 22.539-9.465l-8.171-8.183c-2.992 3.495-7.981 5.892-13.769 5.892-8.082 0-14.867-3.895-14.867-10.086h39.596l.399-2.69c1.396-9.268-.598-17.057-5.281-22.44-4.683-5.281-11.665-8.071-20.446-8.071-16.959 0-27.521 10.562-27.521 27.522s10.562 27.521 27.521 27.521zm38.804-14.75c1.196 8.872 6.776 14.651 15.248 14.651 9.575 0 14.263-5.68 14.861-6.576l-6.882-8.174s-2.792 2.594-6.084 2.594c-.798 0-1.695-.1-2.593-.599-2.493-1.297-2.194-4.689-2.194-4.689l-.1-25.444h10.971V29.447h-10.971l.1-10.971h-12.654v44.28c0 4.889.199 6.685.298 6.884zm-170.353 0c1.196 8.872 6.776 14.651 15.248 14.651 9.575 0 14.263-5.68 14.861-6.576l-6.882-8.174s-2.792 2.594-6.084 2.594c-.798 0-1.695-.1-2.593-.599-2.493-1.297-2.194-4.689-2.194-4.689l-.1-25.444h10.971V29.447h-10.971l.1-10.971h-12.655v44.28c0 4.889.2 6.685.299 6.884zm213.042-39.994v54.246h12.554V29.646h-12.554zm29.423 1.395v52.851h12.554V41.503h11.071V29.646h-11.071v-2.797s-.199-3.296 2.194-4.595a5.43 5.43 0 012.693-.699c3.292 0 5.985 2.697 5.985 2.697l6.882-8.177c-.599-.897-5.287-6.576-14.762-6.576-8.472 0-14.052 5.779-15.247 14.653-.1.2-.299 1.998-.299 6.889zM388.381 83.892h12.554V53.771c.1-3.092.599-6.982 4.491-9.575 2.594-1.696 5.887-2.693 9.38-2.693 8.981 0 11.176 4.289 11.176 12.667v29.722h12.555V52.275c0-14.658-8.27-23.028-22.733-23.028-7.185 0-12.474 2.192-15.965 4.384l-.896-3.985h-10.562v54.246zm119.973 0V54.269c.099-3.092.598-6.981 4.49-9.575 2.595-1.795 5.888-2.693 9.38-2.693 8.981 0 11.176 4.289 11.176 12.667v29.224h12.555V52.275c0-14.558-8.27-23.028-22.633-23.028-6.586 0-11.476 1.794-14.968 3.687V9.998h-12.555v73.894h12.555zm76.704-42.29c5.588-.099 9.779 1.299 12.074 3.995 1.397 1.697 2.295 3.794 2.594 6.391h-28.238c.798-8.588 8.282-10.286 13.57-10.386zm81.992-25.327c0 4.285 2.491 6.676 6.676 6.676 4.185 0 6.776-2.391 6.676-6.676-.099-4.384-2.491-6.676-6.676-6.676-4.384 0-6.676 2.292-6.676 6.676z" fill="#fff" fill-rule="nonzero"/></svg>