<svg width="150" height="150" viewBox="0 0 150 150" fill="none" xmlns="http://www.w3.org/2000/svg">
<g clip-path="url(#clip0)">
<path fill-rule="evenodd" clip-rule="evenodd" d="M98.7391 57.6693C100.961 59.0419 103.059 60.5991 105.009 62.3158C106.008 63.1946 107.532 63.0954 108.411 62.0981C109.29 61.0988 109.191 59.5745 108.193 58.6977C106.039 56.8022 103.726 55.0855 101.274 53.571C100.143 52.8711 98.6554 53.2211 97.9575 54.3526C97.2576 55.4841 97.6076 56.9694 98.7391 57.6693Z" fill="url(#paint0_linear)"/>
<path fill-rule="evenodd" clip-rule="evenodd" d="M111.662 69.5401C117.374 77.2408 120.752 86.773 120.752 97.0886C120.752 122.648 100.003 143.4 74.4429 143.4C48.8832 143.4 28.1314 122.648 28.1314 97.0886C28.1314 71.5289 48.8832 50.7791 74.4429 50.7791C80.2792 50.7791 85.8667 51.86 91.0129 53.8353C92.2533 54.3116 93.6491 53.6914 94.1254 52.4491C94.6018 51.2068 93.9816 49.8128 92.7393 49.3365C87.0566 47.1552 80.8878 45.9595 74.4429 45.9595C46.2236 45.9595 23.3119 68.8693 23.3119 97.0886C23.3119 125.31 46.2236 148.22 74.4429 148.22C102.662 148.22 125.572 125.31 125.572 97.0886C125.572 85.6979 121.839 75.1723 115.531 66.6686C114.739 65.6012 113.229 65.3776 112.161 66.1689C111.092 66.9621 110.868 68.4727 111.662 69.5401Z" fill="url(#paint1_linear)"/>
<path fill-rule="evenodd" clip-rule="evenodd" d="M74.4412 55.5359C51.5007 55.5359 32.8771 74.1595 32.8771 97.0984C32.8771 120.039 51.5007 138.662 74.4412 138.662C97.3801 138.662 116.004 120.039 116.004 97.0984C116.004 74.1595 97.3801 55.5359 74.4412 55.5359ZM74.4412 60.3558C94.7209 60.3558 111.185 76.8202 111.185 97.0984C111.185 117.378 94.7209 133.842 74.4412 133.842C54.1615 133.842 37.6971 117.378 37.6971 97.0984C37.6971 76.8202 54.1615 60.3558 74.4412 60.3558Z" fill="url(#paint2_linear)"/>
<path fill-rule="evenodd" clip-rule="evenodd" d="M67.5926 89.831L72.1509 75.8043C72.4734 74.8124 73.3987 74.1394 74.4415 74.1394C75.4856 74.1394 76.4109 74.8124 76.7334 75.8043L81.2942 89.831H96.04C97.0828 89.831 98.0045 90.5028 98.3319 91.4959C98.6472 92.4879 98.2955 93.5756 97.4587 94.1892L85.5264 102.858L90.0858 116.884C90.4011 117.877 90.0495 118.965 89.2006 119.578C88.3639 120.192 87.224 120.192 86.3752 119.578L74.4415 110.909L62.5103 119.578C61.6663 120.192 60.5229 120.192 59.6789 119.578C58.8337 118.965 58.4807 117.877 58.8033 116.884L63.3605 102.858L51.4292 94.1892C50.584 93.5756 50.2311 92.4879 50.5537 91.4959C50.8763 90.5028 51.8015 89.831 52.8456 89.831H67.5926ZM74.4415 84.3474L71.6355 92.9851C71.313 93.977 70.3877 94.65 69.3436 94.65H60.2609L67.6095 99.9881C68.4535 100.602 68.8076 101.689 68.485 102.683L65.6778 111.32L73.0252 105.981C73.8704 105.367 75.0139 105.367 75.8579 105.981L83.2102 111.32L80.3968 102.683C80.0815 101.689 80.4333 100.602 81.27 99.9881L88.6186 94.65H79.5359C78.493 94.65 77.5714 93.977 77.2488 92.9851L74.4415 84.3474Z" fill="url(#paint3_linear)"/>
<path fill-rule="evenodd" clip-rule="evenodd" d="M66.0918 21.7949L57.4675 21.7949C56.4937 21.7949 55.6146 21.2074 55.2411 20.3074C54.8688 19.4064 55.0749 18.3699 55.7637 17.6806L72.7396 0.705405C73.6806 -0.235135 75.2061 -0.235135 76.1471 0.705405L93.1216 17.6806C93.8116 18.3699 94.0178 19.4064 93.6443 20.3074C93.272 21.2074 92.3928 21.7949 91.4179 21.7949H82.7936V41.5037C82.7936 42.8349 81.7155 43.9139 80.384 43.9139H68.5014C67.1711 43.9139 66.0918 42.8349 66.0918 41.5037V21.7949ZM85.6008 16.9755L74.4433 5.81755L63.2858 16.9755L68.5014 16.9755C69.8329 16.9755 70.9109 18.0545 70.9109 19.3847V39.0945H77.9745V19.3847C77.9745 18.0545 79.0538 16.9755 80.384 16.9755H85.6008Z" fill="url(#paint4_linear)"/>
<path fill-rule="evenodd" clip-rule="evenodd" d="M21.9583 36.1408L15.8599 42.2391C15.1714 42.9277 14.1343 43.1339 13.2338 42.7616C12.3335 42.3878 11.7464 41.5091 11.746 40.5346L11.7464 16.5276C11.7467 15.1972 12.8254 14.1185 14.1559 14.1181L38.162 14.1186C39.1373 14.1181 40.016 14.7052 40.389 15.6064C40.7621 16.5061 40.5559 17.5432 39.8665 18.2326L33.7682 24.3309L47.7044 38.2671C48.6457 39.2084 48.6464 40.7337 47.7049 41.6752L39.3026 50.0775C38.3619 51.0181 36.8358 51.0183 35.8945 50.077L21.9583 36.1408ZM32.3454 18.938L16.566 18.9377L16.5663 34.7172L20.2543 31.0292C21.1958 30.0877 22.721 30.0883 23.6616 31.0289L37.5985 44.9659L42.5933 39.9711L28.6563 26.0342C27.7157 25.0936 27.7159 23.5675 28.6566 22.6268L32.3454 18.938Z" fill="url(#paint5_linear)"/>
<path fill-rule="evenodd" clip-rule="evenodd" d="M115.12 24.3309L109.021 18.2326C108.332 17.5432 108.126 16.5061 108.499 15.6064C108.872 14.7052 109.751 14.1181 110.726 14.1186L134.732 14.1181C136.063 14.1185 137.141 15.1972 137.142 16.5276L137.142 40.5346C137.142 41.5091 136.554 42.3878 135.654 42.7616C134.754 43.1339 133.717 42.9277 133.028 42.2391L126.93 36.1408L112.993 50.077C112.052 51.0183 110.526 51.0181 109.585 50.0775L101.183 41.6752C100.242 40.7337 100.242 39.2084 101.184 38.2671L115.12 24.3309ZM132.322 34.7172L132.322 18.9377L116.543 18.938L120.231 22.6268C121.172 23.5675 121.172 25.0936 120.232 26.0342L106.295 39.9711L111.289 44.9659L125.226 31.0289C126.167 30.0883 127.692 30.0877 128.634 31.0292L132.322 34.7172Z" fill="url(#paint6_linear)"/>
</g>
<defs>
<linearGradient id="paint0_linear" x1="108.997" y1="53.158" x2="99.3781" y2="64.4708" gradientUnits="userSpaceOnUse">
<stop stop-color="#00F9BB"/>
<stop offset="1" stop-color="#627EEA"/>
</linearGradient>
<linearGradient id="paint1_linear" x1="125.449" y1="45.4067" x2="22.7591" y2="148.097" gradientUnits="userSpaceOnUse">
<stop stop-color="#00F9BB"/>
<stop offset="1" stop-color="#627EEA"/>
</linearGradient>
<linearGradient id="paint2_linear" x1="115.904" y1="55.0865" x2="32.4278" y2="138.563" gradientUnits="userSpaceOnUse">
<stop stop-color="#00F9BB"/>
<stop offset="1" stop-color="#627EEA"/>
</linearGradient>
<linearGradient id="paint3_linear" x1="98.3885" y1="73.8913" x2="52.343" y2="122.055" gradientUnits="userSpaceOnUse">
<stop stop-color="#00F9BB"/>
<stop offset="1" stop-color="#627EEA"/>
</linearGradient>
<linearGradient id="paint4_linear" x1="94.0377" y1="43.8611" x2="50.2792" y2="5.22824" gradientUnits="userSpaceOnUse">
<stop stop-color="#00F9BB"/>
<stop offset="1" stop-color="#627EEA"/>
</linearGradient>
<linearGradient id="paint5_linear" x1="57.3222" y1="31.9832" x2="-0.937317" y2="35.6076" gradientUnits="userSpaceOnUse">
<stop stop-color="#00F9BB"/>
<stop offset="1" stop-color="#627EEA"/>
</linearGradient>
<linearGradient id="paint6_linear" x1="91.5658" y1="31.9832" x2="149.825" y2="35.6076" gradientUnits="userSpaceOnUse">
<stop stop-color="#00F9BB"/>
<stop offset="1" stop-color="#627EEA"/>
</linearGradient>
<clipPath id="clip0">
<rect width="150" height="150" fill="white"/>
</clipPath>
</defs>
</svg>
