<svg width="105" height="15" viewBox="0 0 105 15" fill="none" xmlns="http://www.w3.org/2000/svg">
<path d="M4.27482 8.95161H10.0131C10.8191 8.95161 11.4725 9.65568 11.4725 10.5242C11.4725 11.3927 10.8191 12.0968 10.0131 12.0968H3.0918C2.98375 12.0968 2.87926 12.1384 2.79715 12.2141L0.70737 14.1405C0.387472 14.4354 0.581016 15 1.00201 15H9.66647C9.67003 15 9.67292 14.9969 9.67292 14.993C9.67292 14.989 9.67614 14.9858 9.6799 14.9861C9.78892 14.9953 9.89913 15 10.0104 15C12.3087 15 14.172 12.9961 14.172 10.5242C14.172 8.17681 12.4918 6.25149 10.3542 6.06345C10.3506 6.06313 10.3478 6.05986 10.3478 6.05593C10.3478 6.05176 10.3446 6.04839 10.3408 6.04839H4.15886C3.35283 6.04839 2.69942 5.34432 2.69942 4.47581C2.69942 3.60729 3.35283 2.90323 4.15886 2.90323H11.0706C11.1844 2.90323 11.294 2.8571 11.3777 2.77402L13.3182 0.84754C13.6218 0.546151 13.4239 0 13.0111 0H4.27482C4.27441 0 4.27408 0.000354149 4.27408 0.000790918C4.27408 0.00123589 4.27374 0.00159333 4.27333 0.00158163C4.23621 0.000529409 4.19897 0 4.16161 0C1.86321 0 0 2.00389 0 4.47581C0 6.94773 1.86321 8.95161 4.16161 8.95161C4.19897 8.95161 4.23621 8.95109 4.27333 8.95003C4.27374 8.95002 4.27408 8.95038 4.27408 8.95082C4.27408 8.95126 4.27441 8.95161 4.27482 8.95161Z" fill="white"/>
<path d="M37.6966 0C37.4458 0 37.2424 0.218652 37.2424 0.488372V14.5116C37.2424 14.7813 37.4458 15 37.6966 15H48.2041C48.3296 15 48.4496 14.9441 48.5354 14.8457L49.8506 13.3373C50.1226 13.0254 49.9169 12.5149 49.5193 12.5149H40.3449C40.0941 12.5149 39.8907 12.2963 39.8907 12.0265V0.488372C39.8907 0.218652 39.6874 0 39.4365 0H37.6966Z" fill="white"/>
<path fill-rule="evenodd" clip-rule="evenodd" d="M20.8672 0C20.8666 0 20.866 0.000590441 20.866 0.00131879C20.866 0.00202525 20.8655 0.00260647 20.8648 0.00263692C19.5218 0.0648598 18.4434 1.22066 18.3854 2.66002C18.3853 2.66073 18.3848 2.66129 18.3841 2.66129C18.3838 2.66129 18.3834 2.66147 18.3832 2.66174C18.383 2.66198 18.3829 2.66228 18.3829 2.66261V12.0955C18.3829 12.0962 18.3834 12.0968 18.3841 12.0968C18.3848 12.0968 18.3853 12.0974 18.3853 12.0981C18.3837 12.1378 18.3829 12.1777 18.3829 12.2177C18.3829 13.7134 19.484 14.9334 20.8648 14.9974C20.8655 14.9974 20.866 14.998 20.866 14.9987L20.8661 14.9993L20.8665 14.9997C20.8667 14.9999 20.8669 15 20.8672 15H30.4015C30.4022 15 30.4028 14.9994 30.4028 14.9987L30.403 14.9979L30.4035 14.9975L30.404 14.9974C31.7848 14.9334 32.8859 13.7134 32.8859 12.2177C32.8859 12.1777 32.8851 12.1378 32.8835 12.0981C32.8835 12.0974 32.884 12.0968 32.8847 12.0968C32.8853 12.0968 32.8859 12.0962 32.8859 12.0955V2.66261C32.8859 2.66188 32.8853 2.66129 32.8846 2.66129C32.884 2.66129 32.8834 2.66073 32.8834 2.66002C32.8254 1.22066 31.7469 0.0648599 30.404 0.00263693C30.4033 0.00260647 30.4028 0.00202525 30.4028 0.00131879C30.4028 0.000590441 30.4022 0 30.4015 0L20.8672 0ZM22.6445 2.66129L22.6439 2.66162L22.6437 2.66212C22.6437 2.66257 22.6434 2.66293 22.643 2.66295C21.8036 2.70209 21.1296 3.42913 21.0933 4.33453C21.0933 4.33498 21.0929 4.33533 21.0925 4.33533C21.0921 4.33533 21.0918 4.3357 21.0918 4.33615V10.2698C21.0918 10.2702 21.0921 10.2706 21.0925 10.2706C21.0929 10.2706 21.0933 10.2709 21.0932 10.2714C21.0923 10.2963 21.0918 10.3214 21.0918 10.3466C21.0918 11.2874 21.78 12.0549 22.643 12.0951C22.6434 12.0951 22.6437 12.0955 22.6437 12.0959L22.6438 12.0964L22.6441 12.0967L22.6445 12.0968H28.6243L28.6247 12.0967L28.625 12.0964L28.6251 12.0959C28.6251 12.0955 28.6254 12.0951 28.6259 12.0951C29.4889 12.0549 30.177 11.2875 30.177 10.3466C30.177 10.3214 30.1766 10.2963 30.1756 10.2714L30.1756 10.2712L30.1757 10.2709L30.1763 10.2706C30.1767 10.2706 30.177 10.2702 30.177 10.2698V4.33615C30.177 4.3357 30.1767 4.33533 30.1763 4.33533C30.1759 4.33533 30.1755 4.33498 30.1755 4.33453C30.1392 3.42913 29.4652 2.70209 28.6259 2.66295C28.6254 2.66293 28.6251 2.66257 28.6251 2.66212L28.625 2.66172L28.6248 2.66142L28.6243 2.66129H22.6445Z" fill="white"/>
<path fill-rule="evenodd" clip-rule="evenodd" d="M65.1298 14.5116C65.1298 14.7813 65.3315 15 65.5803 15H67.3623C67.6111 15 67.8128 14.7813 67.8128 14.5116V2.90449C67.8128 2.90379 67.8123 2.90323 67.8116 2.90323L67.8111 2.90308L67.8109 2.90289C67.8106 2.90265 67.8105 2.90229 67.8105 2.90191C67.812 2.86223 67.8128 2.82234 67.8128 2.78226C67.8128 1.28662 66.7222 0.066612 65.3545 0.00263694C65.3539 0.00260648 65.3534 0.00202525 65.3534 0.00131879C65.3534 0.000590441 65.3528 0 65.3521 0H56.1989C56.1983 0 56.1977 0.000565768 56.1977 0.00126368C56.1977 0.00198274 56.1972 0.00255686 56.1965 0.00252652C56.1599 0.000847823 56.123 0 56.0859 0C54.6659 0 53.5147 1.24566 53.5147 2.78226C53.5147 2.82234 53.5155 2.86223 53.517 2.90191C53.5171 2.90263 53.5165 2.90323 53.5159 2.90323C53.5152 2.90323 53.5147 2.90379 53.5147 2.90449V14.5116C53.5147 14.7813 53.7164 15 53.9652 15H55.7472C55.996 15 56.1977 14.7813 56.1977 14.5116V9.68192C56.1977 9.4122 56.3994 9.19355 56.6482 9.19355H64.6793C64.9281 9.19355 65.1298 9.4122 65.1298 9.68192V14.5116ZM56.1978 6.52776V4.1129C56.1978 3.17758 56.8985 2.41936 57.7629 2.41936H63.5647C64.4291 2.41936 65.1298 3.17758 65.1298 4.1129V6.52776C65.1298 6.79748 64.9281 7.01613 64.6793 7.01613H56.6482C56.3994 7.01613 56.1978 6.79748 56.1978 6.52776Z" fill="white"/>
<path fill-rule="evenodd" clip-rule="evenodd" d="M102.746 15C102.495 15 102.291 14.7813 102.291 14.5116V9.68192C102.291 9.4122 102.088 9.19355 101.836 9.19355H93.7165C93.4653 9.19355 93.2617 9.4122 93.2617 9.68192V14.5116C93.2617 14.7813 93.0581 15 92.8069 15H91.0077C90.7565 15 90.5529 14.7813 90.5529 14.5116V2.90449L90.5529 2.90415L90.5531 2.90374C90.5533 2.90343 90.5536 2.90323 90.554 2.90323C90.5547 2.90323 90.5552 2.90263 90.5552 2.90191C90.5536 2.86223 90.5529 2.82234 90.5529 2.78226C90.5529 1.24566 91.7151 0 93.1488 0C93.1862 0 93.2235 0.000847823 93.2605 0.00252652C93.2611 0.00255686 93.2617 0.00198274 93.2617 0.00126368C93.2617 0.000565768 93.2622 0 93.2629 0L102.516 0C102.516 0 102.517 0.000590441 102.517 0.00131879C102.517 0.00202525 102.517 0.00260648 102.518 0.00263694C103.899 0.066612 105 1.28662 105 2.78226C105 2.82234 104.999 2.86223 104.998 2.90191C104.998 2.90263 104.998 2.90323 104.999 2.90323C104.999 2.90323 104.999 2.90337 105 2.90361C105 2.90384 105 2.90415 105 2.90449V14.5116C105 14.7813 104.796 15 104.545 15H102.746ZM93.2617 4.1129V6.52776C93.2617 6.79748 93.4653 7.01613 93.7165 7.01613H101.836C102.088 7.01613 102.291 6.79748 102.291 6.52776V4.1129C102.291 3.17758 101.584 2.41936 100.711 2.41936H94.8419C93.9692 2.41936 93.2617 3.17758 93.2617 4.1129Z" fill="white"/>
<path d="M74.5204 0C74.6523 0 74.7776 0.0626712 74.8632 0.171475L82.8553 10.3607C83.1271 10.7062 83.6486 10.4979 83.6486 10.0438V0.488373C83.6486 0.218652 83.8503 0 84.099 0H85.8811C86.1299 0 86.3316 0.218652 86.3316 0.488372V14.5116C86.3316 14.7813 86.1299 15 85.8811 15H83.6654C83.6561 15 83.6486 14.9918 83.6486 14.9818C83.6486 14.9773 83.6471 14.9731 83.6444 14.9698L75.5181 4.85158C75.2443 4.51171 74.7283 4.7216 74.7283 5.1728V14.5116C74.7283 14.7813 74.5266 15 74.2778 15H72.4843C72.2355 15 72.0338 14.7813 72.0338 14.5116V0.488372C72.0338 0.218652 72.2355 0 72.4843 0H74.5204Z" fill="white"/>
</svg>
