<svg width="38" height="32" viewBox="0 0 38 32" fill="none" xmlns="http://www.w3.org/2000/svg">
<path fill-rule="evenodd" clip-rule="evenodd" d="M37.9242 20.9443C37.3814 21.5991 36.7987 22.123 36.1601 22.542C34.4254 23.6828 32.2436 24.0524 29.1439 24.0873H28.3564H28.359H11.2445L0 32H27.0553C31.4481 31.9825 35.3593 28.8163 36.8439 24.2939C37.2457 23.0717 37.6075 21.9483 37.9242 20.9443ZM11.0434 11.1372H32.0786C33.3584 11.1313 34.561 11.8036 35.306 12.9414C36.0484 14.0793 36.2426 15.5402 35.8249 16.8643C35.3087 18.5027 33.9012 19.7017 32.3154 19.7075H7.42273C6.43003 19.6726 5.50493 19.1371 4.92038 18.2525C4.31321 17.3358 4.14797 16.1543 4.47657 15.0775L6.66764 7.91268C7.75586 10.1273 9.94718 11.111 11.0434 11.1372ZM29.6681 6.86795L36.9184 0H13.5684C12.5254 0.00291015 11.5973 0.823584 11.2562 1.90325C10.8936 3.04985 11.0617 4.31574 11.7067 5.30229C12.3524 6.28883 13.3954 6.87377 14.5023 6.86795C20.965 6.84176 24.1259 6.86504 29.6681 6.86795Z" fill="#00F9BB"/>
</svg>
