<svg width="128" height="150" viewBox="0 0 128 150" fill="none" xmlns="http://www.w3.org/2000/svg">
<path fill-rule="evenodd" clip-rule="evenodd" d="M103.416 69.7943C105.388 71.0138 107.25 72.3934 108.983 73.9177C109.832 74.6652 111.129 74.5825 111.875 73.7334C112.622 72.8843 112.54 71.589 111.69 70.8415C109.785 69.1657 107.739 67.6482 105.572 66.3082C104.61 65.7123 103.345 66.012 102.751 66.9731C102.157 67.9359 102.455 69.2001 103.416 69.7943Z" fill="url(#paint0_linear)"/>
<path fill-rule="evenodd" clip-rule="evenodd" d="M114.89 80.3299C119.962 87.1677 122.962 95.6297 122.962 104.788C122.962 127.48 104.54 145.903 81.8493 145.903C59.1569 145.903 40.7344 127.48 40.7344 104.788C40.7344 82.097 59.1569 63.6745 81.8493 63.6745C87.0319 63.6745 91.9906 64.6355 96.5584 66.3889C97.6159 66.7937 98.8009 66.2649 99.2074 65.2091C99.6122 64.1533 99.0834 62.9665 98.0276 62.5618C93.0034 60.6327 87.5486 59.5752 81.8493 59.5752C56.8955 59.5752 36.6368 79.8355 36.6368 104.788C36.6368 129.741 56.8955 150 81.8493 150C106.801 150 127.062 129.741 127.062 104.788C127.062 94.7152 123.76 85.4074 118.183 77.8892C117.508 76.9798 116.223 76.7904 115.315 77.4638C114.407 78.1373 114.216 79.4222 114.89 80.3299Z" fill="url(#paint1_linear)"/>
<path fill-rule="evenodd" clip-rule="evenodd" d="M81.8505 68.0518C61.5753 68.0518 45.1135 84.5122 45.1135 104.787C45.1135 125.064 61.5753 141.524 81.8505 141.524C102.126 141.524 118.586 125.064 118.586 104.787C118.586 84.5122 102.126 68.0518 81.8505 68.0518ZM81.8505 72.1503C99.8639 72.1503 114.488 86.7753 114.488 104.787C114.488 122.801 99.8639 137.426 81.8505 137.426C63.837 137.426 49.212 122.801 49.212 104.787C49.212 86.7753 63.837 72.1503 81.8505 72.1503Z" fill="url(#paint2_linear)"/>
<path fill-rule="evenodd" clip-rule="evenodd" d="M75.8459 98.4459L79.9025 85.9613C80.1775 85.1169 80.9639 84.5453 81.8513 84.5453C82.7397 84.5453 83.5261 85.1169 83.8012 85.9613L87.8578 98.4459H100.986C101.878 98.4459 102.662 99.0174 102.931 99.8618C103.21 100.706 102.909 101.631 102.189 102.153L91.575 109.869L95.6252 122.355C95.9045 123.199 95.6037 124.124 94.8839 124.645C94.1641 125.167 93.1865 125.167 92.4774 124.645L81.8513 116.93L71.2317 124.645C70.513 125.167 69.5407 125.167 68.822 124.645C68.1043 124.124 67.8035 123.199 68.0775 122.355L72.1341 109.869L61.5145 102.153C60.7957 101.631 60.4949 100.706 60.77 99.8618C61.0439 99.0174 61.8304 98.4459 62.7188 98.4459H75.8459ZM81.8513 93.2258L79.2837 101.128C79.0098 101.973 78.2233 102.544 77.3349 102.544H69.0261L75.7481 107.428C76.4668 107.95 76.7666 108.875 76.4926 109.72L73.925 117.622L80.647 112.739C81.3657 112.216 82.338 112.216 83.0567 112.739L89.7809 117.622L87.2132 109.72C86.9339 108.875 87.2347 107.95 87.9545 107.428L94.6798 102.544H86.3645C85.4836 102.544 84.6939 101.973 84.4189 101.128L81.8513 93.2258Z" fill="url(#paint3_linear)"/>
<path fill-rule="evenodd" clip-rule="evenodd" d="M4.42991 64.2556L4.48166 56.2235C4.48906 55.092 3.57641 54.1675 2.4463 54.1601C1.31472 54.1541 0.390212 55.0653 0.382816 56.1969L0.331038 64.229C0.323642 65.3605 1.2363 66.285 2.36789 66.2924C3.49799 66.2998 4.42251 65.3872 4.42991 64.2556Z" fill="url(#paint4_linear)"/>
<path fill-rule="evenodd" clip-rule="evenodd" d="M4.81861 4.09886L4.54939 45.858C4.54199 46.9896 3.61749 47.9023 2.48591 47.8949C1.3558 47.8875 0.443149 46.963 0.450545 45.8314L0.733063 2.03537C0.740459 0.909704 1.65608 0 2.78323 0H66.4611C67.004 0 67.5261 0.21596 67.9107 0.600551L89.0751 21.7649C89.4596 22.1495 89.6756 22.6701 89.6756 23.2145V61.6262C89.6756 62.7563 88.757 63.6749 87.6254 63.6749C86.4953 63.6749 85.5768 62.7563 85.5768 61.6262V24.0636L65.6121 4.09886H4.81861Z" fill="url(#paint5_linear)"/>
<path fill-rule="evenodd" clip-rule="evenodd" d="M4.11223 113.736H40.1306C41.2622 113.736 42.1808 114.655 42.1808 115.786C42.1808 116.917 41.2622 117.835 40.1306 117.835H2.04875C1.50292 117.835 0.979284 117.618 0.594693 117.23C0.210103 116.843 -0.00437007 116.319 6.75175e-05 115.773L0.241168 78.5285C0.248564 77.3969 1.17158 76.4842 2.30316 76.4916C3.43475 76.499 4.34593 77.4235 4.34001 78.5551L4.11223 113.736Z" fill="url(#paint6_linear)"/>
<path fill-rule="evenodd" clip-rule="evenodd" d="M68.5084 20.6126H87.624C88.7556 20.6126 89.6742 21.5312 89.6742 22.6613C89.6742 23.7929 88.7556 24.7114 87.624 24.7114H66.4597C65.3281 24.7114 64.411 23.7943 64.411 22.6613V2.04869C64.411 0.918584 65.3281 0 66.4597 0C67.5913 0 68.5084 0.918584 68.5084 2.04869V20.6126Z" fill="url(#paint7_linear)"/>
<path fill-rule="evenodd" clip-rule="evenodd" d="M13.4581 24.7111H24.5003C25.6318 24.7111 26.5504 23.7926 26.5504 22.661C26.5504 21.5309 25.6318 20.6123 24.5003 20.6123H13.4581C12.3265 20.6123 11.4094 21.5309 11.4094 22.661C11.4094 23.7926 12.3265 24.7111 13.4581 24.7111Z" fill="url(#paint8_linear)"/>
<path fill-rule="evenodd" clip-rule="evenodd" d="M35.9091 24.7111H51.0013C52.1314 24.7111 53.05 23.7926 53.05 22.661C53.05 21.5309 52.1314 20.6123 51.0013 20.6123H35.9091C34.7789 20.6123 33.8604 21.5309 33.8604 22.661C33.8604 23.7926 34.7789 24.7111 35.9091 24.7111Z" fill="url(#paint9_linear)"/>
<path fill-rule="evenodd" clip-rule="evenodd" d="M13.4581 39.4303H51.003C52.1331 39.4303 53.0517 38.5132 53.0517 37.3816C53.0517 36.25 52.1331 35.3314 51.003 35.3314H13.4581C12.3265 35.3314 11.4094 36.25 11.4094 37.3816C11.4094 38.5132 12.3265 39.4303 13.4581 39.4303Z" fill="url(#paint10_linear)"/>
<path fill-rule="evenodd" clip-rule="evenodd" d="M61.7618 39.4303H77.0463C78.1779 39.4303 79.0964 38.5132 79.0964 37.3816C79.0964 36.25 78.1779 35.3314 77.0463 35.3314H61.7618C60.6302 35.3314 59.7131 36.25 59.7131 37.3816C59.7131 38.5132 60.6302 39.4303 61.7618 39.4303Z" fill="url(#paint11_linear)"/>
<path fill-rule="evenodd" clip-rule="evenodd" d="M13.4581 53.7907H28.5503C29.6804 53.7907 30.599 52.8722 30.599 51.7421C30.599 50.6105 29.6804 49.6919 28.5503 49.6919H13.4581C12.3265 49.6919 11.4094 50.6105 11.4094 51.7421C11.4094 52.8722 12.3265 53.7907 13.4581 53.7907Z" fill="url(#paint12_linear)"/>
<path fill-rule="evenodd" clip-rule="evenodd" d="M43.4586 53.7907H77.0452C78.1768 53.7907 79.0954 52.8722 79.0954 51.7421C79.0954 50.6105 78.1768 49.6919 77.0452 49.6919H43.4586C42.327 49.6919 41.4084 50.6105 41.4084 51.7421C41.4084 52.8722 42.327 53.7907 43.4586 53.7907Z" fill="url(#paint13_linear)"/>
<defs>
<linearGradient id="paint0_linear" x1="112.374" y1="65.956" x2="104.025" y2="75.8033" gradientUnits="userSpaceOnUse">
<stop stop-color="#00F9BB"/>
<stop offset="1" stop-color="#627EEA"/>
</linearGradient>
<linearGradient id="paint1_linear" x1="126.953" y1="59.0864" x2="36.1481" y2="149.891" gradientUnits="userSpaceOnUse">
<stop stop-color="#00F9BB"/>
<stop offset="1" stop-color="#627EEA"/>
</linearGradient>
<linearGradient id="paint2_linear" x1="118.498" y1="67.6546" x2="44.7163" y2="141.436" gradientUnits="userSpaceOnUse">
<stop stop-color="#00F9BB"/>
<stop offset="1" stop-color="#627EEA"/>
</linearGradient>
<linearGradient id="paint3_linear" x1="102.983" y1="84.3264" x2="62.3626" y2="126.826" gradientUnits="userSpaceOnUse">
<stop stop-color="#00F9BB"/>
<stop offset="1" stop-color="#627EEA"/>
</linearGradient>
<linearGradient id="paint4_linear" x1="4.47672" y1="54.0944" x2="-2.98612" y2="56.6476" gradientUnits="userSpaceOnUse">
<stop stop-color="#00F9BB"/>
<stop offset="1" stop-color="#627EEA"/>
</linearGradient>
<linearGradient id="paint5_linear" x1="89.5684" y1="-0.344216" x2="29.0998" y2="84.388" gradientUnits="userSpaceOnUse">
<stop stop-color="#00F9BB"/>
<stop offset="1" stop-color="#627EEA"/>
</linearGradient>
<linearGradient id="paint6_linear" x1="42.1301" y1="76.2681" x2="0.621102" y2="118.618" gradientUnits="userSpaceOnUse">
<stop stop-color="#00F9BB"/>
<stop offset="1" stop-color="#627EEA"/>
</linearGradient>
<linearGradient id="paint7_linear" x1="89.6439" y1="-0.133586" x2="64.8346" y2="25.2296" gradientUnits="userSpaceOnUse">
<stop stop-color="#00F9BB"/>
<stop offset="1" stop-color="#627EEA"/>
</linearGradient>
<linearGradient id="paint8_linear" x1="26.5322" y1="20.5901" x2="24.4559" y2="28.2602" gradientUnits="userSpaceOnUse">
<stop stop-color="#00F9BB"/>
<stop offset="1" stop-color="#627EEA"/>
</linearGradient>
<linearGradient id="paint9_linear" x1="53.0269" y1="20.5901" x2="51.3453" y2="28.4631" gradientUnits="userSpaceOnUse">
<stop stop-color="#00F9BB"/>
<stop offset="1" stop-color="#627EEA"/>
</linearGradient>
<linearGradient id="paint10_linear" x1="53.0017" y1="35.3093" x2="52.1991" y2="43.4624" gradientUnits="userSpaceOnUse">
<stop stop-color="#00F9BB"/>
<stop offset="1" stop-color="#627EEA"/>
</linearGradient>
<linearGradient id="paint11_linear" x1="79.0732" y1="35.3093" x2="77.4069" y2="43.1891" gradientUnits="userSpaceOnUse">
<stop stop-color="#00F9BB"/>
<stop offset="1" stop-color="#627EEA"/>
</linearGradient>
<linearGradient id="paint12_linear" x1="30.5759" y1="49.6697" x2="28.8943" y2="57.5427" gradientUnits="userSpaceOnUse">
<stop stop-color="#00F9BB"/>
<stop offset="1" stop-color="#627EEA"/>
</linearGradient>
<linearGradient id="paint13_linear" x1="79.0501" y1="49.6697" x2="78.1652" y2="57.8057" gradientUnits="userSpaceOnUse">
<stop stop-color="#00F9BB"/>
<stop offset="1" stop-color="#627EEA"/>
</linearGradient>
</defs>
</svg>
