<svg width="150" height="150" viewBox="0 0 150 150" fill="none" xmlns="http://www.w3.org/2000/svg">
<path fill-rule="evenodd" clip-rule="evenodd" d="M135.157 108.808V38.4038C135.157 37.2541 136.09 36.3211 137.24 36.3211C138.389 36.3211 139.324 37.2541 139.324 38.4038V109.99C139.324 110.722 138.938 111.401 138.31 111.776L75.809 149.179C75.1502 149.573 74.3291 149.573 73.6704 149.179L11.1694 111.776C10.5413 111.401 10.1569 110.722 10.1569 109.99V38.0446C10.1569 36.895 11.0899 35.962 12.2396 35.962C13.3892 35.962 14.324 36.895 14.324 38.0446V108.808L74.7406 144.963L135.157 108.808Z" fill="url(#paint0_linear)"/>
<path fill-rule="evenodd" clip-rule="evenodd" d="M72.6562 74.7389V147.397C72.6562 148.546 73.5911 149.481 74.7407 149.481C75.8903 149.481 76.8233 148.546 76.8233 147.397V74.7389C76.8233 73.5893 75.8903 72.6562 74.7407 72.6562C73.5911 72.6562 72.6562 73.5893 72.6562 74.7389Z" fill="url(#paint1_linear)"/>
<path fill-rule="evenodd" clip-rule="evenodd" d="M101.556 86.9704L106.007 65.1223C106.2 64.1735 107.02 63.4831 107.986 63.4548C108.953 63.4255 109.813 64.067 110.062 65.0009L114 79.7858L126.655 72.4794C127.484 72.0012 128.531 72.1489 129.195 72.8365C129.859 73.5262 129.97 74.5771 129.464 75.3883L117.8 94.0488L122.204 110.588C122.412 111.362 122.154 112.188 121.543 112.71C120.933 113.229 120.077 113.354 119.344 113.027L108.855 108.357L97.6722 126.25C97.1377 127.105 96.0686 127.455 95.1324 127.081C94.1978 126.708 93.6633 125.716 93.8634 124.729L98.1677 103.602L87.5538 98.8745C86.838 98.5563 86.3613 97.8625 86.3207 97.0795C86.2785 96.2995 86.6801 95.5591 87.3584 95.1675L101.556 86.9704ZM108.319 74.6469L105.451 88.7229C105.332 89.3062 104.968 89.8123 104.452 90.1101L92.9834 96.7316L101.39 100.474C102.283 100.871 102.78 101.837 102.585 102.794L100.248 114.268L106.282 104.614C106.833 103.734 107.947 103.392 108.896 103.816L117.056 107.449L113.541 94.2467C113.392 93.6906 113.481 93.0953 113.786 92.6068L121.499 80.268L113.728 84.7546C113.167 85.0785 112.487 85.123 111.889 84.8747C111.29 84.6243 110.84 84.1132 110.674 83.4857L108.319 74.6469Z" fill="url(#paint2_linear)"/>
<path fill-rule="evenodd" clip-rule="evenodd" d="M11.2001 36.2478C10.5613 36.6159 10.1642 37.2945 10.157 38.0326C10.1498 38.7707 10.5342 39.4565 11.1658 39.8373L72.0913 76.5255C72.7374 76.9153 73.5423 76.9243 74.1975 76.5508L138.27 40.0684C138.92 39.7002 139.321 39.0126 139.324 38.2655C139.326 37.5201 138.929 36.8289 138.283 36.4553L75.7423 0.279739C75.098 -0.0920326 74.3039 -0.0938501 73.6597 0.277922L11.2001 36.2478ZM16.3454 38.0922L73.1958 72.3277L133.055 38.2438L74.6974 4.48835L16.3454 38.0922Z" fill="url(#paint3_linear)"/>
<defs>
<linearGradient id="paint0_linear" x1="139.169" y1="35.3483" x2="26.1244" y2="163.984" gradientUnits="userSpaceOnUse">
<stop stop-color="#00F9BB"/>
<stop offset="1" stop-color="#627EEA"/>
</linearGradient>
<linearGradient id="paint1_linear" x1="76.8183" y1="72.2409" x2="68.4737" y2="72.6936" gradientUnits="userSpaceOnUse">
<stop stop-color="#00F9BB"/>
<stop offset="1" stop-color="#627EEA"/>
</linearGradient>
<linearGradient id="paint2_linear" x1="129.728" y1="50.3043" x2="74.5178" y2="124.555" gradientUnits="userSpaceOnUse">
<stop stop-color="#00F9BB"/>
<stop offset="1" stop-color="#627EEA"/>
</linearGradient>
<linearGradient id="paint3_linear" x1="139.169" y1="-0.4153" x2="71.3799" y2="113.561" gradientUnits="userSpaceOnUse">
<stop stop-color="#00F9BB"/>
<stop offset="1" stop-color="#627EEA"/>
</linearGradient>
</defs>
</svg>
