<?xml version="1.0" encoding="UTF-8" standalone="no"?>
<!-- Created with Inkscape (http://www.inkscape.org/) -->

<svg
   width="1920"
   height="1126"
   viewBox="0 0 507.99999 297.92082"
   version="1.1"
   id="svg5"
   inkscape:version="1.1 (c68e22c387, 2021-05-23)"
   sodipodi:docname="SNY error.svg"
   xmlns:inkscape="http://www.inkscape.org/namespaces/inkscape"
   xmlns:sodipodi="http://sodipodi.sourceforge.net/DTD/sodipodi-0.dtd"
   xmlns="http://www.w3.org/2000/svg"
   xmlns:svg="http://www.w3.org/2000/svg">
  <sodipodi:namedview
     id="namedview7"
     pagecolor="#ffffff"
     bordercolor="#666666"
     borderopacity="1.0"
     inkscape:pageshadow="2"
     inkscape:pageopacity="0.0"
     inkscape:pagecheckerboard="0"
     inkscape:document-units="mm"
     showgrid="false"
     units="px"
     width="1920px"
     inkscape:zoom="0.47433592"
     inkscape:cx="936.04549"
     inkscape:cy="527.05264"
     inkscape:window-width="2560"
     inkscape:window-height="1346"
     inkscape:window-x="-11"
     inkscape:window-y="-11"
     inkscape:window-maximized="1"
     inkscape:current-layer="layer1" />
  <defs
     id="defs2" />
  <g
     inkscape:label="Warstwa 1"
     inkscape:groupmode="layer"
     id="layer1">
    <path
       style="fill:#00f9bb;fill-opacity:1;stroke-width:0.289975"
       d="m 362.87606,296.29954 c 0,-0.51418 1.44954,-1.67986 2.32912,-1.87304 0.45837,-0.10068 1.18412,-0.45894 1.61276,-0.79613 l 0.7794,-0.61304 1.48155,0.78654 c 1.36607,0.72525 3.36638,2.30015 3.36638,2.6504 0,0.082 -2.15307,0.14908 -4.78461,0.14908 -3.14177,0 -4.7846,-0.10433 -4.7846,-0.30381 z m 11.81652,0.0961 c -0.43858,-0.0664 -0.79742,-0.16096 -0.79742,-0.21006 0,-0.0491 0.19956,-0.65493 0.44348,-1.3463 0.74838,-2.12102 1.41976,-2.22541 2.87677,-0.44734 1.62963,1.98875 0.94862,2.5296 -2.52283,2.0037 z m 124.05925,-0.60491 c 0.33104,-0.27684 0.83539,-0.85972 1.12076,-1.29524 0.61617,-0.94043 1.26774,-1.00123 2.27114,-0.21194 0.40551,0.31897 1.08202,0.57995 1.50339,0.57995 0.42136,0 1.14683,0.1969 1.61221,0.43754 0.46535,0.24066 1.33966,0.55378 1.94293,0.6958 0.78502,0.18486 -0.34577,0.26383 -3.97776,0.27777 -4.85373,0.0185 -5.04839,-0.003 -4.47267,-0.48388 z M 0.56159055,295.49262 C 0.71519112,295.35599 26.155777,278.94526 57.096227,259.02433 l 56.255373,-36.21988 98.01194,-0.15989 c 73.03929,-0.11914 99.00935,-0.24903 101.9266,-0.5098 2.15307,-0.19246 6.31934,-0.61522 9.25837,-0.93948 25.29272,-2.79044 42.18603,-9.87754 56.20375,-23.57869 1.95371,-1.90959 3.5522,-3.39639 3.5522,-3.30402 0,0.62027 -10.76473,30.92468 -12.38699,34.87136 -1.67018,4.06323 -5.08712,10.89179 -7.16416,14.31713 -5.04839,8.32558 -9.71457,14.2593 -16.67988,21.21094 -9.13403,9.11609 -16.94224,14.7202 -28.28866,20.3033 -11.04371,5.43414 -20.3685,8.2408 -33.49223,10.08078 -3.02283,0.42383 -16.461,0.47585 -143.67248,0.55626 -77.921078,0.0492 -140.21352774,-0.0217 -140.05846945,-0.15972 z M 383.60935,294.90444 c 0.47847,-0.46233 8.74928,-7.65825 18.37962,-15.99092 15.1765,-13.13152 17.68985,-15.19785 18.86182,-15.507 1.99956,-0.52748 2.53254,-0.89523 3.37105,-2.32609 0.62058,-1.05894 0.97917,-1.34995 1.96645,-1.59593 1.84196,-0.45891 2.04375,-0.65477 2.51235,-2.43839 l 0.43496,-1.65559 13.19392,-11.42759 13.19391,-11.42758 3.80014,-0.009 3.80017,-0.009 -2.99929,2.95145 c -2.22523,2.18975 -3.03352,3.18131 -3.13202,3.84217 -0.073,0.48992 -0.19608,1.37531 -0.27348,1.96752 l -0.14067,1.07676 5.45952,1.75041 5.45953,1.75041 0.37387,2.51288 0.37386,2.51288 1.90349,1.79944 c 1.04694,0.98969 2.25291,2.10988 2.67994,2.4893 0.55591,0.49396 1.15216,1.78496 2.09959,4.54603 0.72775,2.1209 1.44936,4.0919 1.60355,4.38 0.19857,0.37101 1.02421,0.67148 2.82998,1.0299 1.4023,0.27834 2.75867,0.61774 3.0141,0.75426 0.25544,0.1365 1.01643,1.461 1.69106,2.94329 l 1.22664,2.6951 3.87395,2.31981 c 2.86992,1.71857 3.77685,2.39503 3.49937,2.61005 -0.20602,0.15962 -2.28733,1.33062 -4.62511,2.60223 -2.33782,1.27159 -4.21681,2.40245 -4.17555,2.51301 0.0413,0.11056 1.75941,1.41885 3.8181,2.90731 l 3.74309,2.70629 0.66552,2.46481 c 0.36605,1.35564 0.67162,2.68657 0.67904,2.95761 0.008,0.2835 -0.77966,1.05881 -1.85425,1.82562 l -1.86776,1.33283 -2.48791,-0.34806 c -1.95056,-0.27286 -2.83099,-0.27127 -4.0762,0.008 -1.2326,0.27585 -1.9563,0.27904 -3.23175,0.0143 -1.24234,-0.25791 -1.89723,-0.26006 -2.68284,-0.009 -0.76613,0.24512 -9.53811,0.29822 -33.37166,0.20201 -17.78279,-0.0718 -32.72381,-0.1321 -33.20227,-0.13401 -0.47846,-0.003 -6.80718,0.054 -14.06384,0.12434 l -13.19391,0.12779 0.86992,-0.8406 z M 72.899936,182.20173 c -0.23924,-0.0477 -1.413641,-0.24578 -2.609786,-0.44023 -4.593835,-0.74677 -9.845561,-3.04394 -13.839823,-6.05371 -6.209058,-4.67865 -10.458374,-11.45622 -12.287992,-19.59904 -0.496256,-2.20861 -0.515019,-9.83819 -0.02992,-12.17783 0.405258,-1.9547 23.024634,-70.022779 23.270241,-70.026705 0.08648,-10e-4 0.671262,0.87827 1.299528,1.954801 5.297659,9.077662 14.475554,17.242638 25.208373,22.426239 4.625119,2.233755 8.153363,3.471565 12.310003,4.318625 2.85097,0.581 3.68118,0.58539 110.59488,0.58539 72.75879,0 108.69702,0.0982 110.72532,0.30286 9.12413,0.92017 17.11802,4.57253 23.62668,10.79484 5.71119,5.45994 9.25005,11.56672 11.31979,19.53383 0.77218,2.97238 0.81846,3.49532 0.81778,9.24018 0,5.41026 -0.0766,6.39678 -0.68076,8.84428 -1.98765,8.05196 -5.60109,14.33163 -11.48157,19.95342 -5.16576,4.9385 -10.57613,7.88364 -17.84415,9.71345 l -2.4648,0.62055 -128.7494,0.0479 c -70.81217,0.0263 -128.945132,0.009 -129.184373,-0.0387 z M 140.60935,63.441699 c -0.79743,-0.134571 -2.61127,-0.581503 -4.03077,-0.993211 -18.40419,-5.337774 -28.97383,-25.080188 -23.2105,-43.353508 2.75701,-8.741421 9.30143,-15.2524411 17.96204,-17.8704049 1.6448,-0.49718237 4.32229,-0.53026107 49.00596,-0.60540407 26.27784,-0.044118 47.09468,0.03066 46.88005,0.1687227 -0.22705,0.145945 1.91692,0.33584647 5.20498,0.46101737 4.46598,0.1700078 5.87511,0.3248169 7.00279,0.7693001 1.25592,0.4950372 1.61695,0.5186345 3.27123,0.2138226 1.56606,-0.2885508 2.12374,-0.2691629 3.53392,0.1229043 1.41281,0.3927957 2.76414,0.438948 8.64913,0.2953405 l 6.97471,-0.1701899 0.87288,3.3059584 0.87285,3.3059579 3.81589,2.754771 c 2.09874,1.515134 3.81884,2.820028 3.82247,2.899775 0.003,0.07984 -1.85548,1.152564 -4.13135,2.384056 -2.27587,1.231491 -4.35987,2.405891 -4.6311,2.609787 -0.43349,0.325849 -0.0423,0.642723 3.23328,2.618935 2.04954,1.236521 3.84708,2.410921 3.99452,2.609788 0.14745,0.198847 0.7743,1.470712 1.393,2.826353 0.61868,1.35565 1.22953,2.536597 1.35741,2.624369 0.12789,0.08773 1.48224,0.405272 3.00966,0.705591 1.79707,0.353342 2.86134,0.706371 3.01574,1.000345 0.13125,0.249866 0.84989,2.225188 1.59699,4.389603 l 1.35836,3.935293 2.56758,2.299188 c 2.01887,1.807844 2.61007,2.516087 2.76639,3.314114 0.10938,0.5582 0.34755,1.783053 0.52931,2.721895 l 0.33049,1.706979 5.3428,1.702668 c 2.93857,0.936465 5.36824,1.734189 5.39931,1.772732 0.031,0.03855 -0.0451,0.905581 -0.16938,1.926761 l -0.22581,1.856698 -2.92791,2.927916 -2.92789,2.927916 -75.02958,0.03946 c -41.26626,0.02165 -75.68201,-0.07073 -76.47945,-0.205252 z"
       id="path848" />
  </g>
</svg>
