<svg width="279" height="52" viewBox="0 0 279 52" fill="none" xmlns="http://www.w3.org/2000/svg">
<path d="M94.5179 28.4799H105.028C106.504 28.4799 107.701 29.6828 107.701 31.1666C107.701 32.6504 106.504 33.8533 105.028 33.8533H92.3511C92.1532 33.8533 91.9618 33.9244 91.8115 34.0537L87.9839 37.345C87.398 37.8488 87.7525 38.8133 88.5236 38.8133H104.393C104.399 38.8133 104.405 38.808 104.405 38.8014C104.405 38.7945 104.411 38.789 104.417 38.7896C104.617 38.8053 104.819 38.8133 105.023 38.8133C109.232 38.8133 112.645 35.3898 112.645 31.1666C112.645 27.1562 109.568 23.8669 105.653 23.5456C105.646 23.5451 105.641 23.5395 105.641 23.5328C105.641 23.5257 105.635 23.5199 105.628 23.5199H94.3055C92.8292 23.5199 91.6325 22.317 91.6325 20.8332C91.6325 19.3494 92.8292 18.1465 94.3055 18.1465H106.965C107.173 18.1465 107.374 18.0678 107.527 17.9258L111.081 14.6345C111.637 14.1196 111.275 13.1865 110.519 13.1865H94.5179C94.5171 13.1865 94.5165 13.1871 94.5165 13.1879C94.5165 13.1886 94.5159 13.1892 94.5151 13.1892C94.4471 13.1874 94.3789 13.1865 94.3105 13.1865C90.1009 13.1865 86.6884 16.6101 86.6884 20.8332C86.6884 25.0564 90.1009 28.4799 94.3105 28.4799C94.3789 28.4799 94.4471 28.479 94.5151 28.4772C94.5159 28.4772 94.5165 28.4778 94.5165 28.4786C94.5165 28.4793 94.5171 28.4799 94.5179 28.4799Z" fill="white"/>
<path d="M155.731 13.1865C155.272 13.1865 154.899 13.5601 154.899 14.0209V37.979C154.899 38.4398 155.272 38.8133 155.731 38.8133H174.976C175.206 38.8133 175.426 38.7179 175.583 38.5496L177.992 35.9727C178.49 35.4398 178.113 34.5677 177.385 34.5677H160.582C160.122 34.5677 159.75 34.1941 159.75 33.7333V14.0209C159.75 13.5601 159.377 13.1865 158.918 13.1865H155.731Z" fill="white"/>
<path fill-rule="evenodd" clip-rule="evenodd" d="M124.908 13.1865C124.906 13.1865 124.905 13.1875 124.905 13.1888C124.905 13.19 124.904 13.191 124.903 13.191C122.443 13.2973 120.468 15.272 120.362 17.731C120.362 17.7323 120.361 17.7332 120.36 17.7332C120.359 17.7332 120.358 17.7335 120.358 17.734C120.358 17.7344 120.357 17.7349 120.357 17.7355V33.8511C120.357 33.8523 120.358 33.8533 120.36 33.8533C120.361 33.8533 120.362 33.8543 120.362 33.8556C120.359 33.9233 120.357 33.9915 120.357 34.06C120.357 36.6152 122.374 38.6995 124.903 38.8088C124.904 38.8089 124.905 38.8099 124.905 38.8111L124.906 38.8121L124.906 38.8128C124.906 38.8131 124.907 38.8133 124.908 38.8133H142.37C142.371 38.8133 142.372 38.8123 142.372 38.8111L142.373 38.8098L142.373 38.8091L142.374 38.8088C144.903 38.6995 146.92 36.6152 146.92 34.06C146.92 33.9915 146.919 33.9233 146.916 33.8556C146.916 33.8543 146.917 33.8533 146.918 33.8533C146.919 33.8533 146.92 33.8523 146.92 33.8511V17.7355C146.92 17.7342 146.919 17.7332 146.918 17.7332C146.917 17.7332 146.916 17.7323 146.916 17.731C146.809 15.272 144.834 13.2973 142.374 13.191C142.373 13.191 142.372 13.19 142.372 13.1888C142.372 13.1875 142.371 13.1865 142.37 13.1865H124.908ZM128.163 17.7332L128.161 17.7338L128.161 17.7346C128.161 17.7354 128.161 17.736 128.16 17.736C126.623 17.8029 125.388 19.045 125.322 20.5919C125.322 20.5926 125.321 20.5932 125.32 20.5932C125.319 20.5932 125.319 20.5939 125.319 20.5946V30.7319C125.319 30.7327 125.319 30.7333 125.32 30.7333C125.321 30.7333 125.321 30.7339 125.321 30.7347C125.32 30.7773 125.319 30.8202 125.319 30.8633C125.319 32.4706 126.579 33.7817 128.16 33.8505C128.161 33.8505 128.161 33.8511 128.161 33.8519L128.161 33.8527L128.162 33.8531L128.163 33.8533H139.115L139.116 33.8532L139.116 33.8526L139.116 33.8519C139.116 33.8511 139.117 33.8505 139.118 33.8505C140.698 33.7817 141.959 32.4706 141.959 30.8633C141.959 30.8202 141.958 30.7773 141.956 30.7347L141.956 30.7343L141.956 30.734L141.957 30.7333C141.958 30.7333 141.959 30.7327 141.959 30.7319V20.5946C141.959 20.5939 141.958 20.5932 141.957 20.5932C141.957 20.5932 141.956 20.5926 141.956 20.5919C141.89 19.045 140.655 17.8029 139.118 17.736C139.117 17.736 139.116 17.7354 139.116 17.7346L139.116 17.7339L139.116 17.7334L139.115 17.7332H128.163Z" fill="white"/>
<path fill-rule="evenodd" clip-rule="evenodd" d="M205.976 37.979C205.976 38.4398 206.345 38.8133 206.801 38.8133H210.065C210.521 38.8133 210.89 38.4398 210.89 37.979V18.1487C210.89 18.1475 210.889 18.1465 210.888 18.1465L210.887 18.1463L210.887 18.146C210.886 18.1456 210.886 18.145 210.886 18.1443C210.889 18.0765 210.89 18.0084 210.89 17.9399C210.89 15.3846 208.893 13.3003 206.388 13.191C206.387 13.191 206.386 13.19 206.386 13.1888C206.386 13.1875 206.385 13.1865 206.383 13.1865H189.619C189.618 13.1865 189.617 13.1875 189.617 13.1887C189.617 13.1899 189.616 13.1909 189.615 13.1908C189.547 13.188 189.48 13.1865 189.412 13.1865C186.811 13.1865 184.703 15.3147 184.703 17.9399C184.703 18.0084 184.704 18.0765 184.707 18.1443C184.707 18.1455 184.706 18.1465 184.705 18.1465C184.704 18.1465 184.703 18.1475 184.703 18.1487V37.979C184.703 38.4398 185.072 38.8133 185.528 38.8133H188.792C189.247 38.8133 189.617 38.4398 189.617 37.979V29.7276C189.617 29.2668 189.986 28.8933 190.442 28.8933H205.151C205.607 28.8933 205.976 29.2668 205.976 29.7276V37.979ZM189.617 24.3389V20.2132C189.617 18.6153 190.9 17.3199 192.483 17.3199H203.11C204.693 17.3199 205.976 18.6153 205.976 20.2132V24.3389C205.976 24.7997 205.607 25.1733 205.151 25.1733H190.442C189.986 25.1733 189.617 24.7997 189.617 24.3389Z" fill="white"/>
<path fill-rule="evenodd" clip-rule="evenodd" d="M274.872 38.8133C274.412 38.8133 274.039 38.4398 274.039 37.979V29.7276C274.039 29.2668 273.666 28.8933 273.206 28.8933H258.334C257.874 28.8933 257.501 29.2668 257.501 29.7276V37.979C257.501 38.4398 257.128 38.8133 256.668 38.8133H253.372C252.912 38.8133 252.539 38.4398 252.539 37.979V18.1487L252.54 18.1481L252.54 18.1474C252.54 18.1469 252.541 18.1465 252.542 18.1465C252.543 18.1465 252.544 18.1455 252.544 18.1443C252.541 18.0765 252.539 18.0084 252.539 17.9399C252.539 15.3147 254.668 13.1865 257.294 13.1865C257.363 13.1865 257.431 13.188 257.499 13.1908C257.5 13.1909 257.501 13.1899 257.501 13.1887C257.501 13.1875 257.502 13.1865 257.503 13.1865L274.45 13.1865C274.451 13.1865 274.452 13.1875 274.452 13.1888C274.452 13.19 274.453 13.191 274.454 13.191C276.983 13.3003 279 15.3846 279 17.9399C279 18.0084 278.999 18.0765 278.996 18.1443C278.996 18.1455 278.997 18.1465 278.998 18.1465C278.998 18.1465 278.999 18.1468 278.999 18.1472C279 18.1476 279 18.1481 279 18.1487V37.979C279 38.4398 278.627 38.8133 278.167 38.8133H274.872ZM257.501 20.2132V24.3389C257.501 24.7997 257.874 25.1733 258.334 25.1733H273.206C273.666 25.1733 274.039 24.7997 274.039 24.3389V20.2132C274.039 18.6153 272.743 17.3199 271.145 17.3199H260.395C258.797 17.3199 257.501 18.6153 257.501 20.2132Z" fill="white"/>
<path d="M223.175 13.1865C223.417 13.1865 223.646 13.2936 223.803 13.4795L238.441 30.8874C238.939 31.4776 239.894 31.1216 239.894 30.346V14.0209C239.894 13.5601 240.263 13.1865 240.719 13.1865H243.983C244.439 13.1865 244.808 13.5601 244.808 14.0209V37.979C244.808 38.4398 244.439 38.8133 243.983 38.8133H239.925C239.908 38.8133 239.894 38.7994 239.894 38.7822C239.894 38.7746 239.891 38.7673 239.886 38.7617L225.003 21.4752C224.501 20.8946 223.556 21.2532 223.556 22.024V37.979C223.556 38.4398 223.187 38.8133 222.731 38.8133H219.446C218.99 38.8133 218.621 38.4398 218.621 37.979V14.0209C218.621 13.5601 218.99 13.1865 219.446 13.1865H223.175Z" fill="white"/>
<path d="M10.8095 39.6958C11.2165 39.2901 11.7683 39.0622 12.3436 39.0622H65.4272C66.3943 39.0622 66.8783 40.2288 66.1943 40.9106L55.7051 51.3664C55.2981 51.7721 54.7463 52 54.171 52H1.08738C0.120359 52 -0.363728 50.8335 0.320329 50.1516L10.8095 39.6958Z" fill="url(#paint0_linear)"/>
<path d="M10.8095 0.633566C11.2165 0.227884 11.7683 0 12.3436 0H65.4272C66.3943 0 66.8783 1.16655 66.1943 1.84843L55.7051 12.3042C55.2981 12.7099 54.7463 12.9378 54.171 12.9378H1.08738C0.120359 12.9378 -0.363728 11.7712 0.320329 11.0894L10.8095 0.633566Z" fill="url(#paint1_linear)"/>
<path d="M55.7051 20.0403C55.2981 19.6346 54.7463 19.4067 54.171 19.4067H1.08738C0.120358 19.4067 -0.363729 20.5732 0.320329 21.2551L10.8095 31.7109C11.2165 32.1166 11.7683 32.3445 12.3436 32.3445H65.4272C66.3943 32.3445 66.8783 31.1779 66.1943 30.4961L55.7051 20.0403Z" fill="url(#paint2_linear)"/>
<defs>
<linearGradient id="paint0_linear" x1="44.9678" y1="-14.2639" x2="8.36746" y2="56.0085" gradientUnits="userSpaceOnUse">
<stop stop-color="#00FFA3"/>
<stop offset="1" stop-color="#DC1FFF"/>
</linearGradient>
<linearGradient id="paint1_linear" x1="44.9678" y1="-14.2639" x2="8.36746" y2="56.0085" gradientUnits="userSpaceOnUse">
<stop stop-color="#00FFA3"/>
<stop offset="1" stop-color="#DC1FFF"/>
</linearGradient>
<linearGradient id="paint2_linear" x1="44.9678" y1="-14.2639" x2="8.36746" y2="56.0085" gradientUnits="userSpaceOnUse">
<stop stop-color="#00FFA3"/>
<stop offset="1" stop-color="#DC1FFF"/>
</linearGradient>
</defs>
</svg>
