<?xml version="1.0" encoding="UTF-8" standalone="no"?>
<!-- Created with Inkscape (http://www.inkscape.org/) -->

<svg
   width="1920"
   height="1920"
   viewBox="0 0 507.99999 508.00006"
   version="1.1"
   id="svg4130"
   inkscape:version="1.1 (c68e22c387, 2021-05-23)"
   sodipodi:docname="Telegram.svg"
   xmlns:inkscape="http://www.inkscape.org/namespaces/inkscape"
   xmlns:sodipodi="http://sodipodi.sourceforge.net/DTD/sodipodi-0.dtd"
   xmlns="http://www.w3.org/2000/svg"
   xmlns:svg="http://www.w3.org/2000/svg">
  <sodipodi:namedview
     id="namedview4132"
     pagecolor="#ffffff"
     bordercolor="#666666"
     borderopacity="1.0"
     inkscape:pageshadow="2"
     inkscape:pageopacity="0.0"
     inkscape:pagecheckerboard="0"
     inkscape:document-units="mm"
     showgrid="false"
     units="px"
     inkscape:zoom="0.22627417"
     inkscape:cx="932.49707"
     inkscape:cy="667.33203"
     inkscape:window-width="2560"
     inkscape:window-height="1346"
     inkscape:window-x="-11"
     inkscape:window-y="-11"
     inkscape:window-maximized="1"
     inkscape:current-layer="layer1" />
  <defs
     id="defs4127" />
  <g
     inkscape:label="Warstwa 1"
     inkscape:groupmode="layer"
     id="layer1">
    <path
       style="fill:#fbfbfb;stroke-width:0.281497;fill-opacity:1"
       d="m 407.96246,474.03813 c -0.85153,-0.10049 -2.01833,-0.3863 -2.59292,-0.63512 -0.57456,-0.24878 -27.83288,-20.13625 -60.57402,-44.19434 -32.74115,-24.05813 -60.64592,-44.37549 -62.0106,-45.14978 -2.82214,-1.60115 -8.19093,-3.16554 -10.81232,-3.15057 -2.21436,0.0127 -5.53479,0.48679 -7.13914,1.01947 -3.17057,1.05265 -7.67658,4.51648 -39.16905,30.10983 -17.47914,14.20497 -32.51244,26.36667 -33.40734,27.02597 -0.8949,0.65931 -2.31703,1.5363 -3.16031,1.94888 -1.44509,0.70701 -1.72374,0.74439 -4.84734,0.64993 -2.95087,-0.0892 -3.49117,-0.18717 -4.92958,-0.89351 -2.64123,-1.29699 -4.63002,-4.27323 -6.52372,-9.76284 -0.56079,-1.62565 -10.82679,-34.74684 -22.81335,-73.60263 -11.98656,-38.85578 -21.97376,-70.77752 -22.19378,-70.93719 -0.22,-0.15966 -27.66396,-10.54901 -60.986554,-23.08746 l -60.5865303,-22.7972 -1.667858,-1.50933 c -0.9173257,-0.83013 -1.9786328,-2.03961 -2.358471,-2.68774 -0.766308,-1.30762 -1.55295816,-4.60817 -1.55295816,-6.51574 0,-1.6456 0.99289306,-4.32323 1.93162536,-5.20916 0.7141379,-0.67399 7.1519489,-3.51847 20.8696171,-9.22105 3.32869,-1.38378 110.401979,-42.76097 237.940639,-91.94932 l 231.88847,-89.433357 3.04019,-0.160385 c 3.42297,-0.180575 5.16924,0.212028 7.24525,1.628895 3.69861,2.524325 4.61911,6.776331 3.13379,14.475772 -0.38827,2.012702 -19.78461,96.257815 -43.10293,209.433605 -29.56563,143.49712 -42.61104,206.28531 -43.10428,207.46313 -1.51985,3.62926 -3.93276,6.27175 -6.27073,6.86737 -1.42792,0.36377 -4.38535,0.49346 -6.2458,0.27387 z M 187.7166,385.3913 c 1.58916,-0.7693 3.85459,-3.49994 4.26082,-5.13577 0.16195,-0.65208 0.68881,-2.64238 1.1708,-4.42285 0.60636,-2.23984 1.39527,-7.00989 2.5606,-15.48232 5.11923,-37.219 4.81222,-35.58624 7.83063,-41.64534 1.8756,-3.76505 3.62478,-5.8164 11.91438,-13.97266 2.84489,-2.79911 46.15142,-43.3172 96.23673,-90.04018 72.1152,-67.27393 91.14199,-85.16395 91.43804,-85.97489 0.57819,-1.58381 0.72316,-3.77346 0.32887,-4.96811 -0.47316,-1.43373 -2.39112,-3.3019 -3.83182,-3.73238 -1.72343,-0.51495 -3.68606,-0.40942 -5.73802,0.30854 -2.70702,0.94715 -230.5159,141.27833 -234.18083,144.25632 -4.48752,3.64639 -7.44608,7.52866 -8.88422,11.65799 -0.23176,0.66546 -0.62629,2.66665 -0.87673,4.44712 -0.53088,3.77425 -0.40387,5.9851 0.57578,10.02357 0.83319,3.43471 25.04876,89.03166 25.64753,90.65862 0.66623,1.81025 2.43129,3.63663 3.99769,4.13657 2.06342,0.65856 2.32886,0.69462 4.37051,0.59347 1.22503,-0.0607 2.36847,-0.31521 3.17924,-0.7077 z"
       id="path2578" />
  </g>
  <style
     type="text/css"
     id="style7210">
	.st0{fill:#FFFFFF;}
	.st1{fill-rule:evenodd;clip-rule:evenodd;}
</style>
</svg>
