<?xml version="1.0" encoding="UTF-8" standalone="no"?>
<!-- Created with Inkscape (http://www.inkscape.org/) -->

<svg
   width="1920"
   height="1920"
   viewBox="0 0 507.99999 508.00006"
   version="1.1"
   id="svg4130"
   inkscape:version="1.1 (c68e22c387, 2021-05-23)"
   sodipodi:docname="Twitter.svg"
   xmlns:inkscape="http://www.inkscape.org/namespaces/inkscape"
   xmlns:sodipodi="http://sodipodi.sourceforge.net/DTD/sodipodi-0.dtd"
   xmlns="http://www.w3.org/2000/svg"
   xmlns:svg="http://www.w3.org/2000/svg">
  <sodipodi:namedview
     id="namedview4132"
     pagecolor="#ffffff"
     bordercolor="#666666"
     borderopacity="1.0"
     inkscape:pageshadow="2"
     inkscape:pageopacity="0.0"
     inkscape:pagecheckerboard="0"
     inkscape:document-units="mm"
     showgrid="false"
     units="px"
     inkscape:zoom="0.33540615"
     inkscape:cx="1273.0834"
     inkscape:cy="468.08922"
     inkscape:window-width="2560"
     inkscape:window-height="1346"
     inkscape:window-x="-11"
     inkscape:window-y="-11"
     inkscape:window-maximized="1"
     inkscape:current-layer="layer1" />
  <defs
     id="defs4127" />
  <g
     inkscape:label="Warstwa 1"
     inkscape:groupmode="layer"
     id="layer1">
    <path
       style="fill:#fbfbfb;stroke-width:0.266977;fill-opacity:1"
       d="m 147.60942,457.96302 c -4.09717,-0.1336 -11.32679,-0.63458 -15.35121,-1.06377 -5.92685,-0.63207 -13.25547,-1.56327 -16.68611,-2.12016 -1.24812,-0.20261 -3.11028,-0.49887 -4.13815,-0.65836 -6.42108,-0.99638 -19.634987,-3.88428 -26.297299,-5.74728 -0.660767,-0.18477 -2.402796,-0.66328 -3.871175,-1.06334 -1.46838,-0.40007 -2.970124,-0.82206 -3.337223,-0.93776 -0.36709,-0.11569 -1.92891,-0.60244 -3.470712,-1.08163 -5.135693,-1.59622 -12.749634,-4.1813 -15.61819,-5.30269 -0.440512,-0.17221 -1.641905,-0.61837 -2.669773,-0.99148 -1.027867,-0.37309 -2.109118,-0.78406 -2.402796,-0.91322 -0.293678,-0.12916 -2.706479,-1.13292 -5.361785,-2.23057 -2.655296,-1.09765 -5.658793,-2.37448 -6.674436,-2.83736 -1.015642,-0.46288 -2.267107,-1.03024 -2.781041,-1.26077 -2.033173,-0.91203 -14.409751,-7.05873 -16.419119,-8.15439 -1.174702,-0.64052 -2.796598,-1.52468 -3.6042,-1.96481 -1.806536,-0.98448 -8.048446,-4.59763 -9.0279377,-5.22583 -0.3942155,-0.25282 -1.183565,-0.73338 -1.7541124,-1.0679 -3.2054714,-1.87942 -5.2366048,-3.23465 -5.2366048,-3.49402 0,-0.13288 0.1611489,-0.17976 0.3581052,-0.10418 0.5066047,0.19442 4.6921533,0.64316 9.3865777,1.00638 5.216485,0.40361 23.896827,0.40681 29.367538,0.005 4.620185,-0.3393 9.724957,-0.89059 13.749347,-1.48488 1.394957,-0.206 3.497403,-0.51257 4.672104,-0.6813 2.288751,-0.32873 5.079777,-0.8405 7.87584,-1.44413 0.954445,-0.20605 2.456199,-0.51901 3.337223,-0.69542 0.881023,-0.17645 2.262635,-0.48142 3.070247,-0.67773 0.807601,-0.19631 2.309355,-0.55066 3.337213,-0.78745 6.02451,-1.38785 18.795294,-5.43862 24.027989,-7.62147 0.29368,-0.12251 1.91557,-0.77633 3.6042,-1.45294 1.68864,-0.6766 3.70427,-1.5231 4.47918,-1.88112 0.77491,-0.35802 1.46072,-0.65092 1.524,-0.65092 0.15016,0 5.2144,-2.39989 8.28012,-3.92386 5.03831,-2.50453 10.97882,-5.78997 15.75169,-8.71152 1.60555,-0.9828 11.4952,-7.53628 11.95595,-7.92272 0.17876,-0.14997 1.16599,-0.87369 2.19386,-1.60833 1.02786,-0.73461 2.58416,-1.90451 3.45843,-2.59977 l 1.58958,-1.26412 -0.92214,-0.0589 c -10.29934,-0.65821 -13.68128,-1.13097 -21.87988,-3.05868 -10.14446,-2.38521 -22.01562,-7.5968 -31.30763,-13.74446 -11.156602,-7.38127 -20.099417,-16.00473 -27.887126,-26.89122 -4.1072,-5.74148 -8.795083,-14.44456 -11.406829,-21.1768 -0.842844,-2.17259 -1.701395,-4.34469 -1.907882,-4.82687 -0.206486,-0.48222 -0.375428,-1.11437 -0.375428,-1.40478 0,-0.58754 0.01898,-0.58694 4.538616,0.14709 4.379749,0.71132 7.937137,0.93605 14.817262,0.93605 9.543618,0 13.219291,-0.40423 23.227057,-2.55441 3.0078,-0.64622 3.09918,-0.76278 1.02104,-1.30256 -7.525527,-1.95459 -13.625843,-3.98929 -18.241101,-6.08407 -1.85143,-0.84034 -7.342109,-3.54105 -8.009328,-3.93957 -0.220256,-0.13157 -1.564646,-0.90711 -2.987527,-1.72342 -2.417343,-1.38687 -7.891154,-4.98552 -8.954112,-5.88672 -0.260061,-0.22047 -0.849597,-0.67199 -1.310098,-1.00336 -7.652161,-5.50642 -18.074289,-16.70869 -23.536116,-25.29792 -0.606931,-0.95445 -1.228024,-1.88046 -1.380219,-2.05781 -0.152184,-0.17735 -0.276708,-0.37225 -0.276708,-0.4331 0,-0.0609 -0.638074,-1.17721 -1.417934,-2.48081 -1.220836,-2.04071 -4.547924,-8.62078 -5.281942,-10.44624 -0.132852,-0.33038 -0.356308,-0.87102 -0.49657,-1.2014 -1.796966,-4.23259 -4.100578,-11.16225 -5.03663,-15.15098 -1.589168,-6.77186 -1.985968,-9.27346 -2.583227,-16.28564 -0.434798,-5.1049 -0.526512,-9.97414 -0.185205,-9.83367 0.118921,0.049 1.710774,0.83036 3.53745,1.73646 3.583282,1.77745 6.84565,3.29162 7.092002,3.29162 0.08429,0 0.544966,0.1859 1.023779,0.41311 3.755273,1.782 13.163546,4.4788 20.301359,5.81922 3.498816,0.65704 13.6414,1.70696 13.908598,1.43976 0.06844,-0.0684 -0.209747,-0.33764 -0.618136,-0.59828 -2.973909,-1.89799 -9.85793,-7.5222 -13.517572,-11.04378 -1.636676,-1.57493 -6.830043,-7.31954 -8.478924,-9.37891 -2.529985,-3.15982 -6.812447,-9.3105 -8.08601,-11.61353 -0.243606,-0.44051 -0.695263,-1.22142 -1.00368,-1.73536 -0.887,-1.47803 -3.767831,-7.15874 -4.670994,-9.21073 -4.248582,-9.65273 -6.745021,-18.74832 -8.28024,-30.16846 -0.663726,-4.93731 -0.661333,-18.8647 0.004,-23.62752 0.804734,-5.76028 1.52148,-9.573925 2.508835,-13.348885 1.297176,-4.959573 1.460465,-5.534726 2.198017,-7.742353 1.699901,-5.088071 4.756126,-12.063862 7.368982,-16.819591 1.200091,-2.184323 1.40691,-2.399301 1.740161,-1.808759 0.142937,0.253302 0.725255,0.974142 1.294046,1.601866 0.568791,0.627723 1.495586,1.699501 2.059541,2.381728 8.71411,10.541622 24.696079,26.471465 34.906442,34.792594 0.894823,0.72926 1.785649,1.48007 1.979607,1.66846 0.193948,0.18841 1.515494,1.26428 2.936749,2.39083 1.421255,1.12655 3.124741,2.48018 3.785508,3.00807 0.660768,0.52788 1.681953,1.31619 2.269308,1.7518 0.587346,0.43559 1.248124,0.93681 1.46838,1.11381 0.792004,0.63643 4.267804,3.17692 5.59898,4.09233 0.747364,0.51393 1.554834,1.11463 1.794392,1.33489 0.239548,0.22025 0.82549,0.64075 1.302092,0.93442 0.476592,0.29367 3.130235,2.05077 5.896965,3.90466 5.262,3.52589 11.47396,7.44188 11.80508,7.44188 0.1064,0 0.34283,0.14938 0.52539,0.33194 0.18256,0.18256 1.09178,0.75323 2.02048,1.26814 4.74784,2.63244 7.00724,3.89541 7.40312,4.13824 0.76971,0.47214 16.8629,8.53044 18.25041,9.13847 0.73419,0.32174 1.93559,0.8419 2.66978,1.15592 1.41207,0.60397 2.66549,1.15631 4.73595,2.087 0.69588,0.3128 1.34875,0.56873 1.45082,0.56873 0.10209,0 0.67406,0.23425 1.27106,0.52055 1.07156,0.51388 7.4681,3.03094 9.77519,3.84657 0.65365,0.23109 2.20963,0.78959 3.45775,1.24114 2.9405,1.06381 8.56431,2.92922 11.61353,3.85218 1.32154,0.40001 2.76321,0.84895 3.20373,0.99762 0.44051,0.14868 1.64191,0.49428 2.66978,0.76801 1.02786,0.27373 2.70982,0.73961 3.73768,1.0353 1.02786,0.2957 3.37059,0.90679 5.20606,1.35798 1.83547,0.45121 3.99799,0.99056 4.80561,1.19857 0.8076,0.20801 2.12914,0.51028 2.93674,0.67171 0.80762,0.16143 2.18922,0.45989 3.07025,0.66322 0.88102,0.20335 2.38277,0.50532 3.33721,0.67107 0.95445,0.16574 2.51627,0.46097 3.47072,0.65607 6.21508,1.27042 18.72483,3.06651 25.09589,3.60314 1.83547,0.15461 5.25946,0.46079 7.60887,0.68041 2.3494,0.21962 4.73272,0.39848 5.29627,0.39746 l 1.02464,-0.002 -0.16849,-1.13466 c -0.0927,-0.62406 -0.33522,-1.91556 -0.53901,-2.87 -1.1883,-5.56529 -1.7431,-11.74587 -1.74262,-19.41306 5.3e-4,-7.42852 0.55304,-13.58641 1.73178,-19.2987 0.19695,-0.95445 0.50232,-2.4562 0.67863,-3.33722 0.48481,-2.42289 1.33067,-5.36507 3.03607,-10.56046 1.03641,-3.15734 2.68852,-7.46392 3.36407,-8.76913 0.12148,-0.23472 0.8546,-1.74829 1.62916,-3.36351 1.42037,-2.96196 4.49046,-8.438872 5.83654,-10.412121 0.40068,-0.587356 1.19753,-1.788759 1.77075,-2.669783 0.57325,-0.881029 1.11076,-1.661938 1.19444,-1.735357 0.0837,-0.07342 0.64918,-0.794258 1.25665,-1.601865 2.5804,-3.430428 3.55449,-4.612952 6.42736,-7.802637 3.9326,-4.366295 10.75832,-10.523065 14.72344,-13.280495 0.51393,-0.357401 0.99449,-0.722605 1.06791,-0.811561 0.0734,-0.08896 1.03454,-0.755518 2.13582,-1.481241 1.10128,-0.725722 2.12248,-1.411294 2.26931,-1.523489 0.62246,-0.475607 2.30477,-1.531362 2.44018,-1.531362 0.081,0 0.46606,-0.222403 0.85582,-0.494227 2.1375,-1.490717 12.65025,-6.714169 13.51296,-6.714169 0.20878,0 0.44498,-0.105796 0.52489,-0.2351 0.0799,-0.129306 0.41738,-0.297518 0.74994,-0.373804 0.33257,-0.07629 1.26542,-0.397148 2.07303,-0.713025 4.26688,-1.668885 12.00673,-3.825144 16.28563,-4.537042 1.10128,-0.183227 2.90338,-0.491832 4.00466,-0.685788 8.41516,-1.482086 22.118,-1.469848 31.1029,0.02777 1.32154,0.220278 3.12364,0.522032 4.00466,0.670565 0.88102,0.148531 2.26263,0.434293 3.07025,0.635025 0.8076,0.200733 2.24929,0.558285 3.20372,0.794563 2.0477,0.506908 5.67729,1.594863 7.74235,2.320738 0.80761,0.283874 2.18923,0.766295 3.07025,1.072051 0.88102,0.305754 1.716,0.661245 1.8555,0.789979 0.13949,0.128734 0.39787,0.234062 0.57418,0.234062 0.87176,0 12.53175,5.809264 13.74348,6.847325 0.23182,0.198589 0.50702,0.361071 0.61151,0.361071 0.10452,0 0.51556,0.222389 0.91341,0.494197 0.39785,0.271807 1.44339,0.962611 2.32343,1.535121 0.88004,0.572509 1.76042,1.191887 1.95641,1.376395 0.19599,0.184509 0.61731,0.474323 0.93623,0.644033 2.15209,1.145155 9.49304,7.361943 13.70394,11.605379 l 1.911,1.925757 3.16157,-0.668309 c 1.73886,-0.367572 3.64214,-0.77443 4.22944,-0.90413 1.54719,-0.341635 5.69165,-1.432196 9.07726,-2.388548 1.61522,-0.456251 3.31302,-0.928307 3.77296,-1.049019 0.45993,-0.120709 0.96671,-0.300152 1.12631,-0.398763 0.15951,-0.09861 1.10481,-0.403382 2.1006,-0.677267 0.99568,-0.273883 2.47119,-0.757519 3.2788,-1.074744 0.80761,-0.317226 1.96351,-0.732734 2.56871,-0.92335 1.17033,-0.368656 4.68264,-1.644654 5.57414,-2.025066 0.29367,-0.125319 2.87661,-1.21235 5.74,-2.415627 5.65903,-2.378162 12.78792,-5.801557 17.59705,-8.450461 1.67569,-0.922995 3.08518,-1.678173 3.13222,-1.678173 0.0475,0 0.8805,-0.486586 1.85216,-1.0813 0.97165,-0.594714 1.86053,-1.045238 1.97531,-1.001166 0.29821,0.114566 -1.61118,5.718512 -3.02925,8.890396 -1.17194,2.62145 -4.83416,9.8925 -5.02011,9.967163 -0.12195,0.04895 -0.22179,0.210883 -0.22179,0.359862 0,0.680686 -6.1222,9.981618 -7.96396,12.099095 -0.25551,0.293676 -0.87909,1.074585 -1.38576,1.735354 -2.31452,3.018076 -7.64445,8.647491 -11.16443,11.791688 -4.38745,3.91902 -7.56601,6.39843 -11.96507,9.33336 -1.67852,1.11988 -3.13605,2.12031 -3.23892,2.22319 -0.23684,0.2368 2.66421,-0.0434 5.28269,-0.51028 1.10128,-0.19635 2.96353,-0.49795 4.1382,-0.67024 2.04144,-0.29939 3.41256,-0.5647 7.87583,-1.52393 2.78454,-0.59844 7.03561,-1.59961 8.94369,-2.10633 0.88111,-0.23397 2.02236,-0.53585 2.53631,-0.67087 1.95876,-0.51455 8.97367,-2.60867 9.61118,-2.86916 0.36716,-0.15 1.68872,-0.5907 2.93678,-0.97936 1.24816,-0.38864 2.64786,-0.87841 3.11062,-1.08837 0.46266,-0.20995 0.97489,-0.38174 1.13822,-0.38174 0.16334,0 0.50567,-0.10781 0.76067,-0.23957 0.25491,-0.13176 1.00417,-0.4465 1.665,-0.6994 0.66072,-0.25292 1.44158,-0.56007 1.73525,-0.68258 0.29377,-0.12251 1.91566,-0.78157 3.60427,-1.4646 1.68862,-0.68303 3.19037,-1.331966 3.33715,-1.442094 0.30821,-0.231129 1.46844,-0.543071 1.46844,-0.394813 0,0.130782 -2.9821,4.403607 -5.26583,7.545067 -2.35893,3.24489 -4.46528,5.9405 -7.32261,9.37109 -0.7853,0.94295 -2.08869,2.51308 -2.8963,3.48918 -5.80703,7.01848 -19.24882,20.11366 -26.08475,25.41201 -0.50677,0.3928 -1.36254,1.07755 -1.90182,1.52168 -1.5066,1.24085 -4.08995,3.23437 -6.03236,4.6551 l -1.75605,1.28439 -0.0101,13.1324 c 0,7.22281 -0.12629,14.39386 -0.26954,15.93565 -0.14335,1.5418 -0.38109,4.48522 -0.52828,6.54096 -0.50244,7.01831 -0.87151,10.44697 -1.72415,16.01865 -0.20221,1.32154 -0.50779,3.48406 -0.6791,4.80559 -0.17122,1.32155 -0.47205,3.24379 -0.6683,4.27164 -0.19635,1.02787 -0.54615,2.89004 -0.77712,4.13817 -0.70596,3.81258 -1.177,6.15943 -1.76847,8.81025 -0.31124,1.39496 -0.78167,3.55748 -1.04546,4.80561 -0.69424,3.28584 -1.87295,7.8903 -2.72851,10.65902 -0.15537,0.50289 -0.50355,1.76436 -0.77359,2.80326 -0.70141,2.69818 -1.27038,4.72192 -1.54436,5.49312 -0.13043,0.3671 -0.39159,1.20808 -0.58037,1.86884 -0.49971,1.74922 -3.87351,11.89549 -4.52747,13.61586 -0.30699,0.80761 -0.73826,2.00902 -0.95843,2.66978 -0.22008,0.66077 -0.51385,1.44168 -0.65275,1.73536 -0.13891,0.29367 -0.53828,1.31486 -0.88747,2.26931 -0.81642,2.23163 -2.2145,5.78 -2.68238,6.80792 -0.822,1.80597 -1.22324,2.75893 -1.22324,2.90522 0,0.0851 -0.48056,1.18058 -1.06791,2.43434 -0.58735,1.25375 -1.06791,2.33877 -1.06791,2.41115 0,0.36865 -8.50339,17.66137 -10.62968,21.61683 -0.71863,1.33684 -2.88171,5.20815 -3.3856,6.05928 -0.1474,0.24901 -0.98886,1.67706 -1.86989,3.17348 -0.88103,1.49641 -1.86932,3.15482 -2.19621,3.68541 -0.32689,0.53056 -0.86752,1.43148 -1.2014,2.00204 -0.91472,1.56309 -1.08913,1.83822 -1.7417,2.74706 -0.3304,0.46014 -0.60071,0.91331 -0.60071,1.00704 0,0.0937 -0.48055,0.82093 -1.06791,1.616 -0.58735,0.79505 -1.06791,1.51213 -1.06791,1.59347 0,0.15128 -2.13237,3.37106 -2.39252,3.61259 -0.079,0.0734 -1.14541,1.61606 -2.36964,3.42812 -1.22423,1.81206 -2.39073,3.49402 -2.59224,3.73769 -0.20152,0.24367 -0.9768,1.28403 -1.72284,2.31189 -0.74604,1.02787 -1.51157,2.05685 -1.70118,2.28661 -0.18961,0.22979 -0.86575,1.12304 -1.50255,1.98504 -0.63679,0.86198 -1.3104,1.75524 -1.49694,1.98503 -1.51337,1.8643 -2.79727,3.49701 -3.65514,4.64808 -0.55764,0.74826 -1.10844,1.42409 -1.22396,1.50183 -0.11552,0.0777 -0.80058,0.86927 -1.52236,1.75893 -9.6533,11.89855 -24.77921,27.03698 -36.95977,36.99031 -0.82854,0.67705 -1.79689,1.47801 -2.15189,1.77994 -0.355,0.30189 -1.66664,1.34484 -2.91475,2.31763 -1.24813,0.97281 -3.23044,2.52152 -4.40514,3.44164 -1.1747,0.92008 -2.67645,2.05268 -3.33721,2.51687 -0.66078,0.46419 -1.86217,1.32482 -2.66979,1.91249 -1.6037,1.16696 -13.82722,9.41094 -14.27417,9.62701 -0.61658,0.29808 -2.95501,1.72094 -3.07937,1.8737 -0.25683,0.31549 -12.22293,7.06983 -15.35122,8.6651 -1.02785,0.52417 -2.04905,1.06826 -2.2693,1.20907 -0.60326,0.3857 -10.48068,5.08411 -14.08307,6.69892 -0.62406,0.27973 -1.65316,0.7489 -2.28685,1.04257 -0.63372,0.29368 -1.23574,0.53396 -1.3378,0.53396 -0.10209,0 -0.75495,0.25223 -1.45083,0.56057 -2.62149,1.16144 -4.74725,2.01853 -8.34015,3.36274 -5.04617,1.88794 -6.88469,2.53448 -11.34655,3.99012 -2.49624,0.81439 -4.95911,1.64063 -5.47304,1.83612 -0.86016,0.32715 -5.83573,1.76426 -9.34421,2.69889 -0.80761,0.21513 -2.60971,0.70069 -4.00466,1.07902 -1.39496,0.37834 -3.07692,0.80507 -3.73769,0.94833 -1.22011,0.26452 -1.71603,0.37785 -4.8056,1.09824 -1.88674,0.43993 -5.90559,1.28424 -9.07725,1.90699 -4.62596,0.90831 -6.11796,1.17693 -8.14281,1.46587 -1.1747,0.16764 -3.15701,0.47085 -4.40513,0.67375 -1.24812,0.20292 -3.35057,0.49946 -4.67211,0.65898 -1.32154,0.15949 -3.66427,0.46863 -5.20606,0.68695 -1.54179,0.21834 -3.22376,0.39471 -3.73769,0.39199 -0.51393,-0.003 -2.49624,0.17014 -4.40513,0.38423 -6.95077,0.7795 -12.02182,0.98709 -26.03032,1.06561 -7.85581,0.044 -15.42463,0.0428 -16.81959,-0.003 z"
       id="path1835" />
  </g>
  <style
     type="text/css"
     id="style7210">
	.st0{fill:#FFFFFF;}
	.st1{fill-rule:evenodd;clip-rule:evenodd;}
</style>
</svg>
