<?xml version="1.0" encoding="UTF-8" standalone="no"?>
<!-- Generator: Adobe Illustrator 25.4.1, SVG Export Plug-In . SVG Version: 6.00 Build 0)  -->

<svg
   version="1.1"
   x="0px"
   y="0px"
   viewBox="0 0 1920 1920"
   style="enable-background:new 0 0 1920 1920;"
   xml:space="preserve"
   id="svg962"
   sodipodi:docname="User friendly.svg"
   inkscape:version="1.1 (c68e22c387, 2021-05-23)"
   xmlns:inkscape="http://www.inkscape.org/namespaces/inkscape"
   xmlns:sodipodi="http://sodipodi.sourceforge.net/DTD/sodipodi-0.dtd"
   xmlns:xlink="http://www.w3.org/1999/xlink"
   xmlns="http://www.w3.org/2000/svg"
   xmlns:svg="http://www.w3.org/2000/svg"><defs
   id="defs966"><filter
     style="color-interpolation-filters:sRGB"
     id="filter22578-2"
     inkscape:label="SHADE"
     x="-0.041213467"
     y="-0.050988649"
     width="1.0857566"
     height="1.1270054"><feGaussianBlur
       stdDeviation="23"
       id="feGaussianBlur22580-6" /><feOffset
       dx="0"
       dy="22.840690978886741"
       id="feOffset22888-4" /></filter><linearGradient
     id="SVGID_1_-8"
     gradientUnits="userSpaceOnUse"
     x1="960"
     y1="-2.5870389e-07"
     x2="960"
     y2="1920"
     gradientTransform="translate(5.4035706e-6)"><stop
       offset="0"
       style="stop-color:#319984"
       id="stop41691-4" /><stop
       offset="1"
       style="stop-color:#278A75"
       id="stop41693-5" /></linearGradient></defs><sodipodi:namedview
   id="namedview964"
   pagecolor="#ffffff"
   bordercolor="#666666"
   borderopacity="1.0"
   inkscape:pageshadow="2"
   inkscape:pageopacity="0.0"
   inkscape:pagecheckerboard="0"
   showgrid="false"
   inkscape:zoom="0.32"
   inkscape:cx="845.3125"
   inkscape:cy="556.25"
   inkscape:window-width="2560"
   inkscape:window-height="1346"
   inkscape:window-x="-11"
   inkscape:window-y="-11"
   inkscape:window-maximized="1"
   inkscape:current-layer="layer15" />
<style
   type="text/css"
   id="style896">
	.st0{fill:url(#SVGID_1_);}
	.st1{display:none;}
	.st2{display:inline;}
	.st3{fill:#151129;}
	.st4{fill:none;stroke:#151129;stroke-width:10;stroke-miterlimit:10;}
	.st5{fill:none;stroke:#8978BE;stroke-width:10;stroke-miterlimit:10;}
	.st6{fill:none;stroke:#8978BE;stroke-width:9.9997;stroke-miterlimit:10;}
	.st7{display:inline;fill:#151129;}
</style>
<g
   id="Warstwa_1">
</g>

<g
   id="Warstwa_8"
   class="st1">
	<g
   class="st2"
   id="g909">
		
			<image
   style="overflow:visible;"
   width="1780"
   height="1780"
   xlink:href="99C7610D.png"
   transform="matrix(0.24 0 0 0.24 457.9697 132.2069)"
   id="image907">
		</image>
	</g>
	<g
   class="st2"
   id="g913">
		
			<image
   style="overflow:visible;"
   width="2093"
   height="2093"
   xlink:href="99C7610F.png"
   transform="matrix(0.24 0 0 0.24 426.0497 -171.6331)"
   id="image911">
		</image>
	</g>
</g>
<g
   id="Warstwa_9">
</g>



<g
   id="Warstwa_4"
   class="st1">
	<polygon
   class="st7"
   points="1128.1,164.4 831.4,937.2 1205.6,937.6 1205.6,1588.5 1487.6,782.3 1127.7,782.3  "
   id="polygon950" />
</g>

<g
   inkscape:groupmode="layer"
   id="layer1"
   inkscape:label="Layer 1"
   sodipodi:insensitive="true"><g
     id="g40023"
     transform="translate(581.75,-1609.275)"><g
       id="Warstwa_1-9">
</g><g
       id="Warstwa_3-2">
	<linearGradient
   id="SVGID_1_-9"
   gradientUnits="userSpaceOnUse"
   x1="961.97412"
   y1="-30.6724"
   x2="961.97412"
   y2="1968.1064">
		<stop
   offset="0"
   style="stop-color:#8978BE"
   id="stop39954" />
		<stop
   offset="1"
   style="stop-color:#7666AE"
   id="stop39956" />
	</linearGradient>
	
</g><g
       id="Warstwa_8-2"
       class="st1">
	<g
   class="st2"
   id="g39964">
		
			<image
   style="overflow:visible"
   width="6168"
   height="1780"
   xlink:href="6A3FAC53.png"
   transform="matrix(0.24,0,0,0.24,233.28,924)"
   id="image39962">
		</image>
	</g>
	<g
   class="st2"
   id="g39968">
		
			<image
   style="overflow:visible"
   width="6475"
   height="2093"
   xlink:href="6A3FAC51.png"
   transform="matrix(0.24,0,0,0.24,201.36,620.16)"
   id="image39966">
		</image>
	</g>
</g><g
       id="Warstwa_5"
       class="st1">
	<polygon
   class="st3"
   points="1677.5,1160.6 1371.2,960 269.5,960 269.5,1114.3 575.6,1315 1677.5,1315 "
   id="polygon39971" />
	<g
   class="st2"
   id="g39979">
		<polygon
   class="st4"
   points="1682.8,1049.9 581.2,1049.9 274,847.7 274,692.8 1375.7,692.8 1682.8,894 "
   id="polygon39973" />
		<polyline
   class="st4"
   points="581.2,1049.9 581.3,894.4 274,692.8   "
   id="polyline39975" />
		<line
   class="st4"
   x1="1682.8"
   y1="894"
   x2="581.29999"
   y2="894.40002"
   id="line39977" />
	</g>
</g><g
       id="Warstwa_6">
</g><g
       id="Warstwa_7">
</g><g
       id="Warstwa_4-5">
</g><g
       id="Warstwa_2">
	<g
   id="g39987">
		
			
	</g>
	
</g></g><rect
     y="0"
     class="st0"
     width="1920"
     height="1920"
     id="rect43975"
     x="0"
     style="fill:url(#SVGID_1_)" /></g><g
   inkscape:groupmode="layer"
   id="layer15"
   inkscape:label="Layer 3"><g
     id="g44212"
     style="enable-background:new 0 0 1920 1920;filter:url(#filter22578-2)"><g
       id="g44186">
	<linearGradient
   id="linearGradient44184"
   gradientUnits="userSpaceOnUse"
   x1="960"
   y1="-2.5870389e-07"
   x2="960"
   y2="1920">
		<stop
   offset="0"
   style="stop-color:#319984"
   id="stop44180" />
		<stop
   offset="1"
   style="stop-color:#278A75"
   id="stop44182" />
	</linearGradient>
	
</g><g
       id="g44190"
       class="st1">
	
		<image
   style="display:inline;overflow:visible"
   width="1920"
   height="1920"
   xlink:href="icon5.png"
   transform="translate(-2669.3447)"
   id="image44188">
	</image>
</g><g
       id="g44192">
</g><g
       id="g44210">
	<g
   id="g44208">
		<path
   class="st2"
   d="m 1457.7,478.8 v 333.3 l -125.2,0.5 c -44.6,-2 -52.7,39.8 -52.2,49.7 v 209.4 H 355.4 c -15.2,0 -27.6,-12.4 -27.6,-27.6 V 478.8 c 0,-15.3 12.4,-27.6 27.6,-27.6 h 1074.7 c 15.3,0 27.6,12.3 27.6,27.6 z"
   id="path44194"
   style="stroke:none;fill:#1b5a51;fill-opacity:1" />
		<g
   id="g44206">
			<path
   class="st3"
   d="m 1280.3,1106.6 h -951 c -24.9,0 -45,-20.2 -45,-45 V 458.8 c 0,-24.9 20.2,-45 45,-45 h 1126.5 c 24.9,0 45,20.2 45,45 0,110.6 0,242.9 0,353.5"
   id="path44196"
   style="stroke:#1b5a51;stroke-opacity:1" />
			<path
   class="st4"
   d="M 1021.4,1290.1 H 764.1 c 12.9,-7.1 32.4,-20.1 48.8,-42.4 32.7,-44.4 29.9,-93.3 28.6,-107.6 33.8,0 67.6,0 101.4,0 -1.1,15.3 -2.4,64.2 30.8,108.3 16.1,21.5 34.8,34.4 47.7,41.7 z"
   id="path44198"
   style="stroke:none;fill:#1b5a51;fill-opacity:1" />
			<g
   id="g44204">
				<path
   class="st5"
   d="m 1635.8,867.7 v 613.8 c 0,13.6 -11.1,24.7 -24.7,24.7 h -272.4 c -13.6,0 -24.7,-11.1 -24.7,-24.7 V 867.7 c 0,-13.6 11.1,-24.7 24.7,-24.7 h 272.4 c 13.6,0 24.7,11.1 24.7,24.7 z"
   id="path44200"
   style="stroke:#1b5a51;stroke-opacity:1" />
				<path
   class="st2"
   d="m 1603.9,861.7 h -258 c -7.5,0 -13.5,6 -13.5,13.5 v 599.2 c 0,7.4 6,13.5 13.5,13.5 h 258 c 7.4,0 13.5,-6.1 13.5,-13.5 V 875.2 c 0,-7.5 -6,-13.5 -13.5,-13.5 z m -244.7,36.5 c -6.1,0 -11,-4.9 -11,-11 0,-6.1 4.9,-11 11,-11 6.1,0 11,4.9 11,11 0.1,6.1 -4.9,11 -11,11 z"
   id="path44202"
   style="stroke:none;fill:#1b5a51;fill-opacity:1" />
			</g>
		</g>
	</g>
</g></g></g><g
   inkscape:groupmode="layer"
   id="layer14"
   inkscape:label="Layer 2"
   style="display:inline"
   sodipodi:insensitive="true"><g
     id="g44023"><g
       id="Warstwa_1-8">
	<linearGradient
   id="SVGID_1_"
   gradientUnits="userSpaceOnUse"
   x1="960"
   y1="-2.5870389e-07"
   x2="960"
   y2="1920">
		<stop
   offset="0"
   style="stop-color:#319984"
   id="stop43970" />
		<stop
   offset="1"
   style="stop-color:#278A75"
   id="stop43972" />
	</linearGradient>
	
</g><g
       id="Warstwa_3"
       class="st1">
	
		<image
   style="display:inline;overflow:visible"
   width="1920"
   height="1920"
   xlink:href="icon5.png"
   transform="translate(-2669.3447)"
   id="image43978">
	</image>
</g><g
       id="Warstwa_2-5">
</g><g
       id="Warstwa_4-3">
	<g
   id="g43996">
		<path
   class="st2"
   d="m 1457.7,478.8 v 333.3 l -125.2,0.5 c -44.6,-2 -52.7,39.8 -52.2,49.7 v 209.4 H 355.4 c -15.2,0 -27.6,-12.4 -27.6,-27.6 V 478.8 c 0,-15.3 12.4,-27.6 27.6,-27.6 h 1074.7 c 15.3,0 27.6,12.3 27.6,27.6 z"
   id="path43982"
   style="stroke:none" />
		<g
   id="g43994">
			<path
   class="st3"
   d="m 1280.3,1106.6 h -951 c -24.9,0 -45,-20.2 -45,-45 V 458.8 c 0,-24.9 20.2,-45 45,-45 h 1126.5 c 24.9,0 45,20.2 45,45 0,110.6 0,242.9 0,353.5"
   id="path43984" />
			<path
   class="st4"
   d="M 1021.4,1290.1 H 764.1 c 12.9,-7.1 32.4,-20.1 48.8,-42.4 32.7,-44.4 29.9,-93.3 28.6,-107.6 33.8,0 67.6,0 101.4,0 -1.1,15.3 -2.4,64.2 30.8,108.3 16.1,21.5 34.8,34.4 47.7,41.7 z"
   id="path43986"
   style="stroke:none" />
			<g
   id="g43992">
				<path
   class="st5"
   d="m 1635.8,867.7 v 613.8 c 0,13.6 -11.1,24.7 -24.7,24.7 h -272.4 c -13.6,0 -24.7,-11.1 -24.7,-24.7 V 867.7 c 0,-13.6 11.1,-24.7 24.7,-24.7 h 272.4 c 13.6,0 24.7,11.1 24.7,24.7 z"
   id="path43988" />
				<path
   class="st2"
   d="m 1603.9,861.7 h -258 c -7.5,0 -13.5,6 -13.5,13.5 v 599.2 c 0,7.4 6,13.5 13.5,13.5 h 258 c 7.4,0 13.5,-6.1 13.5,-13.5 V 875.2 c 0,-7.5 -6,-13.5 -13.5,-13.5 z m -244.7,36.5 c -6.1,0 -11,-4.9 -11,-11 0,-6.1 4.9,-11 11,-11 6.1,0 11,4.9 11,11 0.1,6.1 -4.9,11 -11,11 z"
   id="path43990"
   style="stroke:none" />
			</g>
		</g>
	</g>
</g></g></g><style
   type="text/css"
   id="style39951">
	.st0{fill:url(#SVGID_1_);}
	.st1{display:none;}
	.st2{display:inline;}
	.st3{display:inline;fill:#151129;}
	.st4{fill:none;stroke:#151129;stroke-width:10;stroke-miterlimit:10;}
	.st5{fill:#151129;}
</style><style
   type="text/css"
   id="style40371">
	.st0{fill:url(#SVGID_1_);}
	.st1{display:none;}
	.st2{display:inline;}
	.st3{display:inline;fill:#151129;}
	.st4{fill:none;stroke:#151129;stroke-width:10;stroke-miterlimit:10;}
	.st5{fill:#151129;}
</style><style
   type="text/css"
   id="style896-5">
	.st0{fill:url(#SVGID_1_);}
	.st1{display:none;}
	.st2{display:inline;}
	.st3{fill:#151129;}
	.st4{fill:none;stroke:#151129;stroke-width:10;stroke-miterlimit:10;}
	.st5{fill:none;stroke:#8978BE;stroke-width:10;stroke-miterlimit:10;}
	.st6{fill:none;stroke:#8978BE;stroke-width:9.9997;stroke-miterlimit:10;}
	.st7{display:inline;fill:#151129;}
</style><style
   type="text/css"
   id="style39951-2">
	.st0{fill:url(#SVGID_1_);}
	.st1{display:none;}
	.st2{display:inline;}
	.st3{display:inline;fill:#151129;}
	.st4{fill:none;stroke:#151129;stroke-width:10;stroke-miterlimit:10;}
	.st5{fill:#151129;}
</style><style
   type="text/css"
   id="style40371-3">
	.st0{fill:url(#SVGID_1_);}
	.st1{display:none;}
	.st2{display:inline;}
	.st3{display:inline;fill:#151129;}
	.st4{fill:none;stroke:#151129;stroke-width:10;stroke-miterlimit:10;}
	.st5{fill:#151129;}
</style><style
   type="text/css"
   id="style41029">
	.st0{fill:url(#SVGID_1_);}
	.st1{fill:none;stroke:#15112A;stroke-width:50;stroke-miterlimit:10;}
	.st2{fill:none;stroke:#15112A;stroke-width:23;stroke-miterlimit:10;}
	.st3{fill:#15112A;}
</style><style
   type="text/css"
   id="style41278">
	.st0{fill:url(#SVGID_1_);}
	.st1{fill:none;stroke:#15112A;stroke-width:50;stroke-miterlimit:10;}
	.st2{fill:none;stroke:#15112A;stroke-width:23;stroke-miterlimit:10;}
	.st3{fill:#15112A;}
</style><style
   type="text/css"
   id="style41488">
	.st0{fill:url(#SVGID_1_);}
	.st1{fill:none;stroke:#15112A;stroke-width:23;stroke-miterlimit:10;}
	.st2{fill:#15112A;}
	.st3{fill:none;stroke:#15112A;stroke-width:50;stroke-miterlimit:10;}
</style><style
   type="text/css"
   id="style41689">
	.st0{fill:url(#SVGID_1_);}
	.st1{fill:none;stroke:#15112A;stroke-width:23;stroke-miterlimit:10;}
	.st2{fill:#15112A;}
	.st3{fill:none;stroke:#15112A;stroke-width:50;stroke-miterlimit:10;}
</style><style
   type="text/css"
   id="style43968">
	.st0{fill:url(#SVGID_1_);}
	.st1{display:none;}
	.st2{fill:#16122A;}
	.st3{fill:none;stroke:#16122A;stroke-width:30;stroke-miterlimit:10;}
	.st4{fill:#141028;}
	.st5{fill:none;stroke:#16122A;stroke-width:13;stroke-miterlimit:10;}
</style></svg>
