<?xml version="1.0" encoding="UTF-8" standalone="no"?>
<!-- Created with Inkscape (http://www.inkscape.org/) -->

<svg
   width="1920"
   height="1579"
   viewBox="0 0 507.99999 417.77716"
   version="1.1"
   id="svg5"
   inkscape:version="1.1 (c68e22c387, 2021-05-23)"
   sodipodi:docname="Verical Synthetify white.svg"
   xmlns:inkscape="http://www.inkscape.org/namespaces/inkscape"
   xmlns:sodipodi="http://sodipodi.sourceforge.net/DTD/sodipodi-0.dtd"
   xmlns="http://www.w3.org/2000/svg"
   xmlns:svg="http://www.w3.org/2000/svg">
  <sodipodi:namedview
     id="namedview7"
     pagecolor="#ffffff"
     bordercolor="#666666"
     borderopacity="1.0"
     inkscape:pageshadow="2"
     inkscape:pageopacity="0.0"
     inkscape:pagecheckerboard="0"
     inkscape:document-units="mm"
     showgrid="false"
     units="px"
     width="1920px"
     inkscape:zoom="0.16770307"
     inkscape:cx="1586.1367"
     inkscape:cy="727.47624"
     inkscape:window-width="2560"
     inkscape:window-height="1346"
     inkscape:window-x="-11"
     inkscape:window-y="-11"
     inkscape:window-maximized="1"
     inkscape:current-layer="layer1" />
  <defs
     id="defs2" />
  <g
     inkscape:label="Warstwa 1"
     inkscape:groupmode="layer"
     id="layer1">
    <g
       style="clip-rule:evenodd;fill:#ffffff;fill-rule:evenodd;stroke-linejoin:round;stroke-miterlimit:2"
       id="g6386"
       transform="matrix(0.5235285,0,0,0.5235285,-7.7569964,-52.882655)">
      <g
         transform="matrix(4.6075,0,-1.60927,4.6075,-718.738,-4931)"
         id="g6353"
         style="fill:#ffffff">
        <g
   id="g6351"
   style="fill:#ffffff">
            <g
   transform="matrix(0.983552,0,0.343527,0.983552,-743.563,14.8473)"
   id="g6307"
   style="fill:#ffffff">
                <path
   d="m 1096.91,1167.72 c -2.04,2.25 -4.23,4.05 -6.63,5.49 -6.52,3.92 -14.72,5.19 -26.37,5.31 h -2.96 0.01 -64.324 l -42.262,27.19 c 0,0 101.686,0 101.686,0 16.51,-0.06 31.21,-10.94 36.79,-26.48 1.51,-4.2 2.87,-8.06 4.06,-11.51 z m -101.03,-33.7 h 79.06 c 4.81,-0.02 9.33,2.29 12.13,6.2 2.79,3.91 3.52,8.93 1.95,13.48 0,0 0,0 0,0 -1.94,5.63 -7.23,9.75 -13.19,9.77 h -93.558 c -3.731,-0.12 -7.208,-1.96 -9.405,-5 -2.282,-3.15 -2.903,-7.21 -1.668,-10.91 l 8.235,-24.62 c 4.09,7.61 12.326,10.99 16.446,11.08 z m 70,-14.67 27.25,-23.6 h -87.76 c -3.92,0.01 -7.408,2.83 -8.69,6.54 0,0 0,0 0,0 -1.363,3.94 -0.731,8.29 1.693,11.68 2.427,3.39 6.347,5.4 10.507,5.38 24.29,-0.09 36.17,-0.01 57,0 z"
   style="fill:#ffffff"
   id="path6305" />

            </g>

            <g
   transform="matrix(0.781016,0,0.272787,0.781016,-685.216,491.027)"
   id="g6349"
   style="fill:#ffffff">
                <g
   transform="matrix(50,0,0,50,1298.75,980.644)"
   id="g6311"
   style="fill:#ffffff">
                    <path
   d="m 0.365,0.005 c 0.2,0 0.292,-0.103 0.294,-0.205 C 0.662,-0.328 0.573,-0.397 0.371,-0.424 0.216,-0.445 0.224,-0.489 0.225,-0.507 c 0.004,-0.054 0.08,-0.062 0.126,-0.062 0.056,0.001 0.129,0.013 0.136,0.081 h 0.145 c -0.007,-0.131 -0.11,-0.216 -0.277,-0.217 -0.163,0 -0.27,0.075 -0.279,0.196 -0.014,0.183 0.203,0.214 0.274,0.224 0.091,0.013 0.129,0.031 0.145,0.045 0.012,0.01 0.018,0.024 0.018,0.04 0,0.065 -0.104,0.068 -0.148,0.068 -0.119,0 -0.155,-0.055 -0.164,-0.081 H 0.047 c 0.011,0.16 0.18,0.218 0.318,0.218 z"
   style="fill:#ffffff;fill-rule:nonzero"
   id="path6309" />

                </g>

                <g
   transform="matrix(50,0,0,50,1334.05,980.644)"
   id="g6315"
   style="fill:#ffffff">
                    <path
   d="M 0.005,-0.544 0.239,-0.098 0.081,0.204 H 0.22 L 0.613,-0.544 H 0.467 L 0.309,-0.233 0.151,-0.544 Z"
   style="fill:#ffffff;fill-rule:nonzero"
   id="path6313" />

                </g>

                <g
   transform="matrix(50,0,0,50,1364.95,980.644)"
   id="g6319"
   style="fill:#ffffff">
                    <path
   d="m 0.078,0 h 0.126 v -0.302 c 0.001,-0.031 0.006,-0.07 0.045,-0.096 0.026,-0.017 0.059,-0.027 0.094,-0.027 0.09,0 0.112,0.043 0.112,0.127 V 0 h 0.126 v -0.317 c 0,-0.147 -0.083,-0.231 -0.228,-0.231 -0.072,0 -0.125,0.022 -0.16,0.044 L 0.184,-0.544 H 0.078 Z"
   style="fill:#ffffff;fill-rule:nonzero"
   id="path6317" />

                </g>

                <g
   transform="matrix(50,0,0,50,1397.9,980.644)"
   id="g6323"
   style="fill:#ffffff">
                    <path
   d="m 0.081,-0.143 c 0.012,0.089 0.068,0.147 0.153,0.147 0.096,0 0.143,-0.057 0.149,-0.066 L 0.314,-0.144 c 0,0 -0.028,0.026 -0.061,0.026 -0.008,0 -0.017,-0.001 -0.026,-0.006 C 0.202,-0.137 0.205,-0.171 0.205,-0.171 L 0.204,-0.426 h 0.11 v -0.12 h -0.11 l 0.001,-0.11 H 0.078 v 0.444 c 0,0.049 0.002,0.067 0.003,0.069 z"
   style="fill:#ffffff;fill-rule:nonzero"
   id="path6321" />

                </g>

                <g
   transform="matrix(50,0,0,50,1418.8,980.644)"
   id="g6327"
   style="fill:#ffffff">
                    <path
   d="m 0.204,0 v -0.297 c 0.001,-0.031 0.006,-0.07 0.045,-0.096 0.026,-0.018 0.059,-0.027 0.094,-0.027 0.09,0 0.112,0.043 0.112,0.127 V 0 h 0.126 v -0.317 c 0,-0.146 -0.083,-0.231 -0.227,-0.231 -0.066,0 -0.115,0.018 -0.15,0.037 v -0.23 H 0.078 V 0 Z"
   style="fill:#ffffff;fill-rule:nonzero"
   id="path6325" />

                </g>

                <g
   transform="matrix(50,0,0,50,1451.75,980.644)"
   id="g6331"
   style="fill:#ffffff">
                    <path
   d="m 0.323,0.005 c 0.096,0 0.177,-0.034 0.226,-0.095 L 0.467,-0.172 c -0.03,0.035 -0.08,0.059 -0.138,0.059 -0.081,0 -0.149,-0.039 -0.149,-0.101 H 0.577 L 0.581,-0.241 C 0.595,-0.334 0.575,-0.412 0.528,-0.466 0.481,-0.519 0.411,-0.547 0.323,-0.547 c -0.17,0 -0.276,0.106 -0.276,0.276 0,0.17 0.106,0.276 0.276,0.276 z M 0.314,-0.424 c 0.056,-0.001 0.098,0.013 0.121,0.04 0.014,0.017 0.023,0.038 0.026,0.064 H 0.178 c 0.008,-0.086 0.083,-0.103 0.136,-0.104 z"
   style="fill:#ffffff;fill-rule:nonzero"
   id="path6329" />

                </g>

                <g
   transform="matrix(50,0,0,50,1483.3,980.644)"
   id="g6335"
   style="fill:#ffffff">
                    <path
   d="m 0.081,-0.143 c 0.012,0.089 0.068,0.147 0.153,0.147 0.096,0 0.143,-0.057 0.149,-0.066 L 0.314,-0.144 c 0,0 -0.028,0.026 -0.061,0.026 -0.008,0 -0.017,-0.001 -0.026,-0.006 C 0.202,-0.137 0.205,-0.171 0.205,-0.171 L 0.204,-0.426 h 0.11 v -0.12 h -0.11 l 0.001,-0.11 H 0.078 v 0.444 c 0,0.049 0.002,0.067 0.003,0.069 z"
   style="fill:#ffffff;fill-rule:nonzero"
   id="path6333" />

                </g>

                <g
   transform="matrix(50,0,0,50,1504.2,980.644)"
   id="g6339"
   style="fill:#ffffff">
                    <path
   d="M 0.091,-0.544 V 0 H 0.217 V -0.544 Z M 0.087,-0.678 c 0,0.043 0.025,0.067 0.067,0.067 0.042,0 0.068,-0.024 0.067,-0.067 -0.001,-0.044 -0.025,-0.067 -0.067,-0.067 -0.044,0 -0.067,0.023 -0.067,0.067 z"
   style="fill:#ffffff;fill-rule:nonzero"
   id="path6337" />

                </g>

                <g
   transform="matrix(50,0,0,50,1519.6,980.644)"
   id="g6343"
   style="fill:#ffffff">
                    <path
   d="M 0.078,-0.53 V 0 H 0.204 V -0.425 H 0.315 V -0.544 H 0.204 v -0.028 c 0,0 -0.002,-0.033 0.022,-0.046 0.009,-0.005 0.018,-0.007 0.027,-0.007 0.033,0 0.06,0.027 0.06,0.027 L 0.382,-0.68 C 0.376,-0.689 0.329,-0.746 0.234,-0.746 c -0.085,0 -0.141,0.058 -0.153,0.147 -0.001,0.002 -0.003,0.02 -0.003,0.069 z"
   style="fill:#ffffff;fill-rule:nonzero"
   id="path6341" />

                </g>

                <g
   transform="matrix(50,0,0,50,1539.45,980.644)"
   id="g6347"
   style="fill:#ffffff">
                    <path
   d="M 0.005,-0.544 0.239,-0.098 0.081,0.204 H 0.22 L 0.613,-0.544 H 0.467 L 0.309,-0.233 0.151,-0.544 Z"
   style="fill:#ffffff;fill-rule:nonzero"
   id="path6345" />

                </g>

            </g>

        </g>

    </g>
    </g>
  </g>
</svg>
