<?xml version="1.0" encoding="UTF-8" standalone="no"?>
<!-- Created with Inkscape (http://www.inkscape.org/) -->

<svg
   width="1920"
   height="276"
   viewBox="0 0 507.99999 73.025003"
   version="1.1"
   id="svg5"
   inkscape:version="1.1 (c68e22c387, 2021-05-23)"
   sodipodi:docname="Synthetify Green-white.svg"
   xmlns:inkscape="http://www.inkscape.org/namespaces/inkscape"
   xmlns:sodipodi="http://sodipodi.sourceforge.net/DTD/sodipodi-0.dtd"
   xmlns="http://www.w3.org/2000/svg"
   xmlns:svg="http://www.w3.org/2000/svg">
  <sodipodi:namedview
     id="namedview7"
     pagecolor="#ffffff"
     bordercolor="#666666"
     borderopacity="1.0"
     inkscape:pageshadow="2"
     inkscape:pageopacity="0.0"
     inkscape:pagecheckerboard="0"
     inkscape:document-units="mm"
     showgrid="false"
     units="px"
     width="1920px"
     inkscape:zoom="0.33540614"
     inkscape:cx="1586.1367"
     inkscape:cy="295.16454"
     inkscape:window-width="2560"
     inkscape:window-height="1346"
     inkscape:window-x="-11"
     inkscape:window-y="-11"
     inkscape:window-maximized="1"
     inkscape:current-layer="layer1" />
  <defs
     id="defs2" />
  <g
     inkscape:label="Warstwa 1"
     inkscape:groupmode="layer"
     id="layer1">
    <g
       style="clip-rule:evenodd;fill:#ffffff;fill-rule:evenodd;stroke-linejoin:round;stroke-miterlimit:2"
       id="g845"
       transform="matrix(0.67208131,0,0,0.67208131,-23.828638,-1.7075908)">
      <g
         transform="translate(-950.829,-584.568)"
         id="g832"
         style="fill:#ffffff">
        <g
   transform="matrix(0.977677,0,0,0.977677,54.7154,-483.606)"
   id="g826"
   style="fill:#ffffff">
            <path
   d="m 1096.91,1167.72 c -2.04,2.25 -4.23,4.05 -6.63,5.49 -6.52,3.92 -14.72,5.19 -26.37,5.31 h -2.96 0.01 -64.324 l -42.262,27.19 c 0,0 101.686,0 101.686,0 16.51,-0.06 31.21,-10.94 36.79,-26.48 1.51,-4.2 2.87,-8.06 4.06,-11.51 z m -101.03,-33.7 h 79.06 c 4.81,-0.02 9.33,2.29 12.13,6.2 2.79,3.91 3.52,8.93 1.95,13.48 0,0 0,0 0,0 -1.94,5.63 -7.23,9.75 -13.19,9.77 h -93.558 c -3.731,-0.12 -7.208,-1.96 -9.405,-5 -2.282,-3.15 -2.903,-7.21 -1.668,-10.91 l 8.235,-24.62 c 4.09,7.61 12.326,10.99 16.446,11.08 z m 70,-14.67 27.25,-23.6 h -87.76 c -3.92,0.01 -7.408,2.83 -8.69,6.54 0,0 0,0 0,0 -1.363,3.94 -0.731,8.29 1.693,11.68 2.427,3.39 6.347,5.4 10.507,5.38 24.29,-0.09 36.17,-0.01 57,0 z"
   style="fill:#00f9bb;fill-opacity:1"
   id="path824" />

        </g>

        <g
   transform="translate(921.662,584.214)"
   id="g830"
   style="fill:#ffffff">
            <path
   d="m 758.354,30 23.334,44.436 -15.756,30.156 h 13.861 L 818.982,30 H 804.424 L 788.668,61.055 772.913,30 Z m -409.725,0 23.334,44.436 -15.756,30.156 h 13.861 L 409.257,30 H 394.699 L 378.943,61.055 363.188,30 Z m -34.516,54.744 c 19.949,0 29.117,-10.263 29.317,-20.436 0.299,-12.77 -8.57,-19.654 -28.719,-22.347 -15.465,-2.096 -14.667,-6.485 -14.568,-8.281 0.399,-5.388 7.983,-6.186 12.573,-6.186 5.587,0.1 12.871,1.297 13.57,8.081 h 14.453 c -0.697,-13.063 -10.962,-21.533 -27.624,-21.633 -16.26,0 -26.923,7.474 -27.82,19.538 -1.397,18.258 20.236,21.351 27.321,22.348 9.08,1.297 12.872,3.093 14.468,4.49 1.198,0.997 1.796,2.394 1.796,3.99 0,6.485 -10.377,6.785 -14.767,6.785 -11.874,0 -15.465,-5.488 -16.361,-8.082 h -15.35 c 1.097,15.954 17.941,21.733 31.711,21.733 z m 301.01,0 c 9.58,0 17.656,-3.387 22.539,-9.465 l -8.171,-8.183 c -2.992,3.495 -7.981,5.892 -13.769,5.892 -8.082,0 -14.867,-3.895 -14.867,-10.086 h 39.596 l 0.399,-2.69 c 1.396,-9.268 -0.598,-17.057 -5.281,-22.44 -4.683,-5.281 -11.665,-8.071 -20.446,-8.071 -16.959,0 -27.521,10.562 -27.521,27.522 0,16.96 10.562,27.521 27.521,27.521 z m 38.804,-14.75 c 1.196,8.872 6.776,14.651 15.248,14.651 9.575,0 14.263,-5.68 14.861,-6.576 l -6.882,-8.174 c 0,0 -2.792,2.594 -6.084,2.594 -0.798,0 -1.695,-0.1 -2.593,-0.599 -2.493,-1.297 -2.194,-4.689 -2.194,-4.689 l -0.1,-25.444 h 10.971 V 29.801 h -10.971 l 0.1,-10.971 h -12.654 v 44.28 c 0,4.889 0.199,6.685 0.298,6.884 z m -170.353,0 c 1.196,8.872 6.776,14.651 15.248,14.651 9.575,0 14.263,-5.68 14.861,-6.576 l -6.882,-8.174 c 0,0 -2.792,2.594 -6.084,2.594 -0.798,0 -1.695,-0.1 -2.593,-0.599 -2.493,-1.297 -2.194,-4.689 -2.194,-4.689 l -0.1,-25.444 h 10.971 V 29.801 H 495.83 l 0.1,-10.971 h -12.655 v 44.28 c 0,4.889 0.2,6.685 0.299,6.884 z M 696.616,30 V 84.246 H 709.17 V 30 Z m 29.423,1.395 v 52.851 h 12.554 V 41.857 h 11.071 V 30 h -11.071 v -2.797 c 0,0 -0.199,-3.296 2.194,-4.595 0.898,-0.499 1.796,-0.699 2.693,-0.699 3.292,0 5.985,2.697 5.985,2.697 l 6.882,-8.177 c -0.599,-0.897 -5.287,-6.576 -14.762,-6.576 -8.472,0 -14.052,5.779 -15.247,14.653 -0.1,0.2 -0.299,1.998 -0.299,6.889 z M 417.548,84.246 h 12.554 V 54.125 c 0.1,-3.092 0.599,-6.982 4.491,-9.575 2.594,-1.696 5.887,-2.693 9.38,-2.693 8.981,0 11.176,4.289 11.176,12.667 v 29.722 h 12.555 V 52.629 c 0,-14.658 -8.27,-23.028 -22.733,-23.028 -7.185,0 -12.474,2.192 -15.965,4.384 L 428.11,30 h -10.562 z m 119.973,0 V 54.623 c 0.099,-3.092 0.598,-6.981 4.49,-9.575 2.595,-1.795 5.888,-2.693 9.38,-2.693 8.981,0 11.176,4.289 11.176,12.667 v 29.224 h 12.555 V 52.629 c 0,-14.558 -8.27,-23.028 -22.633,-23.028 -6.586,0 -11.476,1.794 -14.968,3.687 V 10.352 h -12.555 v 73.894 z m 76.704,-42.29 c 5.588,-0.099 9.779,1.299 12.074,3.995 1.397,1.697 2.295,3.794 2.594,6.391 h -28.238 c 0.798,-8.588 8.282,-10.286 13.57,-10.386 z m 81.992,-25.327 c 0,4.285 2.491,6.676 6.676,6.676 4.185,0 6.776,-2.391 6.676,-6.676 -0.099,-4.384 -2.491,-6.676 -6.676,-6.676 -4.384,0 -6.676,2.292 -6.676,6.676 z"
   style="fill:#ffffff;fill-rule:nonzero"
   id="path828" />

        </g>

    </g>
    </g>
  </g>
</svg>
