<?xml version="1.0" encoding="UTF-8" standalone="no"?>
<!-- Created with Inkscape (http://www.inkscape.org/) -->

<svg
   width="1920"
   height="650"
   viewBox="0 0 507.99999 171.97918"
   version="1.1"
   id="svg5"
   inkscape:version="1.1 (c68e22c387, 2021-05-23)"
   sodipodi:docname="Alameda research.svg"
   xmlns:inkscape="http://www.inkscape.org/namespaces/inkscape"
   xmlns:sodipodi="http://sodipodi.sourceforge.net/DTD/sodipodi-0.dtd"
   xmlns="http://www.w3.org/2000/svg"
   xmlns:svg="http://www.w3.org/2000/svg">
  <sodipodi:namedview
     id="namedview7"
     pagecolor="#ffffff"
     bordercolor="#666666"
     borderopacity="1.0"
     inkscape:pageshadow="2"
     inkscape:pageopacity="0.0"
     inkscape:pagecheckerboard="0"
     inkscape:document-units="mm"
     showgrid="false"
     units="px"
     inkscape:zoom="0.33540614"
     inkscape:cx="1428.1194"
     inkscape:cy="-155.03592"
     inkscape:window-width="2560"
     inkscape:window-height="1346"
     inkscape:window-x="-11"
     inkscape:window-y="-11"
     inkscape:window-maximized="1"
     inkscape:current-layer="g6469" />
  <defs
     id="defs2" />
  <g
     inkscape:label="Warstwa 1"
     inkscape:groupmode="layer"
     id="layer1"
     style="display:inline;opacity:1" />
  <g
     inkscape:groupmode="layer"
     id="layer2"
     inkscape:label="Warstwa 2"
     style="display:inline">
    <g
       id="g6469"
       transform="matrix(0.57161235,0,0,0.57161235,322.8209,-281.4082)">
      <path
         style="display:inline;opacity:1;fill:#ffffff;stroke-width:0.352778;fill-opacity:1"
         d="m 10.563948,789.98174 c -6.7673001,-1.0181 -11.51810012,-5.3076 -12.5844001,-11.3625 l -0.2367,-1.3442 1.47459998,0.1095 1.4746,0.1094 0.66360002,2.1686 c 1.7295,5.6505 7.6589,8.74 15.0275001,7.83 4.3348,-0.5353 7.0257,-2.1027 8.7958,-5.1232 1.2204,-2.0824 1.538,-5.7735 0.6883,-7.9984 -1.173,-3.0714 -3.0436,-3.991 -11.1731,-5.4928 -6.8695001,-1.2691 -8.5954001,-1.7517 -10.7223001,-2.9981 -2.9539,-1.7311 -4.42520002,-4.6078 -4.42520002,-8.6523 0,-4.5353 2.03000002,-7.8581 6.01830002,-9.8511 2.9715,-1.4849 5.5080001,-1.933 9.6803001,-1.7102 5.7301,0.3059 9.1856,2.0894 11.1826,5.7718 0.8926,1.6459 1.8068,5.3029 1.4641,5.8573 -0.09,0.1466 -0.7903,0.2665 -1.555,0.2665 -1.2193,0 -1.3903,-0.1007 -1.3903,-0.8191 0,-1.4704 -1.0715,-4.0083 -2.2968,-5.4397 -1.9461,-2.2736 -4.2214,-3.087 -8.6393,-3.0885 -2.6285,-10e-4 -4.2196001,0.1788 -5.4792001,0.6188 -3.8821,1.3563 -5.9711,4.3192 -5.9336,8.4158 0.049,5.3713 2.4029,7.0055 12.6315001,8.7701 7.2082,1.2436 9.7602,2.1887 11.6962,4.3316 1.8535,2.0517 2.3801,3.5389 2.4042,6.7902 0.027,3.6153 -0.7741,5.9675 -2.7982,8.2188 -3.3483,3.7241 -9.7046,5.5639 -15.9675,4.6217 z m 230.980502,0.058 c -6.2571,-0.8503 -11.0909,-4.4271 -13.5756,-10.0457 -2.6363,-5.961 -2.9593,-14.6576 -0.8005,-21.5499 1.6196,-5.171 6.0214,-10.019 10.7417,-11.8309 4.2474,-1.6303 11.2929,-1.2906 15.5175,0.7483 3.4922,1.6853 6.4622,5.6563 7.0357,9.4069 l 0.2292,1.4993 c -0.9584,0 -1.9167,0 -2.8748,0.021 0,0 -0.1486,-0.5869 -0.2374,-0.9911 -0.8248,-3.7532 -2.494,-6.3583 -5.9949,-7.886 -1.7822,-0.7777 -2.7647,-1.1527 -5.8037,-1.299 -4.2361,-0.204 -7.3369,0.6239 -10.0491,2.6829 -4.9201,3.7352 -7.5412,11.9533 -6.545,20.5217 1.1396,9.8032 5.5849,15.0992 13.5994,16.2022 7.5275,1.0359 13.4079,-2.6234 14.8236,-9.2377 0.098,-0.4573 0.1831,-0.9566 0.1831,-0.9566 1.0162,-0.01 1.8137,-0.01 2.8988,-0.01 l -0.2292,1.4993 c -0.5526,3.6138 -3.1475,7.026 -6.608,9.2014 -3.1556,1.9837 -8.2917,2.5675 -12.3108,2.0213 z m -802.5616,-0.9478 c 0,-0.4884 15.972,-42.2874 16.3344,-42.7475 0.2254,-0.2861 0.9528,-0.4185 1.9387,-0.3527 l 1.5781,0.1051 8.0609,21.3431 c 4.4335,11.7387 8.0632,21.4621 8.0661,21.6076 0,0.1456 -0.6793,0.2646 -1.5158,0.2646 h -1.5209 l -2.8006,-7.4965 -2.8006,-7.4965 -9.1485,-0.094 c -5.6853,-0.059 -9.2805,0.038 -9.4971,0.2542 -0.1917,0.1917 -1.569,3.5679 -3.0607,7.5026 l -2.7121,7.1541 -1.461,0.1085 c -0.8035,0.06 -1.4609,-0.01 -1.4609,-0.1524 z m 26.1055,-17.7465 c 0,-0.1804 -1.7462,-5.0192 -3.8805,-10.7529 -2.1343,-5.7338 -3.8806,-10.5869 -3.8806,-10.7847 0,-0.1977 -0.1587,-0.3596 -0.3528,-0.3596 -0.194,0 -0.3527,0.1776 -0.3527,0.3946 0,0.3296 -3.4478,9.6469 -7.1971,19.4492 l -0.9108,2.3812 h 8.2873 c 4.87,0 8.2872,-0.1352 8.2872,-0.3278 z m 35.7161,-3.6409 0.091,-21.6077 h 1.4111 1.4111 l 0.091,20.1917 0.091,20.1916 11.3742,0.093 11.3742,0.093 0.1094,1.323 0.1095,1.3229 h -13.0768 -13.0767 z m 48.7774,19.3401 c 3.0864,-8.1998 15.0599,-39.6813 15.339,-40.3304 0.1036,-0.2409 0.3231,-0.7634 0.3231,-0.7634 0.01,-4e-4 0.035,0 0.026,0 h 3.3519 c 0.2712,0.1384 3.9729,10.285 8.3236,21.8105 4.3508,11.5255 7.9665,21.0996 8.035,21.2757 0.068,0.1761 -0.6226,0.2711 -1.5357,0.2111 l -1.6603,-0.109 -1.9123,-5.1152 c -1.0517,-2.8134 -2.3202,-6.1894 -2.8188,-7.5023 l -0.9065,-2.3869 -9.3689,0.094 -9.3688,0.094 -2.8144,7.4965 -2.8143,7.4965 h -1.5263 -1.5263 z m 25.5732,-15.4828 c 0,-0.061 -1.5646,-4.3079 -3.4768,-9.4368 -1.9123,-5.129 -3.7641,-10.1985 -4.1152,-11.2657 l -0.6383,-1.9402 -0.339,1.0583 c -0.1864,0.5821 -2.0652,5.6177 -4.1751,11.1903 -2.1099,5.5725 -3.8362,10.216 -3.8362,10.3187 0,0.1028 3.7307,0.1868 8.2903,0.1868 4.5597,0 8.2903,-0.05 8.2903,-0.1114 z m 35.716,-3.8573 0.091,-21.6077 1.4786,-0.1074 c 1.223,-0.089 1.5691,0.033 2.0028,0.7055 0.4277,0.6633 16.0335,35.8061 16.9667,38.2075 0.251,0.6459 0.3127,0.6154 0.7292,-0.3606 0.2503,-0.5864 3.1897,-7.2539 6.532,-14.8167 3.3423,-7.5628 7.0588,-15.973 8.2588,-18.6894 l 2.1819,-4.9389 1.6507,-0.1075 1.6507,-0.1075 v 21.7152 21.7151 h -1.408 -1.408 l -0.091,-18.7854 c -0.09,-18.4167 -0.1035,-18.7511 -0.7123,-17.0361 -0.3416,0.9621 -4.0662,9.4156 -8.2768,18.7854 l -7.6558,17.0361 -1.2482,-0.01 -1.2482,-0.01 -7.664,-17.1876 c -4.2152,-9.4531 -7.9743,-17.9019 -8.3535,-18.775 l -0.6896,-1.5875 -0.025,18.7854 -0.025,18.7854 h -1.4139 -1.4138 z m 72.3195,0 0.091,-21.6077 h 13.5819 13.582 l 0.1095,1.323 0.1094,1.3229 h -12.1921 -12.1921 v 8.4666 8.4667 h 10.9361 10.9361 v 1.4111 1.4111 h -10.9361 -10.9361 v 8.9959 8.9958 h 12.1708 12.1709 v 1.4111 1.4111 h -13.7611 -13.761 z m 55.1098,21.1666 c -0.093,-0.2425 -0.1274,-9.9659 -0.077,-21.6076 l 0.091,-21.1667 5.9972,-0.1013 c 12.7961,-0.2161 17.9834,1.1464 22.6822,5.9579 1.7753,1.8178 3.7011,5.5454 4.5379,8.7837 0.7723,2.9884 0.7792,9.8174 0.013,13.3138 -1.69,7.7171 -7.062,13.1618 -14.5335,14.7305 -3.2802,0.6887 -18.4547,0.7615 -18.7116,0.09 z m 19.1505,-2.8821 c 5.9218,-1.5764 9.3887,-5.3138 10.8752,-11.7236 0.7532,-3.2475 0.7398,-10.2232 -0.025,-13.1755 -1.7109,-6.6028 -5.7262,-10.498 -12.2167,-11.8513 -1.7325,-0.3612 -4.2481,-0.484 -8.526,-0.416 l -6.0684,0.097 -0.091,18.7854 -0.091,18.7854 h 7.1469 c 4.9856,0 7.7063,-0.1531 8.9968,-0.4966 z m 37.297,2.7058 c 0.1323,-0.3396 3.6225,-9.5074 7.7561,-20.373 4.1335,-10.8655 7.7685,-20.3597 8.0777,-21.0982 0.5514,-1.3168 0.5946,-1.3405 2.2468,-1.2347 l 1.6847,0.1079 2.2099,5.8209 c 1.2154,3.2014 4.6044,12.1638 7.5311,19.9164 2.9267,7.7526 5.6247,14.8654 5.9955,15.8063 l 0.6743,1.7106 -1.6697,-0.1076 -1.6697,-0.1077 -2.6755,-7.1473 c -1.4716,-3.931 -2.8354,-7.3071 -3.0309,-7.5026 -0.2253,-0.2253 -3.7032,-0.3208 -9.5038,-0.261 l -9.1485,0.094 -2.8222,7.4964 -2.8222,7.4964 -1.5371,10e-5 c -1.3203,10e-5 -1.5031,-0.087 -1.2965,-0.6172 z m 25.3888,-19.4028 c -0.4941,-1.3097 -2.3489,-6.3115 -4.1218,-11.1152 -1.7728,-4.8037 -3.3324,-8.6137 -3.4656,-8.4667 -0.1333,0.147 -0.4434,0.9023 -0.6891,1.6784 -0.2457,0.7761 -2.0111,5.5135 -3.9231,10.5276 -1.9121,5.0141 -3.4765,9.2606 -3.4765,9.4368 0,0.1828 3.5576,0.3203 8.2873,0.3203 h 8.2872 z m 68.0177,-1.5875 0.091,-21.6077 6.7027,-0.1006 c 12.031798,-0.1806 16.120098,0.6525 19.426198,3.9586 2.1847,2.1847 3.0052,4.3407 3.0166,7.9264 0.018,5.7892 -2.6829,9.9827 -7.6529,11.8807 -0.8584,0.3279 -1.5588,0.6936 -1.5565,0.8127 0,0.1192 2.2093,4.3442 4.9046,9.3889 l 4.9005,9.1722 -1.6025,0.1096 c -0.8813,0.06 -1.7287,-0.019 -1.8831,-0.1764 -0.2522,-0.257 -5.565,-10.1495 -8.5176,-15.86 l -1.1575,-2.2386 h -6.790998 -6.7909 v 9.1722 9.1722 h -1.5903 -1.5902 z m 21.257598,-0.6707 c 2.1724,-1.1517 3.1087,-2.1305 4.0296,-4.2123 2.1661,-4.8968 0.6065,-10.585 -3.467,-12.645 -2.2117,-1.1185 -4.8219,-1.4338 -11.868798,-1.4338 h -6.8618 v 9.7248 9.7249 l 8.202,-0.1117 c 8.093698,-0.1102 8.225498,-0.124 9.965998,-1.0469 z m 36.2452,0.6707 0.091,-21.6077 h 13.582 13.5819 l 0.1095,1.323 0.1095,1.3229 h -12.1921 -12.1922 v 8.4616 8.4617 l 11.0243,0.093 11.0244,0.093 0.1095,1.3229 0.1094,1.3229 h -11.1338 -11.1338 v 8.9913 8.9912 l 12.2591,0.093 12.259,0.093 0.1095,1.3229 0.1095,1.323 h -13.9587 -13.9588 z m 111.4778,0 0.091,-21.6077 13.6701,-0.092 13.6702,-0.092 v 1.4153 1.4153 h -12.1709 -12.1708 v 8.4616 8.4616 l 11.0243,0.093 11.0243,0.093 0.1095,1.323 0.1095,1.3229 h -11.1338 -11.1338 v 8.9912 8.9913 l 12.259,0.093 12.2591,0.093 0.1095,1.3229 0.1094,1.3229 h -13.9587 -13.9587 z m 52.257002,20.8139 c 0.1144,-0.4366 3.7689,-10.16 8.1212,-21.6077 l 7.9133,-20.8139 h 1.6931 c 0.9528,0 1.8108,-3e-4 1.8108,-3e-4 l 0.3432,0.8825 c 0.3357,0.8634 15.9704,41.879 15.9704,42.1914 0,0.078 -0.694,0.1419 -1.5422,0.1419 h -1.5421 l -2.8143,-7.4965 -2.8144,-7.4965 -9.3744,-0.094 -9.3743,-0.094 -0.6963,1.8578 c -0.8463,2.2579 -4.4945,11.8458 -4.8345,12.7057 -0.1757,0.4444 -0.6395,0.6173 -1.6558,0.6173 -1.2903,0 -1.3937,-0.068 -1.2037,-0.7937 z m 25.9742,-17.0714 c 0,-0.1244 -1.5736,-4.4504 -3.4969,-9.6132 -1.9233,-5.1628 -3.6946,-10.0616 -3.9364,-10.8863 -0.2417,-0.8246 -0.5334,-1.4958 -0.6483,-1.4915 -0.1499,0.01 -6.7667,17.1626 -8.4402,21.8854 -0.071,0.2012 3.1572,0.3318 8.2021,0.3318 4.5758,0 8.3197,-0.1018 8.3197,-0.2262 z m 35.716,-3.7425 0.091,-21.6077 9.1722,0.019 c 8.4151,0.017 9.3809,0.083 11.6993,0.7947 3.1699,0.9728 5.5837,2.8311 6.998,5.3873 0.9962,1.8007 1.353,3.5866 1.353,5.7934 0,2.4655 -0.4038,4.0959 -1.1654,5.6445 -1.173,2.385 -3.7785,4.8546 -6.1655,5.844 -1.0778,0.4467 -1.9596,0.909 -1.9596,1.0272 0,0.1183 2.1909,4.3356 4.8686,9.3719 l 4.8687,9.1569 -1.3812,0.1104 c -0.7597,0.061 -1.5813,0.034 -1.8256,-0.06 -0.2444,-0.094 -2.5678,-4.2275 -5.1631,-9.1862 l -4.7188,-9.0158 -6.791,-0.01 -6.791,-0.01 v 9.1723 9.1722 h -1.5902 -1.5902 z m 19.3799,0.077 c 2.4005,-0.6668 4.5946,-2.4588 5.7246,-4.6759 0.8766,-1.7198 1.183,-2.9402 1.183,-4.9368 0,-3.145 -1.102,-5.5026 -3.3631,-7.2043 -2.3576,-1.7742 -3.4483,-1.9681 -11.9856,-2.1307 l -7.8493,-0.1495 v 9.7307 9.7307 h 7.4966 c 4.123,0 8.0803,-0.1641 8.7938,-0.3622 z m 98.4479,-0.077 0.091,-21.6077 h 1.3445 1.3445 l -0.032,9.7896 -0.032,9.7896 h 12.8867 12.8866 v -9.8778 -9.8777 h 1.4111 1.4111 v 21.6958 21.6958 h -1.4111 -1.4111 v -10.4113 -10.4114 l -12.7882,0.093 -12.7882,0.093 -0.093,10.3188 -0.094,10.3187 h -1.4085 -1.4085 l 0.091,-21.6076 z m -458.3438,-110.6841 v -2.8222 l 19.3146,-3e-4 c 10.623,-10e-5 32.7686,-0.1056 49.2125,-0.2345 l 29.897898,-0.2342 v 3.0567 3.0567 h -49.212498 -49.2125 z m 0.659,-28.3104 c 2.6008,-4.7326 10.4858,-18.8773 14.7001,-26.3702 3.8105,-6.7747 15.2384,-27.1388 18.5104,-32.9847 3.211,-5.7367 6.3179,-11.2612 8.5312,-15.1694 l 2.5973,-4.5861 c 2.5919,-0.067 5.1841,-0.087 7.7774,-0.038 0,0 1.1529,1.8628 1.9621,3.3435 1.3969,2.556 8.5487,15.3124 18.815298,33.5602 2.5654,4.5597 5.902,10.5128 7.4145,13.2292 3.6124,6.4873 15.9307,28.254 16.8203,29.7215 l 0.6949,1.1466 h -33.013398 -33.0136 v -3.3514 -3.3514 h 27.1639 c 15.718898,0 27.163898,-0.1328 27.163898,-0.3153 0,-0.1734 -4.2231,-7.7537 -9.3846,-16.8451 -8.153598,-14.3615 -10.970898,-19.3437 -15.232098,-26.9368 -5.1505,-9.1777 -12.917,-22.8137 -13.1216,-23.0379 -0.2357,-0.2584 -14.3668,24.2963 -28.4848,49.4962 -3.098,5.5298 -7.433,13.2688 -9.6333,17.1979 l -4.0006,7.1438 h -3.6426 -3.6425 z"
         id="path848"
         sodipodi:nodetypes="sscccssssssssssssssssssssssssssssccsssssssccsssssscscsccccssccssscsssscsscscccccccccccssscscsscsscccccccsscscsssssccssssssccccccccsscccssccccccccccccccccccccccccccccccccccssscscccsssccccsccsssscssscccssscccsssscssssscscssssscscsssccccccccscsscccssccccccccccccccccccccccccccscccccccccccccccccccccccsscsscsscccccsssssscscsssccsssssssscsssccccccccccssscccsccccccccccccccccccccccccccccsssccccccssssccsssscccccssssssscccss" />
      <g
         id="g5902"
         transform="matrix(0.97718201,0,0,0.9771923,-2488.0788,2002.2617)"
         style="fill:none;stroke:#ffffff;stroke-width:5.29786;stroke-miterlimit:4;stroke-dasharray:none;stroke-opacity:1">
        <ellipse
           style="fill:none;fill-opacity:0.224324;stroke:#ffffff;stroke-width:5.29786;stroke-linecap:square;stroke-miterlimit:4;stroke-dasharray:none;stroke-dashoffset:101.324;stroke-opacity:1;stop-color:#000000"
           id="path5615"
           cx="2422.8374"
           cy="-1429.9342"
           rx="109.4762"
           ry="109.60503" />
      </g>
    </g>
  </g>
</svg>
