<?xml version="1.0" encoding="UTF-8" standalone="no"?>
<!-- Created with Inkscape (http://www.inkscape.org/) -->

<svg
   width="1920"
   height="587"
   viewBox="0 0 507.99999 155.31042"
   version="1.1"
   id="svg5"
   inkscape:version="1.1 (c68e22c387, 2021-05-23)"
   sodipodi:docname="BulidHold Capital.svg"
   xmlns:inkscape="http://www.inkscape.org/namespaces/inkscape"
   xmlns:sodipodi="http://sodipodi.sourceforge.net/DTD/sodipodi-0.dtd"
   xmlns="http://www.w3.org/2000/svg"
   xmlns:svg="http://www.w3.org/2000/svg">
  <sodipodi:namedview
     id="namedview7"
     pagecolor="#ffffff"
     bordercolor="#666666"
     borderopacity="1.0"
     inkscape:pageshadow="2"
     inkscape:pageopacity="0.0"
     inkscape:pagecheckerboard="0"
     inkscape:document-units="mm"
     showgrid="false"
     inkscape:zoom="0.33540614"
     inkscape:cx="1717.321"
     inkscape:cy="417.4044"
     inkscape:window-width="2560"
     inkscape:window-height="1346"
     inkscape:window-x="-11"
     inkscape:window-y="-11"
     inkscape:window-maximized="1"
     inkscape:current-layer="layer1"
     units="px"
     width="1920px" />
  <defs
     id="defs2" />
  <g
     inkscape:label="Warstwa 1"
     inkscape:groupmode="layer"
     id="layer1">
    <path
       style="fill:#ffffff;stroke-width:0.355561"
       d="m 260.81503,154.84161 c -0.13017,-0.13014 -0.23687,-13.33064 -0.23687,-29.33386 V 96.410885 h 4.97786 4.97788 v 2.133373 c 0,1.173354 0.0936,2.133372 0.2083,2.133372 0.2125,0 3.37937,-2.147562 3.70266,-2.510993 0.0978,-0.10996 1.13778,-0.58996 2.31114,-1.066681 1.8853,-0.766051 2.67499,-0.866841 6.79075,-0.866841 2.71434,0 5.01359,0.16715 5.5112,0.401061 0.46964,0.22049 1.90587,0.910251 3.1917,1.532761 7.64485,3.701193 12.21728,13.325423 10.49744,22.095553 -2.20094,11.22361 -11.67686,18.36707 -22.19693,16.7334 -3.09515,-0.4807 -6.42613,-1.90657 -8.30245,-3.55401 -0.701,-0.6155 -1.37342,-1.11905 -1.49428,-1.11905 -0.12101,0 -0.21964,5.12008 -0.21964,11.37797 v 11.37797 h -4.74084 c -2.60745,0 -4.84749,-0.10666 -4.97789,-0.23686 z m 24.18024,-27.06238 c 3.5909,-1.19534 6.46176,-3.97704 7.60403,-7.36792 0.79422,-2.35747 0.60767,-6.49995 -0.38554,-8.55683 -1.18286,-2.45022 -3.59299,-4.90519 -5.78175,-5.88935 -2.67041,-1.20074 -7.16824,-1.18634 -9.66073,0.0294 -5.82171,2.84318 -8.3091,9.24708 -5.94441,15.30417 0.59537,1.5251 2.36778,3.6909 3.87215,4.73169 3.28674,2.27378 6.88176,2.88388 10.29603,1.74733 z M 28.161183,115.87792 C 12.072624,99.767732 2.9670222,90.394738 2.513747,89.477427 0.69802355,85.802973 0.66236855,85.238772 0.66236855,60.183852 c 0,-22.817127 0.01768,-23.421638 0.74827845,-25.58507 1.1701892,-3.465104 4.1687491,-5.657229 7.8210483,-5.717629 3.2582537,-0.0538 6.1382527,1.693384 7.6240137,4.625448 l 0.873629,1.723992 v 15.300978 c 0,9.240241 -0.131526,15.300988 -0.332026,15.300988 -0.182597,0 -1.235451,0.889131 -2.339647,1.975812 -2.688116,2.645504 -3.728441,5.011366 -3.728441,8.47919 0,3.586455 0.97016,5.641887 4.463401,9.456462 1.522228,1.662272 4.219915,4.622335 5.994881,6.577928 6.425208,7.079108 7.488221,8.089009 8.514285,8.089009 1.182542,0 2.363809,-1.009231 2.35339,-2.010702 -0.0048,-0.411561 -0.91956,-1.709432 -2.044478,-2.899414 -1.120202,-1.184941 -3.556769,-3.819494 -5.414571,-5.854507 -1.857814,-2.035022 -4.614575,-5.040946 -6.126148,-6.679768 -3.396379,-3.682424 -4.056708,-5.599386 -3.106843,-9.01929 0.464164,-1.671222 3.24986,-4.443766 4.935179,-4.911926 2.762653,-0.767421 5.320552,-0.22888 7.157857,1.506712 1.000522,0.945231 6.025914,6.304117 9.406843,10.031092 5.361156,5.909917 7.533811,8.285889 9.77794,10.692942 7.077473,7.591399 12.660713,13.819931 13.064478,14.574381 0.211195,0.39477 0.758046,1.75446 1.215242,3.02183 0.750671,2.08096 0.828473,2.87329 0.802441,8.1712 -0.02857,5.821 -0.03947,5.89718 -1.366436,9.76508 -0.735653,2.14409 -1.820171,4.86415 -2.410009,6.04455 -1.229175,2.45999 -4.829885,8.01304 -5.195798,8.01304 -0.134743,0 -11.470131,-11.24023 -25.189695,-24.97826 z m 46.893854,22.68094 c -3.409664,-5.13362 -5.714969,-10.52265 -6.829203,-15.96439 -0.889999,-4.34658 -0.897872,-7.35006 -0.02952,-11.24998 1.082856,-4.86315 1.627877,-5.75594 7.174479,-11.752308 2.81335,-3.041526 6.55521,-7.119721 8.315261,-9.062734 1.760021,-1.942962 4.320077,-4.735655 5.688977,-6.205997 1.368911,-1.470352 4.00896,-4.347635 5.866775,-6.393948 7.655634,-8.43253 8.695394,-9.252471 11.733534,-9.252471 2.97861,0 5.8708,1.989673 7.14966,4.918486 1.26815,2.904444 0.59246,5.519007 -2.22082,8.59292 -1.79069,1.956573 -6.9324,7.551419 -11.08684,12.063915 -1.862726,2.023312 -3.086622,3.652904 -3.086622,4.109895 0,2.030792 2.494882,2.784852 4.015862,1.213744 0.90694,-0.936824 8.33175,-9.000524 10.11691,-10.987446 0.61495,-0.684471 2.01133,-2.204513 3.10305,-3.377864 2.95988,-3.181124 3.92083,-5.371566 3.89978,-8.88902 -0.0211,-3.867245 -0.94281,-5.900578 -3.93478,-8.699461 L 112.6643,65.501339 V 50.312271 c 0,-14.606128 0.0296,-15.247149 0.73191,-16.70098 0.4023,-0.831561 1.3535,-2.073493 2.11322,-2.759874 3.68039,-3.324993 9.90744,-2.301614 12.61241,2.072863 l 1.07608,1.740262 0.10245,25.09529 c 0.10163,24.931119 0.0975,25.11044 -0.66848,27.406452 -0.424,1.271122 -1.09365,2.791144 -1.48816,3.377834 -0.95935,1.426542 -49.751137,50.313332 -50.209761,50.307492 -0.19746,-0.003 -1.042939,-1.03427 -1.878788,-2.29275 z M 180.2697,136.91705 c -11.19137,-1.45096 -21.28785,-9.61849 -25.01897,-20.23912 -2.11875,-6.03089 -2.528,-11.15683 -1.3363,-16.736478 0.91265,-4.273047 1.49748,-5.823479 3.65824,-9.698104 1.89129,-3.391514 6.30038,-8.25402 9.02222,-9.950132 3.06612,-1.910632 6.85471,-3.718754 8.69764,-4.150965 1.04842,-0.24567 2.13077,-0.62612 2.40523,-0.844961 0.69315,-0.55269 13.60613,-0.54774 14.29087,0.004 0.27464,0.221741 1.05928,0.521041 1.74374,0.664881 0.68448,0.14363 2.16447,0.669281 3.28896,1.167771 l 2.04445,0.906292 v 6.228827 6.228817 L 198.088,89.607237 c -4.57171,-4.164355 -11.61682,-5.822797 -18.02932,-4.244185 -5.73234,1.411162 -10.11188,4.363025 -13.04226,8.790661 -2.73451,4.131745 -3.32899,6.248847 -3.32899,11.855847 0,5.16805 0.32671,6.53698 2.53906,10.63303 2.28472,4.23029 7.7129,8.49729 12.27802,9.65153 7.67173,1.93977 13.50659,0.83085 19.22793,-3.65433 l 1.33334,-1.04523 v 6.06724 6.06717 l -1.33334,0.66949 c -4.86557,2.44299 -11.10138,3.34182 -17.46274,2.51708 z m 41.72986,-0.14741 c -10.63522,-2.36522 -17.13962,-12.9475 -15.09556,-24.55973 0.92494,-5.25477 4.14595,-10.15402 8.78847,-13.367632 0.83344,-0.57693 2.03347,-1.223161 2.6667,-1.436121 0.6333,-0.212911 1.32867,-0.524691 1.54529,-0.692711 0.21668,-0.16799 1.69423,-0.489431 3.28357,-0.714181 5.54987,-0.784861 10.86705,0.607541 14.41937,3.776037 0.76196,0.679588 1.52199,1.151268 1.68893,1.048068 0.16671,-0.10338 0.30363,-1.138148 0.30363,-2.299962 v -2.112423 h 4.80007 4.80009 v 20.089275 20.08926 h -4.6223 -4.62234 v -2.25193 c 0,-1.2385 -0.10165,-2.35329 -0.2255,-2.47721 -0.1239,-0.12391 -0.96398,0.4317 -1.86669,1.23482 -3.96477,3.52728 -10.11748,4.9524 -15.8638,3.67443 z m 9.70545,-9.10066 c 2.94129,-0.99329 5.41872,-3.23764 6.82389,-6.18191 0.89718,-1.87985 1.07098,-2.67805 1.07098,-4.91927 0,-5.76432 -3.35693,-9.94282 -9.18837,-11.43737 -1.90446,-0.48808 -2.56765,-0.51054 -4.26674,-0.14487 -4.1943,0.90316 -7.07195,3.1338 -8.78243,6.80771 -1.30409,2.80103 -1.24228,6.78283 0.1503,9.68467 1.54051,3.21002 3.60027,5.0726 6.84643,6.19104 2.5762,0.8876 4.71715,0.88758 7.34584,-1.8e-4 z m 142.10771,9.10815 c -4.21874,-0.91843 -8.25675,-3.47114 -10.97329,-6.93686 -3.16955,-4.04367 -4.48196,-7.95002 -4.48196,-13.34 0,-6.155 1.99263,-11.0358 6.2392,-15.28235 1.24816,-1.248188 4.81071,-3.738693 5.35333,-3.742433 0.17556,-0.001 0.79434,-0.250281 1.37549,-0.553161 0.58113,-0.30321 2.28789,-0.725141 3.79274,-0.937931 5.47045,-0.773631 10.67303,0.598071 14.35086,3.783717 l 1.42227,1.231938 0.10498,-2.294502 0.10498,-2.294563 h 4.96164 4.9616 v 20.089275 20.08926 h -4.40645 c -4.89378,0 -4.83814,0.0296 -4.83814,-2.48894 0,-2.51877 -0.25239,-2.64181 -2.0816,-1.01461 -3.97289,3.53429 -10.08412,4.95423 -15.88595,3.69114 z m 9.6199,-9.10538 c 2.79172,-0.90194 5.47491,-3.17453 6.84762,-5.79979 0.84457,-1.61507 0.94972,-2.2096 0.95035,-5.37169 0,-2.99572 -0.12435,-3.79204 -0.79367,-5.0569 -1.78681,-3.37673 -4.55621,-5.48519 -8.37452,-6.37596 -5.59893,-1.30616 -11.701,2.3714 -13.39981,8.07563 -0.88622,2.97591 -0.88151,3.75437 0.042,6.85394 0.64505,2.16595 1.04439,2.80458 2.93789,4.69807 3.47011,3.47014 7.28334,4.4328 11.79056,2.9767 z M 311.77889,116.50026 V 96.410975 h 4.97785 4.97788 v 20.089285 20.08926 h -4.97788 -4.97785 z m 25.24485,4.08897 v -16.0003 h -3.91114 -3.91118 v -4.08898 -4.088975 h 3.91118 3.91114 v -7.111228 -7.111229 h 4.9779 4.97786 v 7.111229 7.111228 h 3.91115 3.91122 v 4.076955 4.07693 l -3.8223,0.10069 -3.82232,0.10068 -0.0923,15.9114 -0.0924,15.91141 h -4.97419 -4.97421 z m 75.37909,-14.57806 V 75.43281 h 4.80008 4.80008 v 30.57836 30.57835 h -4.80008 -4.80008 z M 67.161943,89.474737 l -0.0095,-13.158585 8.447311,-8.441811 c 4.64603,-4.642995 8.56609,-8.44182 8.711271,-8.44182 0.145098,0 0.259314,5.480087 0.253705,12.177995 l -0.01058,12.178024 -1.678652,1.803333 c -0.923271,0.991861 -3.118708,3.384344 -4.878728,5.316606 -1.760042,1.932242 -4.103274,4.480825 -5.207211,5.663417 -1.103947,1.182641 -2.819689,3.030276 -3.812773,4.105824 l -1.805589,1.9556 -0.0095,-13.158583 z M 62.163451,101.8543 c -0.0064,-0.15832 -0.926106,-1.26259 -2.044478,-2.454171 C 55.776732,94.773573 50.788702,89.344757 48.184848,86.411464 L 45.463153,83.34536 V 70.698825 c 0,-6.955618 0.131384,-12.727825 0.292117,-12.827145 0.160685,-0.0992 0.583316,0.17133 0.939208,0.60125 0.807435,0.975591 4.91169,5.696387 5.161963,5.937447 0.101485,0.0978 1.144602,1.293262 2.317949,2.656554 1.173372,1.363311 2.373381,2.732903 2.666723,3.043493 0.293344,0.31077 1.276232,1.435252 2.184211,2.499163 0.907969,1.063871 2.145435,2.494323 2.749919,3.178804 l 1.099057,1.244451 0.0064,12.334805 c 0.0031,7.845899 -0.123752,12.414743 -0.349911,12.554573 -0.195565,0.12093 -0.360568,0.0903 -0.366662,-0.068 z M 313.6423,88.234906 c -1.7651,-1.076222 -2.57167,-2.671463 -2.57322,-5.089396 -10e-4,-1.954433 0.0827,-2.154243 1.56797,-3.726105 1.55356,-1.644242 1.59248,-1.660992 3.88389,-1.668222 1.79062,-0.004 2.53715,0.15875 3.29773,0.725811 1.68074,1.253312 2.37954,2.496643 2.52738,4.496705 0.16965,2.293973 -0.60629,3.996465 -2.35294,5.163317 -1.5985,1.067861 -4.68195,1.115401 -6.35081,0.0978 z M 38.351924,75.747371 c -2.475158,-2.749313 -5.829376,-6.405498 -7.132836,-7.774929 -0.305211,-0.320841 -0.940044,-0.852771 -1.410739,-1.182462 -0.744236,-0.52129 -0.787787,-0.661611 -0.333996,-1.076181 0.766254,-0.699981 5.957897,-5.159446 8.001101,-6.872748 0.97095,-0.814121 2.165349,-1.827842 2.654254,-2.252773 l 0.888915,-0.772461 0.09771,5.719507 c 0.05374,3.145714 0.05374,8.2968 0,11.446804 l -0.09771,5.727356 z m 50.495419,-9.114811 0.0062,-12.000204 8.488336,-8.4446 c 4.668621,-4.644516 8.588051,-8.4446 8.709891,-8.4446 0.12177,0 0.17961,6.029687 0.12833,13.399336 l -0.0932,13.399276 -1.6895,0.43093 c -1.89398,0.483081 -4.926646,2.299883 -5.895966,3.532204 -0.35118,0.446461 -2.280941,2.570463 -4.288336,4.720046 -2.007418,2.149582 -3.886155,4.245745 -4.174984,4.658095 -0.288849,0.412401 -0.676096,0.749761 -0.860548,0.749761 -0.203643,0 -0.333206,-4.714065 -0.32975,-12.000244 z m -27.220488,5.903357 c -4.080119,-4.702606 -5.12616,-5.902257 -6.919102,-7.934999 -0.880004,-0.997742 -2.560042,-2.919444 -3.733401,-4.270436 -1.173348,-1.351051 -2.373369,-2.715833 -2.666712,-3.032793 -0.293331,-0.31707 -1.409161,-1.606422 -2.479624,-2.865334 -1.892525,-2.225712 -2.481073,-2.805583 -2.859091,-2.816833 -0.100656,-0.002 -1.780718,1.369472 -3.733402,3.049924 -1.952672,1.680452 -4.421583,3.800474 -5.486458,4.711175 -1.064877,0.910711 -2.710251,2.335883 -3.656378,3.166974 -0.946139,0.831131 -1.79161,1.511162 -1.87883,1.511162 -0.296514,0 -3.19371,-3.273004 -3.574662,-4.038335 -0.208551,-0.41912 -0.348515,-0.961781 -0.311105,-1.206221 0.03736,-0.244431 0.08805,-0.590971 0.112445,-0.770041 0.02438,-0.1789 1.507588,-1.579082 3.295874,-3.111164 1.788286,-1.532072 3.612626,-3.105604 4.054066,-3.496704 0.441465,-0.390991 2.674797,-2.311133 4.962948,-4.266755 2.288154,-1.955602 4.823904,-4.152895 5.634993,-4.882856 1.162103,-1.045881 1.550055,-1.227231 1.830246,-0.855511 0.195586,0.25952 1.336342,1.576692 2.535068,2.927243 1.198723,1.350572 5.736721,6.535638 10.084424,11.522394 4.347696,4.986756 8.043152,9.066821 8.212133,9.066821 0.337974,0 46.902883,-46.417479 46.902883,-46.754363 0,-0.115032 -0.64003,-0.797531 -1.42227,-1.516751 -0.78223,-0.71921 -1.42222,-1.370733 -1.42222,-1.447838 0,-0.07735 0.92001,-0.412814 2.04447,-0.746301 1.12448,-0.333444 2.68447,-0.820219 3.46671,-1.081851 3.83106,-1.28128 10.21517,-3.068531 10.37828,-2.905422 0.10113,0.10127 -0.15245,1.314255 -0.56372,2.695623 -0.41113,1.381358 -1.07943,3.671577 -1.48481,5.08938 -0.40526,1.417815 -1.04545,3.604821 -1.42227,4.859982 -0.37671,1.255205 -0.68511,2.495207 -0.68511,2.755612 0,0.768224 -0.4187,0.55955 -2.00899,-1.001167 L 117.33068,23.415901 91.152221,49.51323 C 76.75406,63.866707 64.857475,75.652671 64.715372,75.704201 c -0.14206,0.0516 -1.531957,-1.374222 -3.088549,-3.168284 z M 216.42845,68.138662 c -1.92802,-0.476991 -4.52623,-1.589822 -6.26498,-2.683303 -1.22471,-0.770201 -3.74095,-4.170925 -4.71954,-6.378498 l -0.86692,-1.955562 -0.10996,-14.844748 -0.10997,-14.8447 h 5.33917 5.3392 l 0.10456,13.955839 c 0.10215,13.632656 0.12222,13.984577 0.87985,15.200268 1.2461,1.999742 2.70366,2.667843 5.80242,2.659653 3.2136,-0.008 4.56424,-0.627871 5.9572,-2.731803 l 0.97627,-1.474582 0.10784,-13.804676 0.10785,-13.804699 h 5.11248 c 4.56514,0 5.13128,0.06677 5.28799,0.622244 0.34731,1.231191 -0.0295,27.638352 -0.41659,29.247234 -1.29607,5.377986 -5.68003,9.443581 -11.63706,10.791893 -2.84461,0.64388 -8.37757,0.666921 -10.88963,0.0454 z m 66.24929,-0.1726 c -4.99377,-1.392582 -9.13372,-4.495286 -11.72875,-8.790221 -2.43138,-4.024005 -2.99129,-6.039877 -3.0398,-10.943443 -0.0479,-4.819536 0.10455,-5.837467 1.34561,-8.989221 2.34637,-5.959717 8.77728,-11.397124 14.61252,-12.355038 6.05308,-0.993689 11.54882,0.294802 15.43152,3.618338 l 1.45761,1.247721 V 18.926242 6.0982969 h 5.15567 5.15566 V 37.032195 67.966102 h -4.78402 -4.78394 l -0.19024,-1.155592 c -0.10455,-0.635571 -0.23182,-1.713672 -0.28263,-2.395763 l -0.0925,-1.240201 -0.71115,0.720341 c -0.96228,0.974721 -2.96123,2.420623 -4.29881,3.109393 -3.11004,1.601442 -9.33254,2.053233 -13.24657,0.961782 z m 10.25639,-9.219501 c 3.4191,-0.902481 6.66863,-4.283275 7.59458,-7.90146 0.96926,-3.787344 -0.0123,-8.41288 -2.33272,-10.986173 -5.45875,-6.055137 -14.97251,-4.752266 -18.83606,2.579553 -0.67751,1.285742 -0.80639,2.089273 -0.81539,5.082806 -0.009,3.179234 0.0894,3.743825 0.93558,5.333447 2.75309,5.172396 7.80233,7.383588 13.45401,5.891827 z m 117.78854,9.197411 c -3.04845,-0.774191 -4.97848,-1.724463 -7.56443,-3.724535 -5.17284,-4.000895 -7.78661,-9.148901 -8.02655,-15.809269 -0.35906,-9.962932 6.2181,-18.710462 15.87164,-21.109301 2.81326,-0.699104 7.94062,-0.736814 10.64413,-0.07812 9.68508,2.359079 16.19489,10.638699 16.09942,20.47653 -0.13731,14.143997 -13.02633,23.799689 -27.02421,20.244905 z m 10.92579,-10.409343 c 2.08992,-1.186631 3.60624,-2.810523 4.81853,-5.160336 0.82,-1.589402 0.98172,-2.350413 0.98243,-4.622285 0,-2.337133 -0.15287,-3.019724 -1.09157,-4.853036 -2.15702,-4.212315 -5.22811,-6.201278 -9.59555,-6.214538 -4.73849,-0.0126 -8.3983,2.135403 -10.37718,6.095348 -2.93947,5.882437 -0.0123,13.104575 6.26591,15.451578 2.17661,0.813921 6.99379,0.440881 8.99743,-0.696731 z m 36.39476,10.451543 c -3.77473,-1.053242 -6.17714,-2.450353 -8.84904,-5.146057 -4.26929,-4.307215 -5.8123,-7.863029 -6.10745,-14.074366 -0.16756,-3.527304 -0.0856,-4.479716 0.59812,-6.933459 2.99035,-10.734142 12.57264,-16.83861 23.4745,-14.954529 2.17378,0.375866 5.19631,1.785942 7.01777,3.274436 l 1.50661,1.231141 0.0932,-12.55364 0.0936,-12.5536379 5.24458,-0.09831 5.2445,-0.09831 V 37.022875 67.966262 h -4.75354 -4.75355 l -0.22047,-1.333342 c -0.12131,-0.733371 -0.22216,-1.773392 -0.22427,-2.311143 -0.004,-1.253531 -0.33805,-1.232241 -1.61791,0.10338 -3.38291,3.530945 -11.02838,5.156716 -16.74675,3.561095 z m 10.02608,-9.209191 c 6.19249,-1.724432 9.6207,-8.796391 7.44278,-15.353519 -0.89379,-2.691073 -3.88707,-5.676666 -6.75272,-6.735448 -5.41644,-2.001272 -11.60112,0.570041 -14.26421,5.930307 -1.00963,2.032243 -0.94609,7.86106 0.10961,10.058582 2.45568,5.111376 7.998,7.622269 13.46447,6.100078 z m -313.00621,-21.655886 0.0906,-30.8450349 11.91131,0.0023 c 6.55121,0.0011 12.31131,0.1058441 12.80022,0.2322303 6.58013,1.702827 11.00781,5.6415896 13.35667,11.8819146 0.67738,1.799665 0.8658,2.980801 0.8658,5.427619 0,3.855657 -0.68765,6.312263 -2.55113,9.114466 -0.80427,1.209351 -1.24422,2.180782 -1.0213,2.255063 1.21091,0.40359 4.0204,3.156693 5.31771,5.210816 1.63351,2.586413 2.87699,6.663258 2.87699,9.432101 0,2.278333 -1.15348,6.563038 -2.34518,8.71127 -1.38994,2.505573 -5.31588,6.281778 -7.7069,7.412869 -3.92686,1.857712 -5.3382,1.998573 -20.08371,2.004283 l -13.60219,0.004 z m 29.48676,18.846162 c 2.38218,-1.654292 3.66683,-4.353205 3.38265,-7.106778 -0.32966,-3.195054 -2.53411,-5.838837 -5.42783,-6.509978 -0.7671,-0.17806 -4.8748,-0.32713 -9.1282,-0.33175 l -7.73346,-0.008 v 7.672359 7.672379 l 8.62235,-0.1167 8.62239,-0.11681 z m -4.62644,-25.06535 c 2.87446,-1.689782 4.22172,-5.094485 3.34829,-8.461557 -0.5732,-2.209811 -1.77059,-3.667173 -3.92049,-4.771661 -1.678,-0.862041 -2.03307,-0.903525 -7.73346,-0.903525 h -5.97474 v 7.673368 7.673387 l 6.31121,-0.11763 c 6.13894,-0.11469 6.35649,-0.14446 7.96919,-1.092342 z m 69.27662,16.79714 V 27.412986 l 5.24452,0.09826 5.24452,0.09837 v 20.08926 20.089284 l -5.24452,0.0983 -5.24452,0.0983 z M 321.73462,37.032195 V 6.0982969 h 5.15564 5.15565 V 37.032195 67.966102 h -5.15565 -5.15564 z m 21.68924,0 V 6.0982969 h 5.15566 5.15567 V 18.898537 31.698768 h 11.20019 11.20016 V 18.898537 6.0982969 h 5.33539 5.3354 l -0.0906,30.8450081 -0.0908,30.845026 -5.2445,0.0983 -5.24458,0.0983 V 55.175166 42.365451 h -11.20013 -11.2002 v 12.800225 12.800246 h -5.15567 -5.15565 z m 153.60268,0.35571 c 0,-16.818123 -0.042,-30.6983484 -0.0891,-30.8450436 -0.0486,-0.1465542 2.27116,-0.3107654 5.15566,-0.3649354 l 5.24453,-0.09831 v 30.943459 30.943387 h -5.15561 -5.15566 z M 67.152408,36.321224 V 12.854105 h 8.71126 8.711271 v 15.025261 15.025266 l -8.447321,8.44182 c -4.64602,4.643025 -8.56608,8.44186 -8.711251,8.44186 -0.145266,0 -0.263949,-10.560193 -0.263949,-23.467088 z M 61.627405,58.27714 c -0.531252,-0.635561 -2.040542,-2.355573 -3.35396,-3.822264 -1.313405,-1.466692 -4.73304,-5.357907 -7.599166,-8.647181 l -5.211126,-5.980427 v -6.375357 -6.375353 h 8.71125 8.711274 v 16.178114 c 0,8.897931 -0.06582,16.178059 -0.146178,16.178059 -0.08043,0 -0.580851,-0.52004 -1.112104,-1.155591 z m -37.770741,-12.089074 0.09501,-8.977981 8.622368,-0.0953 8.622391,-0.0953 -0.0071,1.873012 -0.0071,1.873042 -2.52413,2.133373 c -2.808008,2.373293 -3.625001,3.069123 -4.934955,4.203075 -0.492276,0.42613 -1.929536,1.654792 -3.193922,2.730373 -1.264363,1.075601 -2.701623,2.304473 -3.193899,2.730893 -2.52684,2.188813 -3.050704,2.601713 -3.301203,2.602133 -0.149983,2e-4 -0.230003,-4.039674 -0.177752,-8.97751 z M 88.927446,19.165323 89.019476,0.23164481 h 8.53347 8.533474 l 0.0944,10.48086419 0.0943,10.480859 -8.447306,8.452818 c -4.646032,4.649036 -8.569978,8.45283 -8.71989,8.45283 -0.149992,0 -0.23117,-8.52018 -0.180565,-18.933693 z M 253.1112,20.418221 c -4.32297,-1.210313 -6.15746,-5.742682 -3.77904,-9.336742 1.38588,-2.0941967 3.94013,-3.1184899 6.55386,-2.6281593 1.73033,0.3246304 4.20285,2.7793843 4.52219,4.4896583 0.69787,3.737981 -1.8785,7.30916 -5.43896,7.539033 -0.72858,0.04698 -1.56471,0.01683 -1.85805,-0.06392 z"
       id="path836" />
  </g>
</svg>
