<?xml version="1.0" encoding="UTF-8" standalone="no"?>
<!-- Created with Inkscape (http://www.inkscape.org/) -->

<svg
   width="1920"
   height="730"
   viewBox="0 0 507.99999 193.14585"
   version="1.1"
   id="svg5"
   inkscape:version="1.1 (c68e22c387, 2021-05-23)"
   sodipodi:docname="CMS.svg"
   xmlns:inkscape="http://www.inkscape.org/namespaces/inkscape"
   xmlns:sodipodi="http://sodipodi.sourceforge.net/DTD/sodipodi-0.dtd"
   xmlns="http://www.w3.org/2000/svg"
   xmlns:svg="http://www.w3.org/2000/svg">
  <sodipodi:namedview
     id="namedview7"
     pagecolor="#ffffff"
     bordercolor="#666666"
     borderopacity="1.0"
     inkscape:pageshadow="2"
     inkscape:pageopacity="0.0"
     inkscape:pagecheckerboard="0"
     inkscape:document-units="mm"
     showgrid="false"
     inkscape:zoom="0.47433592"
     inkscape:cx="1176.3815"
     inkscape:cy="-276.17559"
     inkscape:window-width="2560"
     inkscape:window-height="1346"
     inkscape:window-x="-11"
     inkscape:window-y="-11"
     inkscape:window-maximized="1"
     inkscape:current-layer="layer1"
     units="px"
     width="1920px" />
  <defs
     id="defs2" />
  <g
     inkscape:label="Warstwa 1"
     inkscape:groupmode="layer"
     id="layer1">
    <path
       style="fill:#ffffff;stroke-width:0.352452"
       d="m 108.87745,189.81735 c -4.00059,-3.16232 -6.74129,-7.68742 -8.0358,-13.26782 -1.307483,-5.63648 -1.340716,-6.62295 -1.470554,-43.70389 -0.06986,-19.96634 -6.93e-4,-46.849514 0.153546,-59.740394 l 0.280584,-23.438003 1.487034,3.104828 c 0.81781,1.707612 1.48699,3.169995 1.48699,3.249725 0,0.0795 0.37882,0.98227 0.84187,2.00572 0.46305,1.02344 2.54732,5.66728 4.63172,10.31965 2.08436,4.65233 4.48104,9.94051 5.32597,11.75155 0.84492,1.81099 1.53621,3.34632 1.53621,3.4118 0,0.0654 0.46219,1.12141 1.02704,2.34647 0.5649,1.22508 2.00706,4.44783 3.20482,7.1617 1.19777,2.7139 2.4598,5.56876 2.80449,6.34411 0.34468,0.775414 1.22268,2.757944 1.95115,4.405664 0.72848,1.64768 1.6065,3.63022 1.95118,4.40561 0.34469,0.77541 1.60779,3.63027 2.80689,6.34412 1.19914,2.71386 2.46588,5.5687 2.81502,6.34411 0.34926,0.77542 2.48949,5.61281 4.75633,10.74974 2.2669,5.13699 4.33699,9.81577 4.60021,10.39731 0.26308,0.58155 1.92315,4.38803 3.68874,8.45882 1.76561,4.0708 3.42378,7.87728 3.68478,8.45883 2.66229,5.93079 5.81256,13.66715 5.66353,13.90822 -0.4375,0.70798 -9.50088,6.48415 -13.22527,8.42864 -6.87965,3.59187 -14.90692,6.59813 -22.55685,8.44762 -1.85204,0.44775 -6.99514,1.46477 -7.40752,1.46477 -0.15568,0 -1.05672,-0.61152 -2.00226,-1.3589 z m -33.26476,0.11689 C 52.761627,184.84946 32.471913,171.25915 18.547255,151.71119 11.068563,141.21235 5.3683838,127.8538 3.0527359,115.39926 2.8183693,114.13923 2.480898,112.34712 2.3025988,111.41683 c -0.1781601,-0.9303 -0.3242816,-2.33608 -0.3242816,-3.12394 0,-1.65387 -0.7081716,-1.63286 6.1679072,-0.18316 8.8603636,1.86821 11.8508506,2.13111 24.3191176,2.13769 9.40024,0.005 12.37444,-0.11242 15.507812,-0.61194 13.41781,-2.13919 23.708047,-5.6339 33.030448,-11.217554 1.883545,-1.12811 3.756592,-2.05113 4.162393,-2.05113 0.406696,0 1.617032,0.83094 2.695656,1.85036 2.031245,1.919724 6.886361,7.782814 7.23962,8.742644 0.253927,0.69039 -0.656603,41.08922 -1.107926,49.14741 -0.869864,15.5313 -3.222762,24.27863 -8.235149,30.61577 -1.625583,2.0552 -4.38544,4.10559 -5.479296,4.07076 -0.515692,-0.0167 -2.615529,-0.40338 -4.666334,-0.85962 z m 97.53929,-37.81529 c -0.32303,-0.35676 -0.58733,-0.75527 -0.58733,-0.88511 0,-0.20979 -1.05223,-2.63114 -3.74493,-8.61821 -0.46033,-1.02346 -0.83693,-1.92437 -0.83693,-2.002 0,-0.078 -0.45646,-1.14353 -1.01432,-2.36861 -0.55786,-1.22508 -1.60895,-3.57552 -2.3357,-5.22324 -0.72679,-1.64771 -1.69776,-3.83319 -2.15776,-4.85667 -0.45998,-1.02342 -0.83634,-1.92433 -0.83634,-2.00196 0,-0.0778 -0.45646,-1.14353 -1.01431,-2.3686 -0.55787,-1.22507 -1.60896,-3.57556 -2.33571,-5.22323 -0.72679,-1.64773 -1.69776,-3.83325 -2.15774,-4.85667 -0.46,-1.02342 -0.83637,-1.92433 -0.83637,-2.00202 0,-0.0775 -0.45645,-1.14352 -1.01429,-2.36858 -0.55786,-1.22508 -1.60819,-3.57552 -2.33396,-5.22324 -0.72584,-1.64768 -1.77611,-3.99816 -2.33396,-5.223234 -0.55791,-1.22507 -1.01432,-2.29092 -1.01432,-2.36859 0,-0.0775 -0.37631,-0.97855 -0.83634,-2.00199 -0.46,-1.02347 -1.43176,-3.20894 -2.15949,-4.85666 -0.72774,-1.64772 -1.69952,-3.8332 -2.15951,-4.85665 -0.84971,-1.89058 -1.04952,-2.90094 -0.57201,-2.8927 0.14535,0.003 1.27952,0.32262 2.52028,0.71164 5.56323,1.74379 12.8493,3.13479 20.47714,3.90945 3.35184,0.34052 19.51789,0.4803 23.94674,0.20731 1.02352,-0.0632 1.25271,0.0632 1.46281,0.80629 0.49117,1.73736 0.33385,16.941744 -0.21855,21.123774 -1.05486,7.98472 -2.9714,15.74914 -5.44319,22.05145 -2.76724,7.05559 -7.21981,15.55 -10.67143,20.35849 -1.15474,1.6086 -1.2295,1.65157 -1.79231,1.0296 z m 297.0574,-12.73174 c -5.49495,-0.45688 -9.95668,-1.65155 -14.03415,-3.75789 -0.93413,-0.48252 -1.98308,-0.78697 -2.33108,-0.67649 -0.34802,0.11024 -1.30933,1.00327 -2.13639,1.98411 -2.35691,2.79516 -2.40477,2.61083 -2.47966,-9.55431 -0.0332,-5.71848 -0.047,-10.67484 -0.0251,-11.01407 0.0537,-0.88922 1.0032,-0.75959 1.2909,0.17609 0.51672,1.68111 3.12013,6.55954 4.97558,9.32368 5.16409,7.69308 11.94147,11.68612 20.38081,12.00778 6.14,0.23395 11.02914,-1.4196 14.74037,-4.9855 4.92343,-4.73061 6.40609,-12.77457 3.47277,-18.84052 -1.72369,-3.56445 -6.92803,-7.2785 -13.1026,-9.35053 -8.76507,-2.94141 -16.44088,-5.739224 -18.283,-6.664114 -4.44284,-2.23064 -8.38105,-6.20532 -10.73291,-10.83233 -1.79238,-3.52623 -2.18081,-5.31989 -2.1369,-9.86858 0.062,-6.43841 1.67062,-10.79807 5.54286,-15.02399 5.30004,-5.784 12.76416,-8.588577 22.86108,-8.589736 6.19485,-7.12e-4 10.76219,1.025959 16.10898,3.621186 l 3.66769,1.78017 1.09039,-1.23301 c 0.5997,-0.67821 1.37553,-1.58711 1.72403,-2.0198 1.37794,-1.710739 1.48104,-1.013638 1.48104,10.0105 0,7.66848 -0.11071,10.55172 -0.4092,10.65117 -0.22979,0.0766 -1.1016,-1.32528 -1.98982,-3.20033 -2.32419,-4.90641 -4.55315,-8.15247 -7.81546,-11.38177 -4.78036,-4.7319 -10.27421,-6.8628 -16.28863,-6.31776 -5.03671,0.45641 -8.6347,2.04555 -11.45288,5.05842 -2.90896,3.10992 -4.15327,6.45951 -4.15389,11.18194 0,5.95662 2.10579,9.55815 7.6779,13.12652 2.73103,1.74895 6.19655,3.16697 14.98899,6.13315 10.79613,3.64207 13.80077,5.16658 17.63717,8.948734 8.10753,7.99279 8.35717,22.06998 0.54262,30.59815 -4.07342,4.44541 -8.32607,6.6611 -15.65442,8.15623 -3.04011,0.62021 -10.89724,0.90677 -15.15541,0.55278 z m -206.00752,-0.5477 c -9.41402,-1.22178 -17.04768,-4.10707 -23.3192,-8.81392 -5.33222,-4.00191 -8.93613,-8.41244 -11.77196,-14.40684 -7.88915,-16.676144 -3.904,-37.805054 9.53894,-50.574524 8.95761,-8.50887 22.64878,-12.826474 37.01775,-11.673799 8.36212,0.670799 16.45544,3.136209 22.04817,6.716429 0.88926,0.56927 1.88033,1.03505 2.20242,1.03505 0.59343,0 2.29299,-1.55614 4.37201,-4.00313 0.62829,-0.73948 1.34201,-1.27798 1.58603,-1.19668 0.5741,0.19107 0.83569,25.21474 0.26935,25.78092 -0.53777,0.5378 -1.23373,-0.37381 -1.93125,-2.52995 -3.192,-9.86647 -11.36575,-18.56464 -20.77274,-22.10541 -16.59348,-6.24579 -33.76255,2.83738 -40.64604,21.50343 -1.98704,5.38834 -2.61303,8.17671 -3.27039,14.5667 -0.6412,6.23338 0.23103,13.706904 2.34741,20.114784 3.17626,9.61662 9.13636,16.82777 17.21882,20.83314 4.93059,2.44341 8.38685,3.25203 13.9106,3.25456 5.428,0.003 8.49416,-0.64899 12.99956,-2.7619 4.07797,-1.91243 6.91942,-3.92232 10.02583,-7.09166 4.04387,-4.12584 6.64521,-8.36378 8.17666,-13.32099 0.58233,-1.88494 0.91531,-2.46711 1.41094,-2.46711 0.61918,0 0.64478,0.55272 0.56144,12.11354 -0.0479,6.66249 -0.1715,12.33257 -0.27392,12.60015 -0.29889,0.77862 -1.18256,0.56489 -1.99602,-0.48271 -1.80903,-2.32963 -3.54509,-3.96507 -4.20906,-3.96507 -0.39463,0 -1.44952,0.46989 -2.34453,1.04419 -7.76708,4.98413 -21.31455,7.36696 -33.15087,5.8308 z m 58.23951,-0.61002 c 0.0792,-0.23729 1.24224,-0.8321 2.5846,-1.3217 3.40181,-1.24054 4.37066,-1.82933 6.10313,-3.70884 4.39851,-4.77182 5.04371,-10.4936 5.10698,-45.290764 l 0.0421,-23.08555 -0.91494,-1.93849 c -1.53245,-3.24679 -4.04576,-5.12303 -8.57497,-6.4014 -0.95478,-0.26934 -1.80067,-0.68407 -1.87971,-0.92127 -0.11149,-0.33469 2.63063,-0.43122 12.23277,-0.43122 h 12.37653 l 1.00736,2.20279 c 0.5541,1.21153 2.07723,4.66117 3.38477,7.6658 1.30754,3.00467 2.73217,6.25602 3.16582,7.22526 0.43368,0.96922 1.38392,3.11036 2.11166,4.75808 0.72773,1.64773 1.69954,3.8332 2.15949,4.85667 0.46,1.02342 0.83636,1.92379 0.83636,2.00084 0,0.077 0.55511,1.34179 1.23356,2.81065 0.6785,1.46884 1.2336,2.73817 1.2336,2.82075 0,0.0824 0.45845,1.15248 1.01881,2.37754 2.03765,4.4548 2.85813,6.30437 2.85813,6.4427 0,0.0778 0.45646,1.14352 1.01432,2.368584 0.55786,1.22507 1.60817,3.57553 2.33396,5.22323 0.72582,1.64768 1.7761,3.99819 2.33395,5.22326 0.55791,1.22507 1.01437,2.2909 1.01437,2.36859 0,0.54012 1.85402,4.03904 2.14025,4.03904 0.34302,0 2.07907,-3.49051 4.90874,-9.86864 0.73103,-1.64772 2.06096,-4.55685 2.95546,-6.46479 0.89456,-1.907944 1.62642,-3.522564 1.62642,-3.588044 0,-0.0654 0.45887,-1.12138 1.01971,-2.34645 0.56086,-1.22507 2.87868,-6.4304 5.15061,-11.56735 5.02975,-11.37253 5.20133,-11.76171 6.06041,-13.74558 0.37756,-0.87232 0.96303,-2.22044 1.30066,-2.99585 0.33762,-0.77539 1.5989,-3.70955 2.80274,-6.52032 l 2.18881,-5.11055 12.12758,-0.0928 c 7.39234,-0.0566 12.25942,0.0374 12.46524,0.24477 0.21521,0.21523 0.0332,0.4013 -0.50637,0.51318 -5.22137,1.08601 -6.49266,1.68782 -8.36595,3.96046 -1.70593,2.06962 -2.15021,3.93132 -2.55434,10.7037 -0.53671,8.99303 -0.25851,58.240544 0.33926,60.042714 0.90175,2.71931 4.94766,5.75915 8.74169,6.56803 3.14692,0.67092 3.31588,0.72928 3.10387,1.07238 -0.13283,0.21438 -7.57114,0.34218 -19.95729,0.34218 -15.63994,0 -19.71529,-0.0915 -19.59901,-0.44059 0.0807,-0.24228 1.42246,-0.70522 2.98165,-1.02871 3.61376,-0.74973 5.76285,-1.73545 7.72295,-3.54222 1.62192,-1.49502 2.21607,-2.53223 2.98411,-5.20958 0.58603,-2.04278 0.92099,-65.908274 0.34552,-65.908274 -0.37757,0 -0.42798,0.10205 -3.9053,7.93015 -1.20551,2.71386 -2.64941,5.93662 -3.20865,7.16169 -0.55923,1.22507 -1.01676,2.28101 -1.01676,2.34648 0,0.0654 -0.71371,1.64652 -1.58602,3.51342 -0.87232,1.86689 -1.58603,3.45291 -1.58603,3.52453 0,0.0716 -0.72999,1.69117 -1.62226,3.5991 -0.89221,1.90794 -4.00223,8.78215 -6.91116,15.276074 -2.90894,6.49389 -5.64644,12.60011 -6.08341,13.56934 -1.53278,3.39984 -2.95268,6.74049 -4.9437,11.63087 -2.32472,5.71003 -2.56062,6.09743 -3.17019,5.20633 -0.23478,-0.34342 -2.05272,-4.43092 -4.03955,-9.08328 -1.98681,-4.65234 -4.072,-9.46113 -4.63381,-10.68621 -0.56177,-1.22506 -1.02143,-2.29095 -1.02143,-2.36859 0,-0.0779 -0.37632,-0.97859 -0.83631,-2.00201 -0.45999,-1.02348 -1.43208,-3.20895 -2.16017,-4.85667 -0.7281,-1.64768 -1.60584,-3.63022 -1.95052,-4.40562 -0.34467,-0.7754 -1.60779,-3.630264 -2.80689,-6.344114 -1.19909,-2.71386 -2.46221,-5.5687 -2.80693,-6.34411 -0.34468,-0.77541 -1.22267,-2.75795 -1.95115,-4.40563 -2.06997,-4.68195 -2.66016,-6.00072 -3.78592,-8.45881 -0.57695,-1.26003 -1.75592,-3.87699 -2.61973,-5.81544 -3.12282,-7.00755 -3.41875,-7.58671 -3.72154,-7.2839 -0.16818,0.16817 -0.3372,13.77092 -0.37591,30.22853 -0.0654,27.799704 -0.0249,30.112184 0.56735,32.589554 1.42284,5.9494 4.16742,8.53588 10.79011,10.16841 1.24531,0.30679 2.32909,0.75638 2.40847,0.99869 0.11412,0.348 -3.02135,0.44059 -14.89368,0.44059 -11.7065,0 -15.00599,-0.0958 -14.89401,-0.43161 z M 26.297558,106.40704 c -8.77053,-1.20699 -16.7512569,-4.1379 -23.8761446,-8.768474 -1.0973652,-0.71321 -1.14315,-0.83552 -1.1454385,-3.06075 -0.00773,-6.53647 1.386052,-15.77319 3.5303125,-23.41106 C 14.007787,38.39057 40.389151,12.751987 73.349738,4.5531768 c 7.762427,-1.930877 11.121599,-2.340049 20.830426,-2.537243 9.469216,-0.192308 14.821036,0.195246 20.874006,1.511067 1.29356,0.281404 3.06566,0.65747 3.93798,0.836141 5.10027,1.044405 13.37741,4.111102 20.0897,7.4431682 18.11232,8.991378 33.08356,23.863615 42.37044,42.09034 2.89656,5.684846 5.5637,12.654716 7.14828,18.679916 0.65826,2.50306 1.93908,8.52858 1.93908,9.12241 0,0.95641 -3.38345,1.41889 -10.39732,1.42118 -5.11792,0.002 -7.36125,-0.14489 -9.51617,-0.62191 -5.04429,-1.11664 -13.35453,-4.11074 -17.09385,-6.15875 -6.64825,-3.64126 -13.67302,-10.41826 -19.79264,-19.09454 -4.02276,-5.703461 -9.04735,-15.00092 -11.04745,-20.442163 -0.53439,-1.453856 -1.14939,-2.801977 -1.36661,-2.995848 -0.25935,-0.231444 -8.68973,-0.29181 -24.537864,-0.176088 l -24.142885,0.176088 -0.107001,1.101942 -0.107465,1.101927 3.984139,0.95446 c 5.939818,1.422961 9.366299,3.191124 12.683306,6.544885 3.986258,4.030466 5.574204,7.719007 5.663254,13.154887 0.04159,2.47016 -0.138236,3.41194 -1.278602,6.74776 -5.728522,16.75371 -18.163993,30.58339 -34.266296,38.108034 -3.307482,1.54555 -8.132632,3.26472 -11.187052,3.98584 -5.978026,1.41131 -15.232902,1.79475 -21.731663,0.90036 z"
       id="path836" />
  </g>
</svg>
