<?xml version="1.0" encoding="UTF-8" standalone="no"?>
<!-- Created with Inkscape (http://www.inkscape.org/) -->

<svg
   width="1920"
   height="734"
   viewBox="0 0 507.99999 194.20434"
   version="1.1"
   id="svg5"
   inkscape:version="1.1 (c68e22c387, 2021-05-23)"
   sodipodi:docname="DeFi Aliance.svg"
   xmlns:inkscape="http://www.inkscape.org/namespaces/inkscape"
   xmlns:sodipodi="http://sodipodi.sourceforge.net/DTD/sodipodi-0.dtd"
   xmlns="http://www.w3.org/2000/svg"
   xmlns:svg="http://www.w3.org/2000/svg">
  <sodipodi:namedview
     id="namedview7"
     pagecolor="#ffffff"
     bordercolor="#666666"
     borderopacity="1.0"
     inkscape:pageshadow="2"
     inkscape:pageopacity="0.0"
     inkscape:pagecheckerboard="0"
     inkscape:document-units="mm"
     showgrid="false"
     inkscape:zoom="0.67081229"
     inkscape:cx="967.48376"
     inkscape:cy="114.78621"
     inkscape:window-width="2560"
     inkscape:window-height="1346"
     inkscape:window-x="-11"
     inkscape:window-y="-11"
     inkscape:window-maximized="1"
     inkscape:current-layer="layer1"
     units="px"
     width="1920px" />
  <defs
     id="defs2" />
  <g
     inkscape:label="Warstwa 1"
     inkscape:groupmode="layer"
     id="layer1">
    <path
       style="fill:#ffffff;stroke-width:0.397449"
       d="m 19.90017,192.33711 c -7.428116,-1.29119 -14.2535332,-6.98814 -16.9957412,-14.18575 -3.12063043,-8.19089 -1.5297329,-17.02132 4.1770678,-23.18521 5.1498764,-5.56233 9.6894474,-7.60084 17.0033124,-7.63539 6.773479,-0.032 9.656955,1.19568 8.031019,3.41929 -0.469431,0.64197 -0.620692,0.64513 -2.285338,0.0475 -4.232836,-1.51942 -10.292586,-1.02789 -14.669191,1.18991 -2.455718,1.2444 -6.3455868,4.82204 -7.9336564,7.29684 -4.9709112,7.74649 -3.8006621,18.04909 2.7999024,24.64965 10.205228,10.20524 27.196023,6.64942 32.90982,-6.88732 l 1.008443,-2.38913 0.198726,-22.05841 0.198726,-22.0584 h 1.192353 1.192342 v 21.85968 c 0,24.34201 0.05104,23.80469 -2.720227,28.6163 -4.930308,8.56014 -14.401392,13.00754 -24.107558,11.32035 z m 57.033883,0.12554 c -1.420822,-0.19035 -5.162787,-1.43112 -6.5579,-2.17448 -4.972601,-2.64955 -9.46972,-7.97809 -11.359838,-13.45997 -1.046062,-3.03389 -1.039831,-10.78506 0.01127,-13.87972 1.607661,-4.73381 5.898034,-10.02657 10.249718,-12.6444 6.080897,-3.65808 15.909268,-3.88199 21.965018,-0.5004 5.489633,3.06547 9.392309,7.86704 11.333709,13.94415 0.43366,1.35749 0.78847,2.53429 0.78847,2.6151 -1e-5,0.0808 -7.511777,0.14695 -16.692845,0.14695 H 69.978804 v -1.19234 -1.19234 h 14.705603 c 16.371603,0 15.382553,0.19184 14.034044,-2.72208 -2.13258,-4.60817 -7.384336,-9.05035 -12.40385,-10.49172 -8.601475,-2.46996 -17.102782,0.94119 -22.459889,9.01202 -2.341602,3.52776 -3.131649,6.5393 -2.926964,11.15713 0.160432,3.61937 0.313766,4.25858 1.716145,7.15407 1.715491,3.54198 5.55492,7.78288 8.328527,9.19943 7.578105,3.87029 16.875778,2.9008 22.69763,-2.36673 l 2.030293,-1.83699 0.950569,1.01922 0.950579,1.01923 -1.588363,1.37908 c -5.599331,4.86156 -11.888023,6.77819 -19.078974,5.81479 z m 125.196337,-0.10106 c -8.71939,-1.89432 -16.37175,-9.61832 -17.73668,-17.90273 -0.53707,-3.2597 -0.18503,-9.13074 0.70283,-11.72148 2.36194,-6.89194 8.42491,-12.68543 15.39645,-14.71212 3.3758,-0.98137 11.09314,-0.68108 14.24963,0.55448 3.92045,1.5346 9.74998,6.09835 11.22646,8.78883 3.55521,6.47846 3.78398,7.83163 3.78398,22.38188 v 12.19615 h -1.39106 -1.39107 v -12.27904 c 0,-11.37257 -0.062,-12.48018 -0.83968,-15.00369 -1.1863,-3.84942 -2.0107,-5.30462 -4.57319,-8.0724 -3.98199,-4.30103 -8.88495,-6.48954 -14.65829,-6.54294 -5.68201,-0.0526 -10.45368,2.02047 -14.80442,6.43174 -5.46602,5.54206 -6.82091,14.57719 -3.31154,22.08326 2.1773,4.65695 6.61592,8.65463 11.55806,10.40987 2.89643,1.02869 10.1498,1.06458 12.46881,0.0617 0.84643,-0.36604 1.58486,-0.66555 1.64093,-0.66555 0.19633,0 1.0988,2.41138 0.94744,2.53153 -1.69244,1.34355 -9.73319,2.2286 -13.26866,1.4605 z m 113.86905,0.12741 c -7.78551,-1.53962 -14.49223,-7.14861 -17.5193,-14.65183 -0.85252,-2.11316 -0.96207,-2.99565 -0.96207,-7.75024 0,-4.38137 0.14251,-5.73008 0.77689,-7.3528 2.59106,-6.62782 7.21389,-11.46146 13.42419,-14.0364 2.09738,-0.86963 3.25065,-1.05768 7.28662,-1.1881 5.96261,-0.19269 9.00743,0.59333 13.34205,3.44424 4.81632,3.16773 7.80744,7.00751 9.53228,12.23694 0.84264,2.55478 0.90778,3.52663 1.05487,15.73935 l 0.1568,13.01644 h -1.38686 -1.38685 l -0.18036,-12.81772 c -0.20024,-14.22869 -0.34417,-15.20985 -2.83247,-19.30603 -4.40528,-7.25185 -13.22384,-11.17162 -21.17233,-9.4109 -6.66612,1.47664 -11.65797,5.46345 -14.52393,11.59971 -1.21577,2.60308 -1.26602,2.91302 -1.27705,7.87654 l -0.0115,5.16684 1.48636,3.05481 c 2.53497,5.20992 6.86834,9.2048 11.80794,10.88564 2.92825,0.99641 10.20291,1.01952 12.46881,0.0397 0.84645,-0.36604 1.58487,-0.66553 1.64094,-0.66553 0.19635,0 1.09879,2.41137 0.94745,2.53151 -0.084,0.0668 -0.9577,0.4379 -1.94138,0.82479 -1.78367,0.70152 -8.59372,1.1858 -10.73112,0.76313 z m 114.86268,-0.13909 c -5.42447,-1.06677 -9.77621,-3.79644 -13.92336,-8.73355 -1.52811,-1.81918 -3.58084,-6.55756 -4.25436,-9.82039 -0.55182,-2.6733 -0.59522,-3.76069 -0.24598,-6.16046 1.79281,-12.3197 11.8905,-20.83782 23.78925,-20.0679 3.41877,0.22121 5.74405,0.74843 8.34642,1.89238 2.1002,0.92323 5.67298,3.48621 6.52218,4.67881 l 0.82315,1.156 -1.01779,0.66687 c -0.91297,0.59822 -1.11146,0.60549 -1.92774,0.0706 -0.50047,-0.32792 -1.15861,-0.84004 -1.46254,-1.13802 -0.30393,-0.298 -1.62567,-1.18365 -2.93726,-1.96812 -7.51238,-4.49328 -17.07233,-3.19422 -23.4143,3.18165 -9.22291,9.27223 -7.57242,23.62966 3.54187,30.81044 3.23205,2.08819 5.76738,2.77311 10.30509,2.78396 5.83033,0.014 8.44316,-0.96241 13.50701,-5.0472 l 1.40224,-1.13115 0.9836,0.77371 0.98361,0.77371 -1.46856,1.38807 c -4.18753,3.9579 -8.51085,5.80914 -14.18698,6.07484 -1.96737,0.0921 -4.38187,0.009 -5.36555,-0.18429 z m 49.28363,0.0493 c -8.61757,-1.38962 -16.8126,-9.62254 -18.28861,-18.37312 -0.93765,-5.5592 0.005,-10.96284 2.67695,-15.37772 3.20025,-5.28382 7.58149,-8.73369 13.29584,-10.46937 3.53229,-1.0729 10.38347,-0.91131 13.92435,0.32841 6.8681,2.40465 13.31997,9.68742 14.62813,16.51199 l 0.28569,1.49043 h -16.44079 -16.44074 v -1.19234 -1.19235 h 14.70561 c 8.08808,0 14.7056,-0.1086 14.7056,-0.24126 0,-0.1327 -0.53028,-1.35233 -1.17836,-2.71029 -3.18627,-6.67619 -10.17477,-11.02571 -17.70046,-11.01644 -5.43793,0.007 -10.17409,2.09826 -14.18872,6.26597 -3.50311,3.63671 -4.87447,6.26366 -5.55502,10.641 -1.49174,9.59536 4.2258,18.78255 13.64493,21.92522 1.51452,0.50533 3.32227,0.70491 6.29754,0.69528 3.79038,-0.0123 4.45722,-0.13191 7.26913,-1.30412 1.98359,-0.82688 3.8433,-1.97364 5.17602,-3.19166 l 2.08009,-1.90107 0.96437,0.78092 c 1.19242,0.96555 0.92152,1.5072 -1.8138,3.62664 -4.02715,3.12042 -8.04298,4.63046 -12.88091,4.84352 -1.85808,0.0818 -4.18315,0.019 -5.16684,-0.13964 z M 114.9944,169.59011 c 0.16874,-24.82538 0.14641,-24.59925 2.89119,-29.2825 3.19205,-5.4464 10.57902,-9.56811 17.1481,-9.56811 h 2.51128 v 1.19235 c 0,1.01214 -0.1527,1.19235 -1.01037,1.19235 -2.33828,0 -7.32579,1.35891 -9.85598,2.68538 -4.20077,2.20228 -7.40953,6.37162 -8.06675,10.48162 l -0.24603,1.5386 h 4.64545 4.64545 l -0.12336,1.49044 -0.12335,1.49042 -4.76938,0.19873 -4.76939,0.19872 -0.10298,20.36924 -0.10297,20.36925 h -1.41143 -1.41143 z m 25.73016,0.29809 v -22.0584 h 1.39107 1.39107 v 22.0584 22.0584 h -1.39107 -1.39107 z m 103.03613,-8.64451 0.10184,-30.70292 h 1.39107 1.39107 l 0.10185,30.70292 0.10184,30.70291 h -1.59469 -1.59471 z m 19.07753,0 0.10185,-30.70292 h 1.19234 1.19235 l 0.10185,30.70292 0.10185,30.70291 h -1.39598 -1.39597 z m 18.58318,8.64451 v -22.0584 h 1.58979 1.5898 v 22.0584 22.0584 h -1.5898 -1.58979 z m 74.32803,8.86841 c 0.006,-15.48776 0.11689,-16.14824 3.62382,-21.58676 2.54658,-3.94921 8.34539,-8.10981 13.0639,-9.37325 2.65313,-0.71041 9.70026,-0.62225 12.32091,0.15414 6.72301,1.99174 12.74352,7.54289 15.10639,13.92872 1.29707,3.50543 1.58034,6.8404 1.58344,18.64049 l 0.005,11.42665 h -1.58981 -1.58979 l -0.005,-11.8241 c 0,-6.50325 -0.17547,-12.88164 -0.38715,-14.1742 -0.57574,-3.51574 -2.42154,-6.96156 -5.27267,-9.84329 -7.5286,-7.60932 -18.29647,-8.30957 -26.68443,-1.73534 -2.14344,1.67995 -5.2102,5.82771 -6.28943,8.50642 -0.8602,2.13505 -0.91329,2.88195 -1.10558,15.55726 l -0.20202,13.31452 -1.29171,0.12455 -1.2917,0.12455 0.006,-13.24036 z m -214.93774,-43.34709 0.11165,-4.86875 h 1.19235 1.19234 l 0.11154,4.86875 0.11165,4.86875 h -1.41554 -1.41554 z m 140.69684,0 0.11165,-4.86875 h 1.39107 1.39107 l 0.11165,4.86875 0.11153,4.86875 h -1.61426 -1.61427 z m -79.08006,-29.98977 -0.89426,-0.17225 v -9.888866 -9.88887 l 28.1195,-0.14344 c 30.96056,-0.15795 29.66105,-0.0596 36.20547,-2.74048 8.14128,-3.33505 13.39788,-8.69602 17.16569,-17.50651 2.23268,-5.22083 2.84762,-10.95913 1.80144,-16.81043 -0.93929,-5.25347 -2.94478,-9.80533 -6.12765,-13.90791 -2.34707,-3.02527 -2.68292,-3.35571 -6.14089,-6.04183 -3.14963,-2.44662 -5.45924,-3.60192 -9.63528,-4.8197 -5.30725,-1.54766 -7.68897,-1.66089 -34.93471,-1.66089 H 201.53421 V 11.669334 1.5001142 l 29.90802,0.18099 c 33.75743,0.20428 33.38721,0.17397 41.57727,3.40451 10.18425,4.0171595 17.34374,9.5898098 24.07653,18.7401998 5.70131,7.74853 9.35062,19.30501 9.35023,29.60992 -1.8e-4,4.62753 -0.88825,11.4544 -1.7621,13.54582 -0.33451,0.80057 -0.60968,1.74673 -0.61151,2.10258 -0.008,1.45684 -3.96626,9.65384 -6.45484,13.36536 -5.35289,7.98339 -11.82152,13.55272 -20.75393,17.868676 -10.26585,4.96024 -14.14284,5.38374 -48.70061,5.31978 -13.66229,-0.0252 -25.24296,-0.12347 -25.7348,-0.2182 z"
       id="path836" />
  </g>
</svg>
