<?xml version="1.0" encoding="UTF-8" standalone="no"?>
<!-- Created with Inkscape (http://www.inkscape.org/) -->

<svg
   width="1920"
   height="565"
   viewBox="0 0 507.99999 149.4897"
   version="1.1"
   id="svg5"
   inkscape:version="1.1 (c68e22c387, 2021-05-23)"
   sodipodi:docname="Divergence Ventures.svg"
   xmlns:inkscape="http://www.inkscape.org/namespaces/inkscape"
   xmlns:sodipodi="http://sodipodi.sourceforge.net/DTD/sodipodi-0.dtd"
   xmlns="http://www.w3.org/2000/svg"
   xmlns:svg="http://www.w3.org/2000/svg">
  <sodipodi:namedview
     id="namedview7"
     pagecolor="#ffffff"
     bordercolor="#666666"
     borderopacity="1.0"
     inkscape:pageshadow="2"
     inkscape:pageopacity="0.0"
     inkscape:pagecheckerboard="0"
     inkscape:document-units="mm"
     showgrid="false"
     inkscape:zoom="0.47433592"
     inkscape:cx="1134.2173"
     inkscape:cy="-132.81727"
     inkscape:window-width="2560"
     inkscape:window-height="1346"
     inkscape:window-x="-11"
     inkscape:window-y="-11"
     inkscape:window-maximized="1"
     inkscape:current-layer="layer1"
     units="px"
     width="1920px" />
  <defs
     id="defs2" />
  <g
     inkscape:label="Warstwa 1"
     inkscape:groupmode="layer"
     id="layer1">
    <path
       style="fill:#ffffff;stroke-width:0.572286"
       d="m 68.039163,147.96907 c -6.075167,-1.43182 -11.51011,-5.89261 -14.2372,-11.6853 -6.381643,-13.55553 -1.492022,-29.5404 10.820264,-35.37298 3.493868,-1.655135 4.349446,-1.822161 9.285194,-1.812763 4.649963,0.006 5.902132,0.227118 8.65296,1.508053 7.629031,3.55268 11.006712,9.1724 12.239098,20.3634 l 0.392983,3.5687 -18.223447,0.15139 -18.223459,0.15142 0.19575,2.27044 c 0.464832,5.39018 3.645691,10.60219 7.773164,12.73656 2.302275,1.19058 8.566406,1.60087 11.660556,0.76381 3.041509,-0.82287 6.444939,-3.81447 7.827414,-6.88027 l 1.04133,-2.30924 h 3.872948 3.872963 l -0.589279,2.14607 c -0.867692,3.15996 -2.005024,5.12948 -4.567051,7.90896 -5.280728,5.72895 -14.005393,8.3279 -21.79421,6.49222 z m 19.030818,-30.21018 c 0,-0.27509 -0.37149,-1.55322 -0.825509,-2.84004 -1.988534,-5.63616 -5.791322,-8.20225 -12.201583,-8.23368 -4.499772,-0.0203 -7.570594,1.08446 -10.363408,3.73417 -1.840321,1.74599 -4.039823,5.59945 -4.066622,7.12454 -0.0095,0.5529 3.109217,0.71534 13.72227,0.71534 7.55417,0 13.734852,-0.22509 13.734852,-0.50019 z m 104.566529,30.24153 c -4.82317,-1.21314 -8.39963,-3.99973 -10.53988,-8.21198 -2.79512,-5.50103 -3.09758,-7.65832 -3.43981,-24.53373 l -0.32209,-15.880897 h 4.08416 4.08414 V 113.5607 c 0,15.76648 0.5392,19.46367 3.35573,23.01168 2.49986,3.14902 4.83151,4.09566 9.57232,3.88611 5.39458,-0.2386 8.05583,-1.93132 10.33621,-6.57528 l 1.63016,-3.31982 0.17668,-15.59479 0.17669,-15.594787 h 3.97235 3.97236 v 24.035977 24.03597 h -4.006 -4.00599 v -2.9492 -2.94921 l -2.10609,2.16858 c -1.15835,1.19273 -3.17894,2.64314 -4.4902,3.22316 -2.84691,1.25931 -9.43203,1.82067 -12.4508,1.06133 z m 80.70848,-0.0338 c -17.27279,-4.07091 -22.96097,-29.08563 -9.71339,-42.71639 1.36441,-1.40384 4.15146,-3.32577 6.29646,-4.34189 3.48769,-1.652153 4.35936,-1.823101 9.29763,-1.823101 5.00382,0 5.76136,0.154107 9.26951,1.880971 4.5481,2.23927 7.94485,5.83535 9.54066,10.10052 0.95885,2.56277 2.35194,10.06631 2.35194,12.66815 0,0.6906 -2.7906,0.81707 -18.02697,0.81707 h -18.02699 v 1.89908 c 0,3.88003 1.71607,7.98818 4.49868,10.76963 3.72645,3.72483 9.28341,4.94095 15.1426,3.314 2.78876,-0.77441 6.36028,-3.99135 7.63241,-6.87472 l 0.98855,-2.24057 h 3.84973 3.84974 l -0.58928,2.14607 c -0.86769,3.15997 -2.00502,5.12948 -4.56704,7.90896 -5.28073,5.72897 -14.0054,8.3279 -21.79422,6.49222 z m 18.74379,-31.56974 c -0.68292,-3.36057 -3.24157,-6.84417 -6.11177,-8.3212 -3.51014,-1.80642 -9.36796,-1.93823 -13.08386,-0.29471 -3.632,1.60662 -7.98703,6.99653 -7.98703,9.88497 0,0.38934 4.68907,0.59076 13.78032,0.59076 h 13.78032 z m 25.46759,31.27469 c -4.89013,-1.30662 -8.76595,-4.17459 -10.51168,-7.7783 -0.80921,-1.67048 -1.64287,-4.14424 -1.85256,-5.49732 l -0.38122,-2.46017 3.90615,0.171 3.90615,0.17102 0.5116,1.98209 c 1.28809,4.99023 5.05406,7.42743 11.50875,7.44805 7.61578,0.027 10.65368,-1.92187 10.65368,-6.82498 0,-2.1821 -0.29106,-2.94948 -1.57379,-4.14966 -2.76434,-2.5863 -6.32984,-3.84751 -13.59177,-4.8078 -3.57479,-0.47247 -8.30647,-2.19595 -10.2696,-3.74017 -3.71145,-2.9194 -4.99319,-10.5807 -2.63804,-15.76818 2.26083,-4.97969 8.51664,-7.838446 17.22445,-7.871235 5.05365,-0.02026 5.75052,0.121668 9.33443,1.886165 4.42143,2.1767 6.75073,4.89028 8.10124,9.43798 1.30672,4.40022 1.31919,4.38076 -2.80504,4.38076 -3.5136,0 -3.67329,-0.0608 -4.05055,-1.57383 -1.50077,-6.01387 -9.29142,-9.20682 -16.37032,-6.70926 -3.19857,1.12853 -4.39833,2.2555 -5.18055,4.86634 -1.42259,4.74819 2.12906,7.32935 12.63859,9.18518 7.49932,1.32421 10.69822,2.6812 13.41821,5.69191 5.20539,5.76168 3.9508,16.13473 -2.40171,19.85753 -4.89602,2.86932 -13.32103,3.77425 -19.5764,2.10288 z M 24.755211,146.15569 C 24.491399,145.44752 19.105899,130.70291 12.787399,113.38998 6.4689006,96.076976 1.1266969,81.462273 0.91583589,80.912749 0.57386328,80.021599 0.95623519,79.914605 4.456609,79.922108 l 3.9241518,0.006 9.7288512,26.670062 c 11.286304,30.93951 10.906253,29.9755 11.363688,28.8248 0.187707,-0.47248 4.466692,-13.06846 9.50889,-27.99186 5.042191,-14.923455 9.266996,-27.232833 9.38846,-27.354301 0.121465,-0.121669 1.867084,-0.143967 3.879159,-0.04734 L 55.908122,80.200477 44.5097,113.82226 33.111276,147.44397 h -3.938212 c -3.560441,0 -3.984219,-0.12369 -4.417853,-1.28763 z M 101.94939,123.40735 V 99.371375 h 3.71986 3.71985 v 4.067925 4.06786 l 2.55844,-2.84558 c 3.75496,-4.17643 7.19537,-5.534896 14.03784,-5.54287 5.86752,-0.006 7.87767,0.648214 11.0689,3.60863 4.55296,4.22334 5.50476,9.24703 5.51743,29.12125 l 0.0101,15.59474 h -3.67269 -3.6727 l -0.24151,-15.88092 c -0.2611,-17.17052 -0.5283,-18.94713 -3.32937,-22.13737 -4.50973,-5.1363 -15.31942,-3.15665 -19.2336,3.52239 -2.45888,4.19575 -3.01755,8.26012 -3.03076,22.04869 l -0.0121,12.44721 h -3.71986 -3.71985 z m 52.78897,23.181 c -1.03989,-0.45219 -2.16294,-1.51758 -2.53967,-2.40982 -0.45274,-1.07229 -0.75209,-7.58944 -0.90812,-19.76966 l -0.23272,-18.17008 h -3.09352 -3.09352 v -3.4337 -3.433715 h 3.1261 3.12609 l 0.16451,-5.293595 0.16453,-5.293656 3.86292,-0.168982 3.86293,-0.168982 v 5.462848 5.462849 h 5.43672 5.43671 v 3.433693 3.43371 h -5.43671 -5.43672 v 16.48182 c 0,12.05618 0.1844,16.66628 0.68674,17.16856 0.42381,0.4238 2.50534,0.68675 5.43672,0.68675 h 4.74997 v 3.4337 3.43372 l -6.72435,-0.0203 c -4.49525,-0.0135 -7.34237,-0.29133 -8.58864,-0.83261 z m 71.96921,-23.181 V 99.371375 h 3.71986 3.71986 v 4.084355 4.08428 l 2.88018,-2.69411 c 3.57995,-3.34861 6.88017,-4.84132 11.69805,-5.291209 l 3.7349,-0.348787 v 3.724826 3.72476 l -2.71836,0.36907 c -7.05488,0.95812 -11.12882,3.57869 -13.69847,8.81159 l -1.61016,3.27892 -0.19433,14.16407 -0.19433,14.16405 h -3.6686 -3.66862 z M 1.2271926,34.130852 V 0.93835204 H 17.823473 34.41974 V 2.9673485 c 0,2.7512945 2.087117,4.838427 4.83841,4.838427 1.972029,0 2.029012,0.060784 2.029012,2.2004165 0,2.854437 1.357051,4.094694 4.480278,4.094694 h 2.387144 v 20.029966 20.030027 h -2.161805 c -3.318849,0 -4.705617,1.274461 -4.705617,4.324591 v 2.542833 h -2.542833 c -2.973456,0 -4.324589,1.380783 -4.324589,4.419488 v 1.875622 H 17.823473 1.2271926 Z M 33.247823,60.020901 c 0.776131,-0.628614 1.366423,-1.919906 1.569463,-3.433712 0.313226,-2.335334 0.401437,-2.42631 2.351102,-2.42631 1.114107,0 2.496604,-0.426512 3.072218,-0.947179 0.972076,-0.879725 1.046556,-2.241781 1.046556,-19.139088 0,-18.150343 -0.0029,-18.194015 -1.271909,-19.082848 -0.699544,-0.490054 -2.083033,-0.890878 -3.074425,-0.890878 -1.67474,0 -1.829761,-0.170326 -2.1869,-2.403802 C 34.542498,10.374969 34.091785,8.9585677 33.752285,8.5494985 32.901408,7.5242427 9.8023209,7.471523 8.781363,8.4954347 8.2681597,9.0084588 8.0946215,15.508249 8.0946215,34.21583 v 25.033584 l 1.271902,0.890939 c 1.0408995,0.729049 3.2121575,0.890879 11.9545925,0.890879 9.344926,0 10.838472,-0.126403 11.926707,-1.007412 z M 58.455721,34.130852 V 0.93835204 h 3.147569 3.147568 V 34.130852 67.323413 H 61.60329 58.455721 Z m 36.626253,27.755881 c 0,-6.460852 -0.749641,-7.725854 -4.578286,-7.725854 H 88.214552 V 45.03673 c 0,-8.779817 -0.04802,-9.157722 -1.271909,-10.015009 -0.699544,-0.490044 -2.11595,-0.890869 -3.147568,-0.890869 h -1.875667 v -8.335741 c 0,-10.436796 -0.497546,-11.668196 -4.721353,-11.685439 l -2.14607,-0.006 V 7.522357 0.9411104 h 3.147576 3.147568 l 0.0081,5.0074792 c 0.0115,6.6334154 0.621721,7.8155464 4.154277,8.0433364 l 2.704734,0.174388 v 8.71169 c 0,10.410908 0.324512,11.255547 4.324589,11.255547 h 2.542833 v 9.067899 c 0,8.058 0.116526,9.173349 1.046564,10.014948 1.493733,1.351855 3.865066,1.195642 4.929984,-0.324443 0.71193,-1.016388 0.89087,-3.028022 0.89087,-10.014948 v -8.743115 h 2.04063 c 4.23089,0 4.25451,-0.06078 4.25451,-10.607403 v -9.422564 h 2.48659 c 3.8179,0 4.38084,-0.980159 4.38084,-7.6278475 V 0.94139125 h 3.14756 3.14758 V 7.5226178 14.103925 h -1.87566 c -1.03162,0 -2.44803,0.400824 -3.14757,0.890879 -1.22393,0.857277 -1.27191,1.235111 -1.27191,10.015008 v 9.12408 h -2.28915 c -1.52609,0 -2.67067,0.381214 -3.43371,1.144607 -1.04611,1.046069 -1.14457,1.907609 -1.14457,10.014948 v 8.870472 l -2.14607,0.006 c -1.18033,0.004 -2.45187,0.203446 -2.82563,0.440695 -1.24735,0.793142 -1.89572,3.588039 -1.89572,8.171905 v 4.541016 H 98.229283 95.081722 Z M 131.70822,34.130852 V 0.93835204 h 20.03 20.02998 V 4.3720538 7.8057755 h -15.69697 c -13.50692,0 -15.82243,0.1257209 -16.59627,0.8992542 -0.73148,0.7314858 -0.89931,2.3870313 -0.89931,8.8704613 0,11.009712 -1.06603,10.260242 14.59327,10.260242 h 12.30414 v 3.147585 3.147534 h -12.30414 c -11.54108,0 -12.3751,0.07091 -13.4487,1.144608 -1.06767,1.067634 -1.14457,1.907609 -1.14457,12.501551 0,10.275728 0.0996,11.447177 1.04657,12.304113 0.91977,0.832401 2.93019,0.947179 16.59627,0.947179 h 15.54971 v 3.147525 3.147585 h -20.02998 -20.03 z m 50.36111,0 V 0.93835204 h 16.52092 16.52092 l 0.32545,2.42630006 c 0.39123,2.9170365 2.02237,4.4411234 4.75308,4.4411234 h 1.93961 V 20.968309 34.130852 h -2.20045 c -2.73098,0 -4.07848,1.356249 -4.50469,4.533915 -0.30383,2.265172 -0.37663,2.333499 -2.4859,2.333499 -5.33224,0 -5.45859,5.974328 -0.14148,6.687498 l 2.35922,0.316329 0.19603,5.419657 c 0.17654,4.881488 0.33012,5.528217 1.54702,6.51304 0.74308,0.601573 2.22388,1.093382 3.29064,1.093382 h 1.93961 v 3.147515 3.147605 h -3.14757 -3.14757 V 65.44766 c 0,-3.038705 -1.35115,-4.419488 -4.32459,-4.419488 h -2.54284 v -5.613515 c 0,-6.719054 -0.43374,-7.545036 -4.18387,-7.967766 -2.67248,-0.301464 -2.68355,-0.311604 -2.68355,-2.476262 0,-3.359697 -1.01523,-3.972493 -6.58128,-3.972493 -3.58483,0 -5.0079,0.225081 -5.68197,0.899324 -0.7616,0.761567 -0.89931,2.777183 -0.89931,13.162543 v 12.263289 h -3.43371 -3.43372 z m 32.87396,-1.271892 c 0.72859,-1.040262 0.89088,-3.206063 0.89088,-11.890651 0,-8.684588 -0.16231,-10.850389 -0.89088,-11.8906405 -0.87232,-1.2454027 -1.14034,-1.271893 -12.8563,-1.271893 -11.24413,0 -12.0011,0.067605 -12.55782,1.1068932 -0.35027,0.6543024 -0.59244,5.6673883 -0.59244,12.2632893 0,9.379032 0.14329,11.29954 0.8993,12.05564 0.75868,0.758659 2.72222,0.899254 12.55781,0.899254 11.39884,0 11.67837,-0.02698 12.54941,-1.271892 z m 30.9839,32.060661 c -0.52102,-3.25824 -1.19199,-3.891318 -4.12413,-3.891318 h -2.50521 v -2.289155 c 0,-3.052226 -1.52609,-4.578269 -4.57827,-4.578269 h -2.28915 V 34.130852 14.100886 h 2.54283 c 2.97346,0 4.32459,-1.380783 4.32459,-4.4194782 0,-1.7503828 0.12952,-1.8756323 1.93961,-1.8756323 2.73071,0 4.36181,-1.5240869 4.75308,-4.4411234 l 0.32545,-2.42630006 h 13.08721 13.0872 V 3.1180851 c 0,3.0751255 1.01682,4.1770937 4.18387,4.534045 l 2.68356,0.3028173 v 2.3863596 c 0,3.016738 0.75787,3.75992 3.83431,3.75992 h 2.46083 v 3.433711 3.433712 h -3.14758 -3.14756 v -2.289164 c 0,-3.052146 -1.5261,-4.578259 -4.57828,-4.578259 -2.24268,0 -2.28915,-0.04052 -2.28915,-2.040622 0,-4.335544 0.25036,-4.2544985 -13.15024,-4.2544985 -11.71595,0 -11.98397,0.026982 -12.85629,1.271903 -0.48998,0.6995094 -0.89087,2.1159205 -0.89087,3.1475855 0,1.737814 -0.13782,1.875632 -1.87566,1.875632 -1.03161,0 -2.44802,0.400824 -3.14756,0.890868 -1.26913,0.888913 -1.27192,0.930951 -1.27192,19.130713 0,20.40395 -0.0724,20.038412 3.97245,20.038412 2.16487,0 2.17509,0.01354 2.47631,2.68357 0.46186,4.097743 0.73515,4.183854 13.27712,4.183854 12.85365,0 13.46666,-0.196696 13.46666,-4.324591 V 54.16122 h 2.54285 c 3.47996,0 4.32458,-1.285413 4.32458,-6.581306 0,-6.587927 0.0107,-6.581307 -10.90587,-6.581307 h -9.12411 v -3.433712 -3.433712 h 13.16255 13.16257 v 16.596316 16.596255 h -3.14758 -3.14756 v -1.875632 c 0,-2.580618 -1.40533,-4.419478 -3.37746,-4.419478 -2.13328,0 -3.48997,1.630399 -3.48997,4.194125 v 2.100985 h -13.08941 -13.08942 z m 50.0269,-30.788769 V 0.93835204 h 20.02999 20.02999 V 4.3720538 7.8057755 H 320.3171 c -13.50692,0 -15.82244,0.1257209 -16.59628,0.8992542 -0.73411,0.7341238 -0.89929,2.4100813 -0.89929,9.1241403 0,7.850561 0.0582,8.265368 1.2719,9.115684 1.05442,0.738527 3.35397,0.890879 13.4487,0.890879 h 12.1768 v 3.147585 3.147534 h -12.1768 c -10.09473,0 -12.39428,0.152081 -13.4487,0.890869 -1.24329,0.870868 -1.2719,1.15218 -1.2719,12.501621 0,10.521483 0.0982,11.699562 1.04655,12.557782 0.91978,0.832401 2.9302,0.947179 16.59627,0.947179 h 15.54972 v 3.147525 3.147585 h -20.02999 -20.02999 z m 50.3611,0 V 0.93835204 h 3.43372 3.43371 V 3.4811851 c 0,2.9734073 1.38079,4.3245904 4.41947,4.3245904 h 1.87568 v 5.4366895 c 0,6.460852 0.74964,7.725844 4.57827,7.725844 2.26999,0 2.28914,0.02026 2.28914,2.179733 0,3.075196 1.01682,4.177094 4.18387,4.534055 l 2.68355,0.302136 v 5.559782 c 0,6.382976 0.6026,7.45392 4.19414,7.45392 2.00655,0 2.101,0.08716 2.101,1.939646 0,2.546213 1.61002,4.498557 3.70981,4.498557 3.14158,0 3.15762,-0.123012 3.15762,-24.288437 V 0.93801101 h 3.43371 3.43371 V 34.130511 67.323082 h -3.43371 -3.43371 v -2.248271 c 0,-2.847135 -1.18003,-4.046849 -3.98032,-4.046849 h -2.1817 l -0.23266,-5.792086 c -0.20967,-5.220053 -0.36379,-5.898208 -1.56068,-6.867424 -0.73042,-0.591441 -2.20085,-1.075337 -3.26762,-1.075337 -1.81009,0 -1.93961,-0.125049 -1.93961,-1.875702 0,-3.038695 -1.35113,-4.419478 -4.32459,-4.419478 h -2.54283 V 35.38449 c 0,-6.70776 -0.43706,-7.545447 -4.15542,-7.964517 l -2.6551,-0.299437 -0.17148,-2.636256 c -0.14844,-2.28118 -0.38042,-2.709377 -1.72226,-3.178749 -1.04957,-0.367032 -2.02054,-0.328505 -3.0045,0.120314 l -1.45376,0.662407 v 22.617555 22.617545 h -3.43372 -3.43371 z m 70.3911,30.992155 c 0,-2.854437 -1.35706,-4.094704 -4.48027,-4.094704 h -2.38716 V 58.5417 c 0,-3.057963 -1.26653,-4.380821 -4.19413,-4.380821 h -2.10101 V 34.130852 14.100886 h 2.55515 c 2.91358,0 3.73999,-0.923648 3.73999,-4.180073 0,-1.9175392 0.0662,-1.9737093 2.68355,-2.2686829 3.16706,-0.3568911 4.18388,-1.4589195 4.18388,-4.534045 V 0.93835204 h 13.16256 13.16255 V 2.9673485 c 0,2.7512945 2.08712,4.838427 4.83842,4.838427 1.9111,0 2.02901,0.1088197 2.02901,1.8756323 0,3.0386952 1.35113,4.4194782 4.32459,4.4194782 h 2.54283 v 3.433711 3.433712 h -3.43371 -3.43371 v -2.542843 c 0,-2.973467 -1.38079,-4.32458 -4.41948,-4.32458 -1.73782,0 -1.87565,-0.137888 -1.87565,-1.875632 0,-1.031665 -0.40091,-2.4480761 -0.89089,-3.1475855 -0.87191,-1.2448611 -1.14348,-1.271893 -12.76196,-1.271893 -8.47002,0 -12.06784,0.1966859 -12.55782,0.6867404 -0.37772,0.3778446 -0.68674,1.7941151 -0.68674,3.1475251 v 2.460845 h -2.28915 c -1.52609,0 -2.67067,0.381225 -3.43371,1.144547 -1.09499,1.095007 -1.14457,1.907679 -1.14457,18.758074 0,20.282211 -0.027,20.157372 4.32459,20.157372 h 2.54284 v 2.542843 c 0,4.120252 0.62907,4.324581 13.31591,4.324581 10.67399,0 10.78489,-0.01354 12.17678,-1.404715 0.96316,-0.963118 1.40472,-2.042518 1.40472,-3.433702 0,-1.979527 0.0548,-2.029007 2.24825,-2.029007 2.87091,0 4.04688,-1.175982 4.04688,-4.046909 v -2.248281 h 3.43371 3.43371 v 3.147595 3.147595 h -2.28914 c -3.05218,0 -4.57828,1.526043 -4.57828,4.578269 v 2.289155 h -2.50521 c -2.95251,0 -3.77285,0.777525 -4.20287,3.983517 l -0.31005,2.311593 h -13.08721 -13.0872 z m 50.3611,-30.992155 V 0.93835204 h 20.05854 20.05854 l -0.17162,3.29061826 -0.17162,3.2906083 -15.73783,0.14195 c -19.32824,0.1737162 -17.74085,-0.7309443 -17.74085,10.1134974 0,5.61534 0.20819,7.838054 0.81139,8.663966 0.75367,1.031805 1.71054,1.123262 13.4487,1.284942 l 12.63732,0.174388 v 3.116571 3.116561 h -12.30414 c -11.54108,0 -12.3751,0.07092 -13.4487,1.144618 -1.06631,1.06628 -1.14457,1.907608 -1.14457,12.304113 0,10.396504 0.0782,11.237842 1.14457,12.304112 1.08907,1.08912 1.90762,1.144618 16.88242,1.144618 h 15.73784 v 3.147525 3.147584 h -20.02999 -20.02997 z"
       id="path836" />
  </g>
</svg>
