<?xml version="1.0" encoding="UTF-8" standalone="no"?>
<!-- Created with Inkscape (http://www.inkscape.org/) -->

<svg
   width="1920"
   height="530.51965"
   viewBox="0 0 507.99999 140.36697"
   version="1.1"
   id="svg5"
   inkscape:version="1.1 (c68e22c387, 2021-05-23)"
   sodipodi:docname="ei ventures.svg"
   xmlns:inkscape="http://www.inkscape.org/namespaces/inkscape"
   xmlns:sodipodi="http://sodipodi.sourceforge.net/DTD/sodipodi-0.dtd"
   xmlns="http://www.w3.org/2000/svg"
   xmlns:svg="http://www.w3.org/2000/svg">
  <sodipodi:namedview
     id="namedview7"
     pagecolor="#ffffff"
     bordercolor="#666666"
     borderopacity="1.0"
     inkscape:pageshadow="2"
     inkscape:pageopacity="0.0"
     inkscape:pagecheckerboard="0"
     inkscape:document-units="mm"
     showgrid="false"
     inkscape:zoom="0.47433591"
     inkscape:cx="853.8253"
     inkscape:cy="80.112003"
     inkscape:window-width="2560"
     inkscape:window-height="1346"
     inkscape:window-x="-11"
     inkscape:window-y="-11"
     inkscape:window-maximized="1"
     inkscape:current-layer="layer1"
     units="px"
     width="1920px"
     height="526.51965px" />
  <defs
     id="defs2" />
  <g
     inkscape:label="Warstwa 1"
     inkscape:groupmode="layer"
     id="layer1">
    <path
       style="fill:#ffffff;stroke-width:0.4704"
       d="m 6.4377153,138.52328 c -5.1926497,-2.13613 -5.84535298,-3.27526 -5.85165865,-10.21238 -0.003793,-4.20926 0.1882339,-5.67613 1.02978265,-7.86449 1.3894492,-3.61323 4.9026473,-10.55934 6.9950339,-13.83027 0.9358338,-1.46298 1.9009228,-3.38211 2.1446538,-4.26483 0.248684,-0.90062 0.895116,-1.81311 1.473067,-2.07934 0.566454,-0.26113 1.662136,-1.36187 2.434833,-2.446549 5.983045,-8.398699 14.935057,-18.017986 19.535041,-20.991062 4.649114,-3.004849 7.094634,-3.560281 15.676456,-3.560281 h 7.451596 l 1.130875,1.411202 c 1.665678,2.078572 1.620134,7.051454 -0.09717,10.611282 -2.712938,5.62364 -6.465647,10.223826 -12.235672,14.998738 -6.920911,5.72736 -12.718183,8.83445 -19.459608,10.4296 -2.867126,0.67843 -12.271366,0.86311 -14.112692,0.27724 -1.116424,-0.35503 -1.293952,-0.13834 -3.4666974,4.23361 -2.939815,5.91566 -4.0590232,9.46454 -4.0590232,12.87077 0,5.88603 1.4389952,6.75843 10.5840066,6.41673 3.648815,-0.13612 6.925232,-0.51282 8.123574,-0.93412 2.667589,-0.93716 6.702739,-3.40388 9.59604,-5.86609 1.292072,-1.09957 2.609543,-1.99924 2.92771,-1.99924 0.692061,0 2.637498,1.73633 2.637498,2.35399 0,1.89229 -8.729234,8.23269 -13.570284,9.85668 -4.401376,1.47642 -15.8613262,1.83378 -18.8873448,0.58892 z M 25.784027,106.12944 C 30.54202,105.0617 32.72223,104.0588 38.189736,100.42275 47.847028,94.000458 56.26869,83.311607 55.158052,78.886491 l -0.313518,-1.249131 -6.44579,0.195564 c -5.8002,0.176126 -6.704931,0.321687 -9.033002,1.450932 -5.304994,2.573719 -11.519342,8.772612 -19.808862,19.759591 -3.863064,5.120093 -4.688019,6.730463 -3.867956,7.550523 0.591381,0.59138 6.627249,0.31335 10.095111,-0.46447 z m 347.126013,29.97364 c -0.50058,-0.50059 -1.13445,-1.71784 -1.40852,-2.70484 -1.16102,-4.18088 -0.26169,-15.91041 2.06035,-26.87411 0.40058,-1.89262 0.72227,-3.6919 0.71421,-3.99836 -0.006,-0.30668 -1.76078,2.82962 -3.89497,6.96911 -9.48672,18.40089 -13.40913,23.71884 -18.53935,25.13537 -5.82331,1.60794 -8.61965,-4.52867 -7.91683,-17.37377 0.6101,-11.15148 1.97824,-19.853808 5.26439,-33.485342 1.72533,-7.157233 2.34287,-9.013469 3.32543,-9.996027 1.50376,-1.503762 2.72279,-1.535535 3.66629,-0.09558 0.67054,1.023394 0.6351,1.403968 -0.44947,4.821646 -2.62055,8.257574 -5.85982,29.037563 -6.22473,39.931303 -0.24668,7.35975 -0.19723,8.08196 0.61565,9.0658 0.8681,1.05046 0.90966,1.05457 2.3921,0.23502 3.76146,-2.07891 8.03524,-9.03836 19.86653,-32.350668 4.46436,-8.796446 8.69761,-16.734456 9.40728,-17.640007 2.65339,-3.385714 5.67358,-3.494281 5.67358,-0.203914 0,0.904565 -1.0544,4.372839 -2.34309,7.707273 -2.80673,7.262249 -4.27267,12.199444 -5.82977,19.634746 -1.68827,8.0619 -2.68133,15.43448 -2.78807,20.69882 -0.085,4.19165 0.006,4.74731 1.01368,6.08778 1.36597,1.81989 1.05329,3.1643 -1.03156,4.43562 -1.86601,1.13779 -2.4351,1.13773 -3.57307,-1.7e-4 z m 23.04782,-0.91774 c -0.35002,-0.65348 0.13223,-4.09231 1.829,-13.0536 1.26708,-6.69154 2.96702,-16.08253 3.77757,-20.86883 0.8105,-4.786354 2.30298,-12.195151 3.31654,-16.464041 1.01362,-4.26888 1.96607,-8.567208 2.11658,-9.551828 0.3417,-2.234033 1.68016,-3.619338 3.49745,-3.619338 2.86963,0 3.0722,2.992624 0.74933,11.069253 -1.6835,5.853653 -2.61456,9.628332 -2.37488,9.628332 0.0767,0 1.40999,-2.063843 2.96274,-4.586402 4.4359,-7.206392 8.75101,-11.902085 12.89333,-14.030388 4.54268,-2.334038 11.23677,-0.902231 11.56701,2.474096 0.10279,1.048356 -0.16057,1.758283 -0.91183,2.457988 -1.24164,1.156752 -1.79906,1.194088 -4.69653,0.314464 -2.10069,-0.63759 -2.24781,-0.615415 -4.51667,0.680328 -2.94992,1.684778 -7.11079,5.894872 -9.75185,9.867298 -5.65119,8.499871 -10.98747,22.610758 -13.43974,35.539258 -1.12563,5.93465 -2.72812,9.6855 -4.47867,10.48311 -1.62888,0.74215 -1.98585,0.69437 -2.53938,-0.34003 z M 217.2562,134.12239 c -3.95881,-1.95956 -6.22496,-7.06012 -6.55297,-14.74911 -0.65677,-15.39676 5.38839,-33.00486 14.47419,-42.159665 10.13776,-10.214822 21.09901,-5.197169 18.80771,8.609424 -0.71821,4.327726 -2.2826,7.692051 -5.21562,11.216384 -3.11159,3.738957 -7.00061,6.402907 -15.12902,10.363097 l -6.85538,3.33999 -0.33224,3.98864 c -0.59621,7.1573 0.37947,11.79237 2.90157,13.78149 1.15542,0.91134 1.77846,1.03829 4.31089,0.87862 2.44454,-0.1539 3.7798,-0.61282 7.66465,-2.63272 5.93638,-3.08654 7.95584,-3.16954 7.95584,-0.32669 0,1.29874 -2.45949,3.47644 -5.99349,5.30683 -6.81866,3.53156 -12.12411,4.32027 -16.03613,2.38387 z m 6.973,-32.80764 c 4.87003,-2.482652 6.44835,-3.569112 9.21798,-6.345287 3.9647,-3.974196 5.09043,-6.596862 5.11643,-11.920265 0.0222,-4.102201 -0.879,-5.400389 -3.74018,-5.400389 -4.88381,0 -11.52735,8.907448 -15.54782,20.845933 -1.62901,4.837128 -1.93713,6.281168 -1.27536,5.977418 0.1939,-0.0888 2.99708,-1.50987 6.22895,-3.15741 z m 221.09529,33.06765 c -3.24798,-1.40858 -5.40678,-4.53906 -6.58892,-9.55476 -0.94233,-3.99826 -0.34668,-15.98742 1.1008,-22.15353 3.11986,-13.291676 10.05819,-24.936856 17.30087,-29.037397 4.40779,-2.495546 9.2856,-2.267696 11.95082,0.55826 1.82867,1.938896 2.5755,4.425286 2.5755,8.573939 0,10.817016 -6.9135,18.614338 -22.87568,25.800128 l -4.64268,2.09001 -0.14946,5.53315 c -0.18668,6.91905 0.42447,9.96924 2.39199,11.93692 1.41115,1.41114 1.59627,1.46182 4.55341,1.24686 2.51309,-0.18279 3.97142,-0.67098 7.89549,-2.64378 5.02504,-2.52627 6.67226,-2.89535 7.65216,-1.7145 0.90622,1.09185 -0.25613,3.33722 -2.53589,4.89854 -6.50136,4.45267 -14.33086,6.32979 -18.62841,4.46616 z m 6.13945,-32.93409 c 9.78779,-5.037764 13.54292,-9.222806 14.48142,-16.139574 0.46836,-3.451332 0.0278,-6.093384 -1.16662,-6.965282 -1.08874,-0.796049 -3.67218,-0.762989 -5.25134,0.06721 -3.66396,1.926451 -8.73684,9.298474 -11.87208,17.252763 -1.18453,3.00502 -2.83086,8.892163 -2.48673,8.892163 0.14168,0 2.97475,-1.3983 6.29535,-3.10736 z m -169.95966,32.71697 c -0.48502,-0.28946 -0.82321,-1.058 -0.82321,-1.87028 0,-0.75838 1.49626,-10.32639 3.32504,-21.26225 3.62457,-21.674754 4.13843,-27.401016 2.66173,-29.661267 -1.95274,-2.988852 -5.13121,-0.777999 -9.99953,6.955382 -3.70485,5.885274 -13.10394,24.938915 -16.60505,33.661525 -4.18544,10.42751 -5.6233,12.50998 -8.17669,11.84225 -1.58777,-0.41502 -1.30992,-2.56132 4.35294,-33.61874 3.99876,-21.931055 4.65874,-24.83774 5.92727,-26.106319 0.5867,-0.586711 1.61516,-1.066676 2.28549,-1.066676 1.46575,0 3.52799,1.925173 3.52799,3.293486 0,0.541145 -0.82494,3.673284 -1.83312,6.959828 -2.45942,8.016958 -6.66708,27.502521 -6.06817,28.101441 0.0878,0.0878 1.61934,-3.1612 3.40333,-7.21995 9.82992,-22.364025 16.0173,-31.134805 21.96424,-31.134805 5.54496,0 8.00856,4.099032 7.99429,13.301395 -0.0112,5.534189 -0.25613,7.294353 -3.15454,22.44858 -1.16285,6.07973 -2.4177,13.70021 -2.78856,16.93443 -0.96351,8.40364 -1.06668,8.67772 -3.31999,8.81817 -1.01762,0.0634 -2.2207,-0.10557 -2.67346,-0.37614 z m 31.96965,0.0561 c -3.54651,-0.71393 -5.98387,-4.74152 -5.97727,-9.87685 0.005,-4.00214 1.37465,-11.50313 5.22811,-28.635762 2.23815,-9.950904 3.66602,-17.248094 3.42122,-17.484445 -0.23113,-0.223342 -2.2702,-0.258354 -4.5314,-0.07888 -2.26114,0.18002 -4.53674,0.169456 -5.05676,-0.02213 -1.31937,-0.488366 -1.2497,-2.752782 0.12445,-4.043697 0.92761,-0.871394 1.7221,-1.023123 5.97093,-1.140403 l 4.90093,-0.135017 0.85961,-4.87692 c 1.47432,-8.36425 3.93219,-12.718085 6.42624,-11.383285 1.30459,0.698166 1.27309,1.414704 -0.41169,9.362603 -0.77616,3.661574 -1.4112,6.764376 -1.4112,6.895107 0,0.13057 2.72022,0.237789 6.045,0.237789 3.32476,0 6.70298,0.229459 7.50719,0.509484 2.89657,1.009783 2.31609,3.80629 -0.97701,4.706852 -1.28397,0.351135 -4.0288,0.45114 -7.72821,0.281131 l -5.73697,-0.263354 -0.78234,3.615556 c -0.43002,1.988526 -2.01035,8.907518 -3.51127,15.37554 -4.05931,17.493331 -4.39017,19.326781 -4.42639,24.528661 -0.0388,5.60286 0.55002,6.75516 3.4501,6.74988 2.06341,-0.003 3.5949,-0.96973 6.16267,-3.8868 2.1342,-2.4246 3.59902,-3.06697 5.12783,-2.24876 1.10913,0.59359 1.25153,2.06975 0.35558,3.68402 -0.8955,1.61304 -5.85538,6.61275 -7.28752,7.34602 -1.64804,0.84383 -5.50447,1.23436 -7.74161,0.78404 z m -135.50329,-0.73142 c -0.38558,-0.38558 -0.81588,-1.28508 -0.95661,-1.99923 -0.5506,-2.79324 -2.22059,-16.10436 -3.82207,-30.46329 -0.9234,-8.279011 -2.07531,-17.804621 -2.55973,-21.167989 -0.82878,-5.754101 -0.83383,-6.18179 -0.0855,-7.242691 1.15241,-1.633659 2.63183,-2.058581 3.77157,-1.083288 0.82722,0.707875 1.25891,3.469834 3.76447,24.084416 1.55659,12.806642 2.97308,24.607782 3.14775,26.224772 0.17446,1.61705 0.48892,2.94003 0.69827,2.94003 0.53781,0 7.40258,-11.5503 10.20454,-17.1696 2.99746,-6.01128 5.49223,-12.679856 7.30336,-19.52162 1.30696,-4.937326 1.4352,-6.087227 1.46892,-13.171227 0.0333,-7.04434 -0.0623,-8.008175 -1.03874,-10.429833 -1.77728,-4.408395 -4.31511,-6.169334 -11.01792,-7.645047 -2.53711,-0.558591 -2.57116,-3.506273 -0.05,-4.374328 1.6916,-0.582476 6.39229,0.336125 9.39597,1.836285 2.87725,1.436979 5.99172,4.987309 7.27014,8.287697 0.80922,2.089065 1.08663,3.992638 1.25474,8.609937 0.4617,12.674138 -2.33437,23.535211 -10.21959,39.700906 -3.70246,7.59047 -12.30128,21.19673 -14.26513,22.57226 -1.29791,0.90912 -3.36094,0.91484 -4.26394,0.0112 z m 305.21776,0.0634 c -4.17976,-1.95234 -7.32496,-8.72828 -5.01982,-10.81446 1.76845,-1.60038 3.42784,-0.87446 5.4323,2.37648 0.67109,1.08846 1.63271,2.19976 2.13696,2.4696 2.59011,1.3862 7.26402,-0.24668 9.23626,-3.22704 2.81268,-4.25033 2.0043,-8.27198 -4.26444,-21.21357 -5.03099,-10.386272 -6.56864,-15.227628 -6.12562,-19.286396 0.6835,-6.262226 2.71124,-9.804458 6.64309,-11.604514 2.21042,-1.011945 3.13804,-1.169177 6.03478,-1.022901 2.80545,0.141677 3.83731,0.428916 5.7202,1.593163 2.75224,1.70155 4.43188,4.025195 4.43188,6.131002 0,3.351316 -3.30509,4.157093 -5.50717,1.342637 -1.62111,-2.072022 -3.3516,-3.02497 -5.49323,-3.02497 -2.80547,0 -4.02199,0.752495 -5.07878,3.141586 -1.84322,4.166883 -0.84261,8.448711 4.75042,20.327843 1.82622,3.8788 3.87908,8.70512 4.56189,10.72507 3.13198,9.26548 0.49782,17.51546 -6.72504,21.06096 -3.27449,1.60738 -8.43281,2.10024 -10.73368,1.02551 z M 108.61127,61.256484 c -0.95762,-0.384467 -1.56411,-1.398093 -2.61739,-4.374942 -0.27869,-0.787607 -0.46998,-0.726829 -2.03445,0.646815 -2.16554,1.9014 -4.307394,2.809728 -6.625275,2.809728 -2.145051,0 -2.931591,-0.659421 -2.931591,-2.457757 0,-1.433769 1.302937,-2.246267 3.602183,-2.246267 0.834311,0 2.057213,-0.876878 4.100013,-2.940016 3.55086,-3.586107 5.61783,-6.680981 8.74223,-13.089553 1.31475,-2.696784 2.6575,-5.432453 2.98387,-6.079218 0.79619,-1.577942 2.81358,-1.816677 3.77327,-0.446704 0.88947,1.269927 0.42707,2.922027 -2.62649,9.384103 -2.13344,4.514899 -4.47892,13.136286 -3.85043,14.153181 0.20634,0.333911 1.18022,0.455588 2.57319,0.321687 2.14615,-0.206128 4.82606,-1.518371 7.57384,-3.708407 0.99725,-0.794771 1.42106,-0.884555 2.20254,-0.466132 2.41412,1.292021 1.60309,3.662007 -2.09036,6.108435 -3.81842,2.52922 -9.68609,3.624621 -12.77515,2.384876 z m 7.65981,-51.434852 c -1.51397,-0.659763 -3.99331,-3.8308478 -3.99331,-5.1074855 0,-0.4244693 0.47631,-1.321972 1.0584,-1.9946337 0.89651,-1.0358904 1.57348,-1.2656311 4.42559,-1.502032 3.17687,-0.26335411 3.43609,-0.2100112 4.5864,0.9401709 1.41801,1.4179732 1.58834,3.3995479 0.49092,5.712076 -1.16242,2.4496573 -3.69716,3.2029273 -6.56803,1.9519043 z"
       id="path836" />
  </g>
</svg>
