<?xml version="1.0" encoding="UTF-8" standalone="no"?>
<!-- Created with Inkscape (http://www.inkscape.org/) -->

<svg
   width="1920"
   height="1001.5197"
   viewBox="0 0 507.99999 264.98582"
   version="1.1"
   id="svg5"
   inkscape:version="1.1 (c68e22c387, 2021-05-23)"
   sodipodi:docname="Genblock capital.svg"
   xmlns:inkscape="http://www.inkscape.org/namespaces/inkscape"
   xmlns:sodipodi="http://sodipodi.sourceforge.net/DTD/sodipodi-0.dtd"
   xmlns="http://www.w3.org/2000/svg"
   xmlns:svg="http://www.w3.org/2000/svg">
  <sodipodi:namedview
     id="namedview7"
     pagecolor="#ffffff"
     bordercolor="#666666"
     borderopacity="1.0"
     inkscape:pageshadow="2"
     inkscape:pageopacity="0.0"
     inkscape:pagecheckerboard="0"
     inkscape:document-units="mm"
     showgrid="false"
     inkscape:zoom="0.33540615"
     inkscape:cx="968.97449"
     inkscape:cy="256.40556"
     inkscape:window-width="2560"
     inkscape:window-height="1346"
     inkscape:window-x="-11"
     inkscape:window-y="-11"
     inkscape:window-maximized="1"
     inkscape:current-layer="layer1"
     units="px"
     width="1920px"
     height="1001.5197px" />
  <defs
     id="defs2" />
  <g
     inkscape:label="Warstwa 1"
     inkscape:groupmode="layer"
     id="layer1">
    <path
       style="fill:#ffffff;stroke-width:0.547428"
       d="m 7.6467153,262.58163 c -2.6447763,-1.33609 -4.5823202,-3.795 -5.4490591,-6.91531 -0.8006852,-2.88253 -0.734611,-42.07438 0.074968,-44.46121 0.347131,-1.02345 1.1069023,-2.54385 1.6883843,-3.37865 3.225262,-4.63037 13.1703775,-5.36292 17.7862685,-1.31011 2.844067,2.49714 3.433569,4.38943 3.433569,11.02178 v 5.76555 h -1.836388 -1.836389 l -0.29716,-5.39287 c -0.354114,-6.42648 -1.257269,-8.56415 -4.124453,-9.76214 -2.361265,-0.9866 -6.046119,-0.71824 -8.0354317,0.58521 -0.750786,0.49194 -1.801288,1.69272 -2.334462,2.66841 -0.8781381,1.60699 -0.969383,3.68065 -0.969383,22.02881 0,19.17174 0.058536,20.37004 1.094846,22.40921 0.602175,1.18491 1.745955,2.6298 2.541732,3.21087 1.8327227,1.33825 6.1714387,1.40654 8.6287037,0.13578 2.75387,-1.42408 3.336399,-3.52846 3.336399,-12.05263 v -7.40785 H 16.969445 12.59002 v -1.64229 -1.64229 h 6.569128 6.569127 l -0.01243,9.71684 c -0.01397,10.8126 -0.572126,13.17437 -3.619324,15.29841 -3.877378,2.70274 -10.331815,3.20498 -14.4502089,1.12443 z m 170.5764947,0.39934 c -2.87062,-1.09606 -4.07447,-2.24167 -5.4532,-5.18934 -1.08874,-2.32766 -1.1619,-3.49818 -1.32768,-21.24002 -0.10334,-11.06328 0.0549,-20.25674 0.38554,-22.37975 1.09143,-7.01055 4.86477,-10.24965 11.90736,-10.22145 4.8941,0.0195 8.01612,1.63454 10.05925,5.20333 l 1.36269,2.38025 v 22.17083 c 0,21.93922 -0.0124,22.19488 -1.23079,24.47378 -1.76202,3.29693 -5.20064,5.1845 -9.89559,5.43198 -2.36162,0.12445 -4.41588,-0.0982 -5.80758,-0.62961 z m 8.97764,-3.95848 c 1.04354,-0.52642 2.39844,-1.81933 3.01084,-2.87313 1.06436,-1.83147 1.11348,-2.79756 1.11348,-21.89712 0,-18.89802 -0.0593,-20.09788 -1.09484,-22.1355 -1.57628,-3.10167 -3.54177,-4.35158 -6.84286,-4.35158 -3.20925,0 -5.24903,1.23917 -6.71837,4.08146 -0.88717,1.71617 -0.95757,3.66045 -0.82113,22.67934 0.13609,18.97551 0.23569,20.92957 1.13383,22.25218 2.05693,3.02907 6.65961,4.03995 10.21905,2.24435 z m 27.66372,4.00172 c -2.46358,-1.11947 -4.43371,-3.25223 -5.43738,-5.88616 -0.78883,-2.07015 -0.87911,-5.02937 -0.74129,-24.29518 l 0.15696,-21.93791 1.46931,-2.21945 c 3.63432,-5.48978 13.27295,-6.38563 17.8334,-1.65749 2.43444,2.52395 2.86811,4.12118 2.86811,10.56331 v 5.71235 h -1.91599 -1.91599 l -0.0124,-3.96885 c -0.0267,-8.10712 -2.02512,-11.36097 -6.97528,-11.35706 -3.51724,0.003 -5.78412,1.46693 -6.93438,4.47885 -0.79991,2.09453 -0.89063,4.77488 -0.74727,22.08032 0.17689,21.35448 0.22594,21.71385 3.27009,23.9662 0.80556,0.59601 2.65312,1.19439 4.1057,1.32972 2.13604,0.19901 3.00745,-0.002 4.55707,-1.05339 2.52377,-1.71168 3.21603,-3.93101 3.25366,-10.43096 l 0.0309,-5.33743 h 1.916 1.91601 v 6.53351 c 0,8.76118 -0.98869,11.03753 -5.74801,13.23408 -2.63003,1.21384 -8.52664,1.34608 -10.94856,0.24554 z m 88.13587,-0.11901 c -2.6039,-1.37032 -4.56467,-3.47637 -5.48467,-5.891 -0.72859,-1.91231 -0.82837,-5.38896 -0.69399,-24.17816 l 0.15695,-21.94468 1.56653,-2.25974 c 4.45453,-6.42567 16.0241,-6.16718 19.37258,0.43285 1.05729,2.08396 1.23171,3.28725 1.23171,8.49725 v 6.06951 l -1.85444,-0.2165 -1.85445,-0.21651 -0.24506,-5.28471 c -0.13485,-2.90659 -0.55301,-5.92144 -0.92935,-6.69967 -1.53787,-3.18007 -6.74285,-4.26201 -10.20625,-2.1215 -3.44806,2.13101 -3.60835,3.32478 -3.41827,25.45985 0.15997,18.63004 0.22847,19.78344 1.28248,21.59712 1.53043,2.63345 4.22924,3.95104 7.51405,3.66841 4.88331,-0.42015 6.42674,-3.13749 6.42674,-11.31483 v -5.49186 h 2.1897 2.18971 v 4.89992 c 0,8.95102 -1.60314,12.75225 -6.27277,14.87336 -2.80423,1.27377 -8.6579,1.33827 -10.9712,0.12089 z M 38.319111,233.99062 v -29.29947 h 10.401134 10.401134 v 1.64228 c 0,0.90326 -0.184769,1.64811 -0.410586,1.65523 -0.225807,0.008 -3.982538,0.0687 -8.348274,0.13687 l -7.937697,0.12398 -0.1482,11.07109 -0.148189,11.07109 8.35957,0.15114 8.359559,0.15114 0.171533,1.77915 0.171552,1.77914 h -8.530096 -8.530085 l 0.147101,12.45398 0.147111,12.45398 8.381865,0.1513 8.381886,0.15129 -0.170464,1.76472 -0.170464,1.7647 -10.264262,0.14897 -10.264282,0.14897 z m 31.203382,-0.0394 v -29.31471 l 3.10824,0.16418 3.108231,0.16418 6.444989,25.10137 c 3.544737,13.80577 6.568983,25.38386 6.720551,25.7291 0.151599,0.34525 0.225191,-11.01207 0.163635,-25.23849 l -0.111887,-25.86621 2.057636,2.6e-4 2.057657,2.7e-4 -0.141679,29.15053 -0.141668,29.15052 -2.840062,0.16428 c -2.29212,0.13268 -2.934727,-0.0258 -3.330792,-0.82113 -0.269904,-0.542 -3.302869,-12.13663 -6.73993,-25.76583 l -6.24919,-24.78039 -0.142141,25.73839 -0.14214,25.73839 h -1.910638 -1.910648 v -29.31469 z m 38.319947,0.0273 v -29.28737 l 8.07456,0.009 c 7.33788,0.008 8.27155,0.12056 10.23376,1.23201 3.91882,2.21968 4.40994,3.76877 4.40994,13.90995 0,9.9825 -0.27271,10.80247 -4.36317,13.11958 -2.00668,1.13671 -2.03041,1.18503 -0.76968,1.56692 2.00013,0.60588 4.26,3.00862 4.85953,5.16678 0.7289,2.62381 0.68809,14.0079 -0.0599,16.70198 -0.33043,1.19022 -1.38027,2.94348 -2.33294,3.89616 -2.23885,2.23883 -5.6404,2.97237 -13.78366,2.97237 h -6.26843 v -29.28738 z m 15.83281,23.74593 c 1.02192,-0.35625 1.97675,-1.17665 2.2714,-1.95165 0.83644,-2.19999 0.6255,-13.61132 -0.2922,-15.8077 -1.12421,-2.69061 -4.27735,-4.04285 -9.46374,-4.05856 l -3.96885,-0.0124 v 11.22227 11.22226 h 4.84516 c 2.66484,0 5.63853,-0.27657 6.60823,-0.6146 z m -0.71551,-26.91012 c 2.79704,-1.46513 3.49523,-3.7273 3.49523,-11.32449 0,-3.72334 -0.26077,-7.14651 -0.59148,-7.76446 -0.95798,-1.79001 -3.88021,-2.65481 -8.97092,-2.65481 h -4.67071 v 11.56463 11.56463 l 4.51628,-0.24607 c 2.66525,-0.14526 5.21522,-0.61222 6.2216,-1.13941 z m 19.19897,32.09742 c -0.20667,-0.20666 -0.37575,-13.39083 -0.37575,-29.29817 v -28.92242 h 2.1897 2.18972 v 27.37139 27.37139 h 9.61468 9.61466 l -0.17154,1.77912 -0.17153,1.77915 -11.2571,0.14773 c -6.1914,0.0811 -11.42618,-0.0214 -11.63284,-0.2281 z m 101.99325,-28.93323 v -29.28738 h 1.916 1.91598 v 13.68569 c 0,7.52713 0.18475,13.67842 0.41059,13.66952 0.22581,-0.009 3.48984,-6.16514 7.25341,-13.68053 l 6.84284,-13.66436 2.35952,-0.004 2.3595,-0.005 -4.16144,7.80084 c -2.28879,4.29048 -5.04753,9.54669 -6.13054,11.6805 l -1.96911,3.87964 6.09761,17.01016 c 3.35367,9.35512 6.0976,17.27822 6.0976,17.60644 0,0.32819 -0.87408,0.59673 -1.94243,0.59673 -2.32875,0 -1.71461,1.26885 -7.92567,-16.3749 -2.55131,-7.2475 -4.8204,-13.17927 -5.04243,-13.18172 -0.22203,-0.003 -1.26897,1.71377 -2.32656,3.81385 l -1.92289,3.81832 v 10.96217 10.96222 h -1.91598 -1.916 z m 85.39872,28.73295 c 0,-0.30492 2.34026,-13.46185 5.20057,-29.23759 2.86031,-15.77573 5.20056,-28.82874 5.20056,-29.00666 0,-0.17793 1.31168,-0.32351 2.91484,-0.32351 h 2.91482 l 1.18008,6.43227 c 2.71892,14.82024 9.41311,52.05681 9.41311,52.36067 0,0.18109 -0.96581,0.32925 -2.14622,0.32925 -2.43578,0 -2.15844,0.63227 -3.60178,-8.21142 -0.46682,-2.8603 -0.9853,-5.87801 -1.15217,-6.70598 l -0.3034,-1.50542 h -6.2131 -6.21312 l -0.57008,2.87398 c -0.68683,3.46249 -2.24048,12.56322 -2.24294,13.13828 -9.5e-4,0.22581 -0.98711,0.41056 -2.19145,0.41056 -1.20435,0 -2.18972,-0.24949 -2.18972,-0.55443 z m 18.61256,-21.01957 c 0,-0.72555 -0.98088,-7.06887 -2.1797,-14.09627 -2.89127,-16.94816 -2.86993,-16.84441 -3.19213,-15.51421 -0.81803,3.37706 -5.3718,30.17487 -5.18614,30.51909 0.12181,0.22581 2.54717,0.41056 5.38971,0.41056 5.09626,0 5.16826,-0.0185 5.16826,-1.31917 z m 19.55087,21.23498 c -0.215,-0.21499 -0.39091,-13.40598 -0.39091,-29.31332 v -28.92242 h 7.82171 c 7.02643,0 8.06879,0.12522 10.25175,1.23171 4.19561,2.12663 4.6448,3.52021 4.6448,14.41008 0,9.05468 -0.0423,9.4083 -1.35917,11.32995 -2.27732,3.32354 -4.84649,4.38296 -11.32799,4.67122 l -5.63253,0.25051 -0.14649,13.20379 -0.14648,13.20379 -1.66196,0.16279 c -0.91408,0.0895 -1.83786,-0.0124 -2.05284,-0.2281 z m 16.16014,-31.91297 1.78779,-1.59604 0.14913,-8.39451 c 0.10691,-6.02315 -0.0498,-8.78114 -0.55506,-9.7631 -1.16759,-2.26942 -3.95024,-3.28275 -9.01717,-3.28371 l -4.49631,-0.001 -0.15683,12.31759 -0.15685,12.31761 5.32878,-4.8e-4 c 5.11251,-4.6e-4 5.40136,-0.0652 7.11657,-1.59651 z m 18.73538,31.56771 c -0.14417,-0.37637 -0.19798,-13.49409 -0.11964,-29.15053 l 0.14229,-28.46624 2.05284,-0.1699 2.05286,-0.1699 v 29.32042 29.32043 h -1.93317 c -1.06325,0 -2.05109,-0.30793 -2.1952,-0.68428 z m 24.20072,0.31932 c -0.20071,-0.20071 -0.36496,-12.62161 -0.36496,-27.60197 v -27.23704 l -4.51626,0.0155 c -2.48396,0.008 -4.82422,-0.0109 -5.20057,-0.0431 -0.38239,-0.0325 -0.68429,-0.78299 -0.68429,-1.70071 v -1.64227 h 12.62552 12.62553 l -0.17154,1.751 -0.17155,1.75098 -4.92684,0.0281 -4.92686,0.028 -0.14198,27.50824 -0.14199,27.50823 h -1.81969 c -1.00084,0 -1.98393,-0.16422 -2.18465,-0.36493 z m 18.2476,-0.60763 c 0,-0.86721 8.45784,-48.08187 9.90185,-55.2756 l 0.5769,-2.874 h 2.86036 2.86036 l 5.08455,28.32938 c 2.79651,15.58117 5.21373,28.88366 5.3716,29.5611 0.26134,1.12148 0.089,1.23171 -1.92515,1.23171 -2.59259,0 -2.31169,0.65019 -3.9615,-9.16941 l -1.21864,-7.25341 h -6.17999 c -5.4108,0 -6.21593,0.11917 -6.46866,0.95799 -0.15878,0.5269 -0.80485,4.02123 -1.43572,7.7652 -0.63086,3.74395 -1.27112,7.008 -1.42281,7.25341 -0.15161,0.24542 -1.12345,0.44622 -2.15946,0.44622 -1.43981,0 -1.88369,-0.22917 -1.88369,-0.97259 z m 18.40548,-21.88252 c -0.76555,-5.59399 -4.91769,-29.1351 -5.10562,-28.94717 -0.10956,0.10956 -1.29572,6.57513 -2.63594,14.36791 -1.34019,7.79277 -2.58303,14.84614 -2.76183,15.67411 l -0.32509,1.50543 h 5.59217 5.59218 z m 19.36703,-6.43227 v -29.28738 h 2.1897 2.18973 v 27.37139 27.37139 h 9.57999 9.57998 v 1.91598 1.916 h -11.7697 -11.7697 z M 205.83201,146.92308 c -23.22783,-13.49368 -31.7999,-18.74258 -32.7088,-20.02837 l -1.23172,-1.7425 V 88.52833 c 0,-39.243583 -0.0214,-38.925207 2.70682,-40.385279 2.54856,-1.363949 4.15803,-0.627859 25.82634,11.81181 11.85607,6.806518 25.99166,14.920705 31.41243,18.031524 10.49345,6.021885 11.07154,5.660825 12.39566,8.966835 0.1942,5.68242 -4.82605,7.82528 -9.86837,5.03291 -1.75878,-1.23027 -49.0326,-28.449798 -50.16561,-28.884569 -0.71052,-0.272667 -0.81129,3.317996 -0.81129,28.909279 v 29.22061 l 24.23132,14.05235 c 13.32721,7.72878 24.65896,14.21645 25.18167,14.41702 0.88321,0.33892 0.95036,-0.43061 0.95036,-10.89056 v -11.25525 l -8.37784,-5.50286 c -3.59181,-2.35922 -7.5599,-4.34919 -8.48008,-6.27667 -2.00999,-4.21024 1.20749,-7.9119 5.97204,-6.16855 2.74679,1.00504 19.61402,10.37866 21.35533,12.11455 1.28534,1.28134 1.02261,3.07877 1.02449,20.16992 0.002,19.656 -0.21088,21.48661 -2.65276,22.79347 -3.15927,1.69079 -3.84479,1.35956 -36.75999,-17.76179 z m 51.56278,13.44047 0.0176,-35.70626 c 0.0179,-36.16644 0.1866,-37.43558 1.22454,-38.80124 0.59015,-0.7765 6.25603,-4.462666 12.59083,-8.191472 39.65847,-23.343844 50.51982,-29.599051 52.20104,-30.063245 3.30105,-0.911473 6.35924,1.430845 6.61246,5.064588 0.1173,1.684297 -0.14742,2.341548 -1.40469,3.485749 -1.23841,1.127082 -58.32959,34.7952 -59.93627,35.34591 -0.30384,0.10413 -0.72523,52.49204 -0.47528,59.08622 0.008,0.19896 11.65341,-6.42306 25.87968,-14.71559 14.22627,-8.29253 26.82658,-15.51466 28.00067,-16.04918 3.42123,-1.55758 6.25126,-0.47791 7.70905,2.94105 0.84446,1.98053 0.48831,3.82096 -1.00361,5.18603 -0.94913,0.86845 -43.32916,25.65584 -59.9368,35.05605 -6.78025,3.7446 -11.45441,2.15288 -11.47919,-2.63861 z M 191.15159,35.737827 c 1.30205,-1.406742 50.91462,-30.6733296 57.01259,-33.6195576 2.8669,-1.38513599 3.78998,-1.34902799 6.26378,0.24501 1.12262,0.723366 14.11191,8.1471856 28.86508,16.4973586 14.75318,8.350174 27.48482,15.82605 28.29253,16.613036 5.21401,3.644475 0.62125,10.912074 -3.41545,9.170648 -1.35838,-0.0687 -9.22714,-4.28549 -28.16165,-15.091357 -14.45209,-8.247745 -26.86766,-15.411078 -27.59016,-15.918516 -1.29133,-0.906944 -1.47721,-0.825445 -10.94856,4.800086 -11.38464,6.761937 -38.09897,22.359161 -41.75864,24.380874 -8.98033,6.058988 -14.65792,-2.683718 -8.55952,-7.077582 z"
       id="path836"
       sodipodi:nodetypes="cssssscccsssssssssccccccccsccssscsscscssssssssssscsscssscccccsssscscccssccssscsssccccsssssscccsssccccsccccccccccccccccccccccccsssccccccssccccccccccssssssssccccssccccsccsssscccsssssccccccccccssccccscscccssccssscsccccccsssscssssscccsssssssssscscssssscccscccccsccccsccsccccccssscscccscccccccccsccsscccsssscsssssssssscccscccccccccccccsscssssccsscssscsssscsssssssssscssssccscsssccssscc" />
  </g>
</svg>
