<?xml version="1.0" encoding="UTF-8" standalone="no"?>
<!-- Created with Inkscape (http://www.inkscape.org/) -->

<svg
   width="1920"
   height="259"
   viewBox="0 0 507.99999 68.527092"
   version="1.1"
   id="svg4130"
   inkscape:version="1.1 (c68e22c387, 2021-05-23)"
   sodipodi:docname="Solana WHITE.svg"
   xmlns:inkscape="http://www.inkscape.org/namespaces/inkscape"
   xmlns:sodipodi="http://sodipodi.sourceforge.net/DTD/sodipodi-0.dtd"
   xmlns="http://www.w3.org/2000/svg"
   xmlns:svg="http://www.w3.org/2000/svg">
  <sodipodi:namedview
     id="namedview4132"
     pagecolor="#ffffff"
     bordercolor="#666666"
     borderopacity="1.0"
     inkscape:pageshadow="2"
     inkscape:pageopacity="0.0"
     inkscape:pagecheckerboard="0"
     inkscape:document-units="mm"
     showgrid="false"
     units="px"
     inkscape:zoom="0.47433592"
     inkscape:cx="891.77307"
     inkscape:cy="229.79495"
     inkscape:window-width="2560"
     inkscape:window-height="1346"
     inkscape:window-x="-11"
     inkscape:window-y="-11"
     inkscape:window-maximized="1"
     inkscape:current-layer="layer1" />
  <defs
     id="defs4127" />
  <g
     inkscape:label="Warstwa 1"
     inkscape:groupmode="layer"
     id="layer1">
    <g
       id="g8210"
       transform="translate(-0.03710753,-0.01588423)"
       style="fill:#ffffff">
      <g
         id="g4225"
         transform="matrix(1.0016584,0,0,1.0016584,-90.342648,-114.46684)"
         style="fill:#ffffff">
        <path
           id="circle2417"
           style="display:inline;fill:#ffffff;fill-opacity:1;stroke-width:0.254755;stroke-linecap:round;stroke-dashoffset:26.8087;stop-color:#000000"
           d="m 106.25975,114.77679 h 34.74729 34.74582 l 0.22406,0.10135 c 0.26654,0.12102 0.58319,0.44274 0.71417,0.72731 0.0715,0.15764 0.0932,0.28428 0.0932,0.56856 0,0.31667 -0.0224,0.39884 -0.12215,0.60377 -0.0988,0.19421 -1.36323,1.47546 -7.12138,7.22895 -5.28679,5.28262 -7.05787,7.02913 -7.24211,7.13609 -0.13481,0.0788 -0.38633,0.19139 -0.56001,0.25612 l -0.3156,0.11548 h -34.78946 c -33.949938,0 -34.794302,0 -34.995982,-0.0732 h 0.003 c -0.324747,-0.12665 -0.564937,-0.35266 -0.725824,-0.67945 -0.12442,-0.25332 -0.14409,-0.32903 -0.14409,-0.63275 0,-0.2885 0.0197,-0.38364 0.11787,-0.5818 0.0991,-0.19983 1.221641,-1.34034 7.143158,-7.25653 7.656048,-7.64891 7.173668,-7.19549 7.908288,-7.42402 z m 20.15106,25.15909 c 31.415,0 34.64862,0 34.96109,0.0562 0.18945,0.0366 0.50808,0.14637 0.70982,0.24205 l 0.36652,0.17453 7.04722,7.04148 c 5.93926,5.93451 7.06629,7.07896 7.16504,7.27823 0.0971,0.19704 0.11484,0.29302 0.11484,0.58208 0,0.30372 -0.0224,0.38053 -0.14239,0.63415 -0.16216,0.33158 -0.40416,0.55393 -0.73747,0.6806 -0.21447,0.0817 -0.76986,0.0817 -34.91019,0.0788 -33.54017,0 -34.68067,0 -34.98875,-0.0816 -0.36657,-0.0957 -0.59238,-0.20548 -0.93962,-0.45371 -0.14298,-0.10136 -3.3686,-3.2994 -7.169358,-7.1054 -5.620897,-5.62881 -6.929298,-6.96101 -7.012248,-7.1361 -0.14102,-0.29751 -0.14779,-0.85312 -0.0197,-1.14754 0.13059,-0.28457 0.413327,-0.57337 0.696704,-0.71267 l 0.24292,-0.11825 z m 14.48857,25.51965 c 31.68415,0 34.7849,0 34.97276,0.0591 0.33012,0.1098 0.60583,0.35662 0.77087,0.69243 0.12613,0.25613 0.14247,0.33129 0.14247,0.63555 0,0.28878 -0.0224,0.38393 -0.118,0.5818 -0.0988,0.19983 -1.22386,1.34401 -7.16354,7.2785 l -7.0487,7.04121 -0.36507,0.17452 c -0.20208,0.0957 -0.51581,0.20547 -0.69819,0.24206 -0.29653,0.0591 -4.01475,0.0648 -34.89561,0.0619 -27.745461,0 -34.598972,0 -34.737072,-0.0562 v 0 c -0.279797,-0.0872 -0.422777,-0.18014 -0.618167,-0.39125 -0.283727,-0.30765 -0.370087,-0.53394 -0.369457,-0.96853 0,-0.2947 0.0197,-0.407 0.10325,-0.58039 0.0819,-0.17451 1.395391,-1.50897 7.119908,-7.23067 5.304208,-5.30146 7.078228,-7.04909 7.262438,-7.15606 0.13483,-0.0788 0.38634,-0.1942 0.55998,-0.25612 l 0.31566,-0.11535 z"
           sodipodi:nodetypes="cccccscscccsccssssccccccscscscccssccccccssccccccsscccscccc"
           inkscape:export-filename="C:\Users\Aga\Pictures\SNY icons\Website icons\Features\sol.png"
           inkscape:export-xdpi="96"
           inkscape:export-ydpi="96" />
      </g>
      <g
         id="g7248"
         transform="matrix(0.26143489,0,0,0.26143489,-114.32085,-49.772512)"
         style="fill:#ffffff">
        <path
           d="m 931.1,341 h 82.5 c 11.6,0 21,9.5 21,21.1 0,11.7 -9.4,21.1 -21,21.1 h -99.5 c -1.6,0 -3.1,0.6 -4.2,1.6 l -30,25.9 c -4.6,4 -1.8,11.5 4.2,11.5 h 124.5 c 0,0 0.1,0 0.1,-0.1 0,-0.1 0.1,-0.1 0.1,-0.1 1.6,0.1 3.1,0.2 4.7,0.2 33,0 59.8,-26.9 59.8,-60.1 0,-31.5 -24.1,-57.4 -54.9,-59.9 0,0 -0.1,0 -0.1,-0.1 0,-0.1 0,-0.1 -0.1,-0.1 h -88.8 c -11.6,0 -21,-9.5 -21,-21.1 0,-11.7 9.4,-21.1 21,-21.1 h 99.3 c 1.6,0 3.2,-0.6 4.4,-1.7 l 27.9,-25.9 c 4.4,-4.1 1.5,-11.4 -4.4,-11.4 H 931.1 c 0,0 0,0 0,0 0,0 0,0 0,0 -0.5,0 -1.1,0 -1.6,0 -33,0 -59.8,26.9 -59.8,60.1 0,33.2 26.8,60.1 59.8,60.1 0.5,0 1,0 1.6,0 0,0 0,0 0,0 0,0 0,0 0,0 z"
           id="path7214"
           style="fill:#ffffff" />
        <path
           d="m 1411.3,220.7 c -3.6,0 -6.5,2.9 -6.5,6.6 v 188.4 c 0,3.6 2.9,6.6 6.5,6.6 h 151 c 1.8,0 3.5,-0.8 4.8,-2.1 l 18.9,-20.3 c 3.9,-4.2 1,-11.1 -4.8,-11.1 h -131.8 c -3.6,0 -6.5,-2.9 -6.5,-6.6 v -155 c 0,-3.6 -2.9,-6.6 -6.5,-6.6 h -25.1 z"
           id="path7216"
           style="fill:#ffffff" />
        <path
           class="st1"
           d="m 1169.5,220.7 c 0,0 0,0 0,0 0,0.1 0,0.1 0,0 -19.3,0.9 -34.8,16.4 -35.7,35.7 0,0 0,0 0,0 0,0 0,0 0,0 0,0 0,0 0,0 v 126.7 c 0,0 0,0 0,0 0,0 0,0 0,0 0,0.5 0,1.1 0,1.6 0,20.1 15.8,36.5 35.7,37.3 0,0 0,0 0,0 v 0 0 c 0,0 0,0 0,0 h 137 c 0,0 0,0 0,0 v 0 0 0 c 19.8,-0.9 35.7,-17.3 35.7,-37.3 0,-0.5 0,-1.1 0,-1.6 0,0 0,0 0,0 0,0 0,0 0,0 V 256.5 c 0,0 0,0 0,0 0,0 0,0 0,0 -0.8,-19.3 -16.3,-34.9 -35.6,-35.7 0,0 0,0 0,0 0,0 0,0 0,0 h -137.1 z m 25.6,35.8 v 0 0 c -0.1,0 -0.1,0 0,0 -12.1,0.5 -21.8,10.3 -22.3,22.5 0,0 0,0 0,0 0,0 0,0 0,0 v 79.7 c 0,0 0,0 0,0 0,0 0,0 0,0 0,0.3 0,0.7 0,1 0,12.6 9.9,23 22.3,23.5 0,0 0,0 0,0 v 0 0 0 h 85.9 v 0 0 0 c 0,0 0,0 0,0 12.4,-0.5 22.3,-10.9 22.3,-23.5 0,-0.3 0,-0.7 0,-1 v 0 0 0 c 0,0 0,0 0,0 V 279 c 0,0 0,0 0,0 0,0 0,0 0,0 -0.5,-12.2 -10.2,-21.9 -22.3,-22.5 0,0 0,0 0,0 v 0 0 0 z"
           id="path7218"
           style="fill:#ffffff" />
        <path
           class="st1"
           d="m 1805.5,415.7 c 0,3.6 2.9,6.6 6.5,6.6 h 25.6 c 3.6,0 6.5,-2.9 6.5,-6.6 V 259.8 c 0,0 0,0 0,0 v 0 0 c 0,0 0,0 0,0 0,-0.5 0,-1.1 0,-1.6 0,-20.1 -15.7,-36.5 -35.3,-37.3 0,0 0,0 0,0 0,0 0,0 0,0 h -131.5 c 0,0 0,0 0,0 0,0 0,0 0,0 -0.5,0 -1.1,0 -1.6,0 -20.4,0 -36.9,16.7 -36.9,37.4 0,0.5 0,1.1 0,1.6 0,0 0,0 0,0 0,0 0,0 0,0 v 155.9 c 0,3.6 2.9,6.6 6.5,6.6 h 25.6 c 3.6,0 6.5,-2.9 6.5,-6.6 v -64.9 c 0,-3.6 2.9,-6.6 6.5,-6.6 h 115.4 c 3.6,0 6.5,2.9 6.5,6.6 v 64.8 z M 1677.2,308.4 V 276 c 0,-12.6 10.1,-22.8 22.5,-22.8 h 83.4 c 12.4,0 22.5,10.2 22.5,22.8 v 32.4 c 0,3.6 -2.9,6.6 -6.5,6.6 h -115.4 c -3.6,0 -6.5,-2.9 -6.5,-6.6 z"
           id="path7220"
           style="fill:#ffffff" />
        <path
           class="st1"
           d="m 2346,422.3 c -3.6,0 -6.5,-2.9 -6.5,-6.6 v -64.9 c 0,-3.6 -2.9,-6.6 -6.5,-6.6 h -116.7 c -3.6,0 -6.5,2.9 -6.5,6.6 v 64.9 c 0,3.6 -2.9,6.6 -6.5,6.6 h -25.8 c -3.6,0 -6.5,-2.9 -6.5,-6.6 v -155.9 0 0 c 0,0 0,0 0,0 0,0 0,0 0,0 0,-0.5 0,-1.1 0,-1.6 0,-20.6 16.7,-37.4 37.3,-37.4 0.5,0 1.1,0 1.6,0 0,0 0,0 0,0 0,0 0,0 0,0 h 132.9 c 0,0 0,0 0,0 0,0 0,0 0,0 19.8,0.9 35.7,17.3 35.7,37.3 0,0.5 0,1.1 0,1.6 0,0 0,0 0,0 0,0 0,0 0,0 0,0 0,0 0,0 v 155.9 c 0,3.6 -2.9,6.6 -6.5,6.6 h -26 z M 2209.8,276 v 32.4 c 0,3.6 2.9,6.6 6.5,6.6 H 2333 c 3.6,0 6.5,-2.9 6.5,-6.6 V 276 c 0,-12.6 -10.2,-22.8 -22.7,-22.8 h -84.3 c -12.6,0 -22.7,10.2 -22.7,22.8 z"
           id="path7222"
           style="fill:#ffffff" />
        <path
           d="m 1940.5,220.7 c 1.9,0 3.7,0.8 4.9,2.3 l 114.8,136.9 c 3.9,4.6 11.4,1.8 11.4,-4.3 V 227.3 c 0,-3.6 2.9,-6.6 6.5,-6.6 h 25.6 c 3.6,0 6.5,2.9 6.5,6.6 v 188.4 c 0,3.6 -2.9,6.58778 -6.5,6.6 l -30.8858,0.10482 c -0.9148,0 -1.0329,-0.0768 -1.4471,-0.50482 L 1954.8,286 c -3.9,-4.6 -11.4,-1.7 -11.4,4.3 v 125.5 c 0,3.6 -2.9,6.6 -6.5,6.6 h -25.8 c -3.6,0 -6.5,-2.9 -6.5,-6.6 V 227.3 c 0,-3.6 2.9,-6.6 6.5,-6.6 z"
           id="path7224"
           sodipodi:nodetypes="sccssssssscccssssssss"
           style="fill:#ffffff" />
      </g>
    </g>
  </g>
  <style
     type="text/css"
     id="style7210">
	.st0{fill:#FFFFFF;}
	.st1{fill-rule:evenodd;clip-rule:evenodd;}
</style>
</svg>
